<?xml version="1.0" standalone="no"?>
<!DOCTYPE svg PUBLIC "-//W3C//DTD SVG 1.1//EN" "http://www.w3.org/Graphics/SVG/1.1/DTD/svg11.dtd" >
<svg xmlns="http://www.w3.org/2000/svg" xmlns:xlink="http://www.w3.org/1999/xlink" version="1.1">
<metadata>
Created by FontForge 20170731 at Wed Feb 24 15:36:51 2021
 By Aleksey,,,
Copyright (c) 2017 by Just Font You. All rights reserved.
</metadata>
<defs>
<font id="AesthetikScript" horiz-adv-x="1638" >
  <font-face 
    font-family="Aesthetik Script"
    font-weight="400"
    font-stretch="normal"
    units-per-em="2048"
    panose-1="0 0 0 0 0 0 0 0 0 0"
    ascent="1536"
    descent="-512"
    x-height="1020"
    cap-height="1863.5"
    bbox="-659 -1507.45 2847 2540.12"
    underline-thickness="102"
    underline-position="-307"
    unicode-range="U+000D-25CA"
  />
<missing-glyph horiz-adv-x="555" 
 />
    <glyph glyph-name=".notdef" horiz-adv-x="555" 
 />
    <glyph glyph-name=".null" horiz-adv-x="0" 
 />
    <glyph glyph-name="nonmarkingreturn" horiz-adv-x="682" 
 />
    <glyph glyph-name="NULL" horiz-adv-x="0" 
 />
    <glyph glyph-name="NULL" horiz-adv-x="0" 
 />
    <glyph glyph-name="CR" unicode="&#xd;" horiz-adv-x="555" 
 />
    <glyph glyph-name="space" unicode=" " horiz-adv-x="555" 
 />
    <glyph glyph-name="exclam" unicode="!" horiz-adv-x="1122" 
d="M1038 1847q11 -6 18 -19.5t3 -23.5q-4 -12 -10 -18q-3 -6 -5 -8q-4 -8 -11.5 -22.5t-8.5 -16.5q-9 -18 -27.5 -50t-21.5 -38q-22 -34 -72 -133q-5 -9 -15.5 -29t-15.5 -29l-4 -8q-68 -128 -92 -180q-25 -53 -88 -201q-2 -5 -11.5 -25t-14.5 -32q-15 -36 -48.5 -111.5
t-50.5 -116.5q-10 -26 -47 -112q-14 -31 -40.5 -94t-39.5 -93q-13 -32 -53 -114q-15 -31 -23 -51q-6 -10 -26 -56q-7 -14 -19.5 -40.5t-22.5 -48t-18 -40.5q-3 -6 -10 -18.5t-10 -18.5q-20 -30 -25 -43q-7 -21 -26 -24q-8 -4 -17 -4t-18 6q-15 12 -12 47v2q2 13 18 49
q1 3 3 9.5t3 9.5q4 8 12.5 24.5t12.5 24.5q2 4 5.5 10.5t6 12t4.5 9.5q25 50 29 60q15 30 88 188q45 96 135 305l12 27q5 13 25 58t29 69q65 150 69 158q6 13 43 96q9 20 28 61t28 62q32 79 102 215q3 5 9 16.5t9 16.5q62 124 123 219q10 10 13 18q21 34 32 43
q12 10 20 10.5t23 -8.5zM63 -166q-1 -23 12.5 -41.5t33.5 -21.5q17 -4 37.5 16.5t25.5 44.5q1 17 -16 35t-35 20q-20 2 -38.5 -14.5t-19.5 -38.5z" />
    <glyph glyph-name="quotedbl" unicode="&#x22;" horiz-adv-x="548" 
d="M250 1407q-28 -2 -40.5 15t-2.5 42q26 59 65 117q3 4 15.5 19t17.5 24q6 11 14 22.5t14 19.5t17.5 21t16.5 18t19 20t17 18q2 2 7.5 6t7.5 6q18 13 49 8q4 -1 6.5 -6.5t6 -16t5.5 -14.5q1 -5 0.5 -7.5t-3 -6.5t-3.5 -6q-3 -13 -9.5 -24.5t-18.5 -26.5t-15 -19
q-20 -24 -40.5 -54t-44.5 -67t-38 -57q-5 -7 -17 -20.5t-17 -20.5q-13 -13 -29 -10zM319 1796q-3 -4 -5 -14t-5 -13q-6 -10 -19.5 -36t-23.5 -39q-25 -31 -66 -93.5t-57 -84.5q-13 -20 -34.5 -24t-34.5 11q-17 17 -11 41q12 46 54 103q11 15 42 66.5t52 76.5q6 8 18 20.5
t15 16.5q6 7 14 10t13.5 3.5t16.5 -0.5t15 -1q8 0 8 -10q0 -25 8 -33z" />
    <glyph glyph-name="numbersign" unicode="#" horiz-adv-x="1208" 
d="M481 571h-88q-41 0 -51 -34q-5 -14 -18.5 -43t-18.5 -45q-29 -71 -49 -140q-1 -3 -12 -20q-13 -17 -45 -13q-6 1 -10 5.5t-5.5 8t-3 11t-2.5 10.5q-2 6 2 23q9 26 28 95t34 106q6 17 2 21.5t-25 4.5q-8 1 -14.5 0t-14.5 0.5t-14 5.5q-12 8 -35 -4q-29 -14 -51 -12
q-17 1 -24.5 14.5t0.5 28.5q15 31 51 37q9 2 40.5 8t52 9t40.5 3q32 -3 43 29q32 85 94 225q9 19 6 24t-22 5q-47 0 -78 10q-32 13 -66 10q-14 0 -18 4q-26 22 -29 31q-2 7 25 29q24 16 45 16q43 -2 133 -2q3 0 9 -1t9 -1q29 -8 37.5 -4t20.5 33q95 206 162 327
q8 15 48 95.5t66 120.5q4 6 15.5 20.5t18.5 25.5t11 23q8 17 33 29q5 3 14 3t13 -3q5 -2 0 -10t-4 -11v-34q5 -50 -29 -119q-16 -30 -58 -115.5t-67 -130.5q-24 -45 -96 -186q-2 -3 -8 -16t-9 -19q-9 -26 -6 -31.5t31 -11.5q16 -2 49 -2h107q22 -3 30 16q16 35 47.5 104.5
t46.5 104.5q18 42 31 61q18 29 57.5 107t67.5 117q11 17 33 26q11 5 24.5 -1.5t14.5 -18.5q0 -28 -8 -47q-33 -90 -119 -258q-19 -39 -51 -112t-41 -93q-4 -11 -3 -12.5t11 -3.5q146 -19 186 -29q51 -13 64 -39q11 -18 0 -43q-4 -6 -9.5 -10t-13.5 -8l-10 -5q-7 -2 -9 -2.5
t-8 4t-8 5.5q-25 9 -98 18q-14 2 -58 2t-69 8q-24 7 -33 -20q-70 -185 -75 -197q-6 -18 12 -18q30 3 84.5 -3.5t68.5 -7.5q75 -9 101 -18q3 -1 10 -4t10 -4q25 -8 25 -39q0 -11 -12 -22t-25 -11q-17 1 -88.5 1t-110.5 7q-15 3 -31.5 3.5t-40 -0.5t-32.5 -1t-14 -10
q-2 -6 -8.5 -17.5t-8.5 -17.5q-28 -84 -84.5 -237.5t-70.5 -192.5q-39 -107 -74 -186q-6 -18 -21 -33q-18 -20 -32 -20t-33 18q-16 19 -6 39q41 84 93 248t68 207q7 17 28.5 81t37.5 97q12 24 -16 24h-99zM420 662q6 4 15.5 6t16 2.5t21 0t19.5 -0.5h112q25 0 30.5 4.5
t14.5 30.5q6 16 20 48.5t24.5 59.5t17.5 51q1 4 7 12.5t7.5 12.5t-2.5 12q-5 5 -11.5 7t-18 4t-15.5 3h-39q-9 1 -31 0.5t-38 1.5t-31 7q-29 9 -47 -27q-15 -36 -46 -107.5t-47 -107.5q-3 -9 2.5 -14.5t18.5 -5.5z" />
    <glyph glyph-name="dollar" unicode="$" horiz-adv-x="1032" 
d="M141 139q20 0 26.5 -0.5t26.5 3t26.5 4.5t26.5 6t27 6q4 1 11 4.5t13.5 5.5t12.5 2q28 0 35 33q10 50 47 219q72 317 88 381q53 217 62 246q7 24 -13 41q-51 48 -96 127q-25 41 -39 106q-20 84 5 161t83 163q35 52 107 110q64 47 141 72q23 8 29 31q4 17 20 74t23 89
q1 4 3 13.5t3 13.5q6 14 21.5 21.5t27.5 3.5q8 -3 15 -18.5t4 -26.5q-6 -22 -14.5 -88t-22.5 -99q-7 -14 10 -22q85 -42 88 -133q3 -90 -53 -189q-3 -4 -12.5 -20t-14.5 -25q-15 -27 -37 -29q-23 -2 -34.5 13t-2.5 37q25 70 41 100q8 17 13.5 50t7.5 40q7 18 -2 37
q-3 3 -6 11.5t-7.5 13t-11.5 4.5q-8 0 -11 -5.5t-3 -15v-10.5q-10 -33 -76 -277q-10 -43 -53 -192q-4 -15 -12.5 -44.5t-12.5 -43.5q-6 -35 21 -56q167 -139 243 -264q99 -162 19 -315q-57 -115 -162 -197q-59 -48 -172 -123q-82 -51 -133 -65q-60 -17 -70 -86
q-9 -57 -33.5 -166.5t-27.5 -122.5q-13 -49 -29 -65q-33 -37 -61 2q-9 12 -6 26q2 7 49 238q21 93 24 102q3 11 -1.5 16.5t-14.5 2.5q-74 -21 -152 -21q-29 3 -59 19q-25 16 -25 43q0 28 27 28h53zM866 643q2 38 -20 88q-36 79 -103 146l-110 110q-15 15 -21 -4
q-9 -39 -41 -165t-47 -195q-33 -167 -67 -304l-13 -65q-1 -20 3.5 -23t21.5 5q44 18 125 71q151 99 223 199q46 65 49 137zM494 1393q-4 -35 9 -74t24.5 -58.5t33.5 -52.5q4 -6 8.5 -7.5t8 1.5t4.5 10q4 23 16 63t16 56q16 63 103 375q5 10 -2 12q-7 3 -13 0
q-91 -57 -147 -139q-66 -98 -61 -186z" />
    <glyph glyph-name="percent" unicode="%" horiz-adv-x="931" 
d="M63 39q0 33 21 115q39 164 68 252q64 215 124 387q18 48 52.5 135.5t46.5 118.5q77 200 209 446q16 31 50.5 90.5t51.5 89.5q62 113 84 146q23 38 55 53q19 8 32 -0.5t13 -28.5q0 -15 -8 -26q-14 -19 -31 -58.5t-24 -52.5q-52 -98 -86 -152q-53 -88 -148 -274
q-75 -154 -167 -397q-77 -199 -160 -459q-14 -45 -37.5 -125t-44 -146.5t-41.5 -123.5q-9 -32 -21 -37q-19 -7 -29 0.5t-10 27.5v19zM426 332q0 75 49 127q8 7 23 28.5t26 30.5q33 23 49 23q12 1 25 -6q45 -19 45 -72q0 -15 -3 -28t-12 -34.5t-10 -23.5q-9 -23 -45 -84
q-19 -33 -69 -51q-10 -4 -30.5 3.5t-29.5 18.5q-18 21 -18 68zM408 1610q4 -31 -27.5 -74.5t-61.5 -54.5q-23 -9 -44.5 4.5t-24.5 38.5q-4 24 16 69q17 44 64 70q28 15 52.5 1.5t25.5 -46.5v-8z" />
    <glyph glyph-name="ampersand" unicode="&#x26;" horiz-adv-x="876" 
d="M63 6q-3 49 5 108t15.5 90t25.5 101q2 7 5.5 23t6 25.5t7.5 22.5t11 23q14 21 28 28t36 1q7 -2 22 2q59 14 160 82q190 125 281 223l10 10q2 2 5.5 6.5t6 7t6 6.5t5 7.5t2.5 7t0 7t-3 6.5q-12 14 -55 0q-106 -35 -197 -99q-7 -6 -22.5 -18.5t-22.5 -18.5q-25 -18 -49 -18
q-28 0 -39 25q-15 30 6 49q32 32 39 37q113 84 138 108q23 23 32 29q118 101 185 223q4 8 6 14q14 34 -21 37q-102 6 -184 -31q-67 -27 -117 -100q-3 -3 -9 -9.5t-10.5 -12.5t-6.5 -11q-9 -26 -43 -22q-26 0 -38.5 16t-4.5 41q31 95 61 164q19 42 56.5 130.5t58.5 133.5
q7 14 28 62t31.5 70t29 58t36.5 64q5 9 13 18t12.5 14t17 15.5t14.5 12.5q15 15 37 4q19 -11 12 -35q-7 -31 -18 -53q-39 -71 -121 -252q-29 -60 -102 -232q-5 -5 -2 -8q3 -7 10 0q50 29 135 47q65 14 131 2q55 -7 77 -48t5 -97q-16 -53 -82 -139q-2 -3 -8.5 -9.5t-7.5 -9.5
q-3 -10 -16 -23.5t-17 -19.5q6 -7 23.5 -5.5t25.5 -4.5q2 -4 12 -4q40 -14 57 -44.5t5 -68.5q-7 -28 -23 -49q-7 -9 -31 -38.5t-41.5 -48t-37.5 -34.5q-19 -15 -61 -50.5t-66 -53.5q-156 -110 -244 -154q-11 -5 -33 -10t-31 -8q-15 -7 -20 -23q-27 -71 -49 -188
q-23 -118 -21 -187q2 -12 -6 -32q-12 -25 -26 -23q-27 0 -35 21q-11 18 -11 30v80z" />
    <glyph glyph-name="quotesingle" unicode="'" horiz-adv-x="337" 
d="M111 1653q-29 0 -41.5 18t-1.5 43q13 30 19 42t20 32.5t30 34.5q14 12 27 47q14 29 43 51q19 15 43 4.5t26 -33.5q0 -23 -14 -41q-22 -29 -54.5 -89t-47.5 -83q-23 -34 -49 -26z" />
    <glyph glyph-name="parenleft" unicode="(" horiz-adv-x="595" 
d="M498 1907q25 -12 32 -25q5 -12 -6 -31q-7 -11 -29.5 -38.5t-31.5 -45.5q-5 -14 -13 -27.5t-20.5 -32t-17.5 -26.5q-30 -46 -68 -127q-33 -70 -84 -229q-12 -44 -33 -128t-26 -103q-6 -28 -15.5 -84t-15.5 -84q-5 -26 -7 -58.5t-1 -58.5t0 -59q-3 -69 0 -138
q3 -44 26 -204q7 -41 19.5 -89t23 -82t28 -90t26.5 -84q8 -35 0 -51q-4 -12 -12 -17.5t-18 -4t-19 9.5q-25 29 -35 57q-66 148 -90 275q-36 179 -39 207q-6 47 -7 133t-2 106q-1 16 5.5 48t5.5 48q-3 48 8 91q3 18 6 50t4 42q1 21 4.5 43.5t10 51.5t8.5 42q25 126 75 264
q39 103 113 234q47 87 150 190q17 14 45 25z" />
    <glyph glyph-name="parenright" unicode=")" horiz-adv-x="595" 
d="M98 -18q-26 13 -32 24q-5 12 6 31q7 11 29.5 38.5t31.5 45.5q5 14 13 27.5t20.5 32t17.5 26.5q30 46 68 127q33 70 84 229q11 43 31.5 124.5t27.5 107.5q6 27 15.5 83.5t15.5 84.5q5 26 7 58.5t1 58.5t0 59q3 68 0 137q-3 46 -26 205q-9 53 -23 105t-41 135.5t-33 103.5
q-8 35 0 51q4 12 12 17.5t18 4t19 -9.5q25 -29 35 -57q66 -148 90 -275q4 -18 13.5 -64t15.5 -78t10 -64q6 -46 6.5 -131.5t1.5 -108.5q1 -16 -5 -47.5t-5 -48.5q3 -47 -8 -90q-3 -18 -6 -50.5t-4 -42.5q-1 -21 -4.5 -43.5t-10 -51.5t-8.5 -42q-25 -126 -75 -264
q-38 -100 -113 -233q-48 -89 -150 -191q-15 -13 -45 -24z" />
    <glyph glyph-name="asterisk" unicode="*" horiz-adv-x="647" 
d="M152 1137q13 163 28 225q1 2 -0.5 6.5t-1.5 5.5q-8 -4 -10 -6q-10 -21 -37 -45q-19 -23 -37 -8q-14 9 -19 23.5t3 25.5q13 16 29 49.5t24 46.5q7 10 24.5 40.5t30.5 45.5q10 10 4 23q-3 4 -22 4t-29 -4q-20 -12 -47 -4q-2 1 -6.5 2t-6.5 2l-6 3t-6 4.5t-4 6.5t-2 10
q0 20 4.5 27.5t20.5 11.5q8 2 26.5 7.5t28.5 8.5t25.5 4.5t28.5 0.5q10 -1 14.5 4.5t-0.5 13.5q-9 15 -10.5 46t-5.5 44q-13 47 -13 164q0 21 21 27q8 6 15.5 5.5t14.5 -11.5q39 -53 50 -148q0 -2 -0.5 -5.5t-0.5 -6.5v-5.5t1.5 -4t3.5 -0.5q4 0 5.5 3.5t1.5 9.5t1 9
q9 24 33 119q2 6 4.5 11.5t7 10t7 7.5t8.5 6.5t8 4.5t9.5 4.5t8.5 4.5q15 8 27 -1t12 -28q0 -17 -6 -32q-13 -26 -23 -64q0 -1 1 -4t1 -4q6 0 6 2q6 8 27 21.5t27 27.5q1 5 5.5 9t8 6t11 5.5t9.5 4.5q12 6 25.5 2t19.5 -13q13 -22 -2 -40q-19 -22 -41 -50q-57 -78 -102 -133
q-3 -11 -2.5 -12t8.5 -6q4 -4 15 -4q16 1 33.5 -2t29 -6.5t32 -11.5t29.5 -11q12 -6 17 -6q2 0 9.5 -1t10.5 -1.5t7.5 -3.5t7.5 -8q6 -11 2 -33q-1 -15 -17 -25t-35 -8l-18 6q-11 2 -40 8t-44.5 8.5t-39.5 5t-44 1.5q-18 0 -18 -21q2 -21 13.5 -56.5t12.5 -39.5
q19 -73 70 -229q2 -7 2.5 -20t1.5 -17q3 -23 -16 -29q-25 -8 -37 6q-13 13 -17 23q-10 26 -38 91t-41 103l-5 10q0 -2 -2 -4.5t-2 -3.5q1 -7 -4 -17.5t-6 -14.5q0 -23 -8 -65.5t-10 -57.5q-1 -17 -6 -53t-6 -53t1 -54q0 -27 -14 -39q-15 -14 -31 -11t-20 23q-19 61 -14 101z
" />
    <glyph glyph-name="plus" unicode="+" horiz-adv-x="567" 
d="M219 782v39q-1 7 0.5 21.5t0.5 25t-7 15.5q-6 4 -16 5t-25.5 0t-19.5 -1h-50q-12 1 -25.5 14.5t-13.5 22.5q-2 8 9.5 21t21.5 16q78 24 117 24q18 0 18 16q-3 25 4 74t5 72q0 9 4.5 23.5t5.5 19.5q8 31 49 31q15 0 22 -7.5t13 -23.5q14 -29 4 -60q-8 -22 -8 -64t-2 -56
q0 -15 14 -15q49 0 68 -10q10 -5 32 6q18 9 41 -4q28 -17 23 -39q-2 -11 -13 -22t-24 -11q-20 1 -63 -5.5t-66 -4.5q-11 2 -16.5 -3t-4.5 -15q2 -20 -4.5 -59.5t-5.5 -57.5v-113q0 -3 1 -12t0.5 -15.5t-3.5 -11.5q0 -1 -1.5 -6t-2.5 -6.5t-3 -5.5t-4.5 -5.5t-6 -3t-8.5 -1.5
q-21 0 -28 3.5t-13 20.5q-21 73 -19 105v63z" />
    <glyph glyph-name="comma" unicode="," horiz-adv-x="262" 
d="M201 195q-6 -102 -80 -158l-4 -3q-4 -4 -5.5 -5t-5.5 -3.5t-6.5 -2.5t-6.5 -0.5t-7.5 1.5t-7.5 5q-23 20 -10 51q7 17 14 29q2 4 9.5 17.5t8.5 20.5t-3 12.5t-12.5 12t-10.5 8.5q-13 13 -13 35q2 25 25 48t49 24q20 0 41 -19.5t25 -44.5v-28z" />
    <glyph glyph-name="hyphen" unicode="-" horiz-adv-x="538" 
d="M283 905h-50q-23 -3 -66.5 4t-62.5 6q-6 0 -22 11q-18 10 -19.5 27t13.5 32q19 19 53 19q7 0 24.5 -1t30 -0.5t23.5 3.5q39 8 98.5 7.5t95.5 0.5q26 3 48 -10q29 -15 26 -54q-2 -27 -37 -32q-2 0 -29 -7t-42 -6q-27 2 -84 2v-2z" />
    <glyph glyph-name="period" unicode="." horiz-adv-x="256" 
d="M63 213q0 30 22 49t50 17q25 -3 42 -20t16 -40q-1 -29 -25 -50t-53 -19q-23 0 -38.5 18.5t-13.5 44.5z" />
    <glyph glyph-name="slash" unicode="/" horiz-adv-x="980" 
d="M63 276q5 35 29 84q20 44 59.5 131.5t59.5 131.5q48 113 168 346q118 222 164 299q15 24 38.5 71.5t32.5 63.5q12 21 77.5 136.5t105.5 174.5q5 8 10.5 18t12 22t9.5 18q7 14 39 28q19 6 36 -8.5t14 -34.5q-3 -21 -13 -41q-22 -37 -65 -110.5t-64 -110.5q-4 -7 -24 -43
t-31 -57q-58 -112 -133 -244q-126 -224 -332 -645q-51 -108 -68 -160q-4 -16 -12 -32t-19 -35.5t-16 -30.5q-9 -17 -14 -19q-4 -1 -13.5 -6t-13.5 -5.5t-14 3.5q-28 16 -23 39v16z" />
    <glyph glyph-name="zero" unicode="0" horiz-adv-x="1265" 
d="M1202 1288q-2 -72 -35 -213q-19 -78 -86 -231q-77 -181 -202 -365q-76 -109 -134 -172q-107 -122 -245 -184q-110 -52 -209 -41q-78 8 -135 55t-78 125q-9 46 -15 90q-3 6 -1.5 26.5t2.5 27t5 26t5 25.5q13 91 55 196q44 118 121 252q46 81 125 189q20 29 47 59
q7 8 29.5 34.5t33 38.5t29 32.5t35 36t33.5 30.5q13 11 43 36.5t47 39.5t43 33.5t49 33.5q74 40 104 50q72 23 111 -21q10 -10 35 -10q46 0 102 -27q58 -30 74 -96q17 -58 12 -76zM326 178h34t43 4q130 40 242 146q64 60 154 186q55 82 114 188q80 144 131 273
q48 135 62 229q10 62 4 113q-1 38 -27 61.5t-61 18.5q-64 -10 -80 -15q-100 -30 -182 -67q-125 -57 -172 -113q-24 -31 -70 -85t-63 -75q-89 -112 -172 -272q-52 -105 -86 -213q-29 -101 -29 -149q0 -3 -1 -10.5t-1 -10.5q-7 -28 0.5 -72.5t21.5 -74.5q22 -39 70 -56
q10 -4 22.5 -5.5t22.5 -0.5t23 0z" />
    <glyph glyph-name="one" unicode="1" horiz-adv-x="1169" 
d="M1053 1585q33 4 47.5 -22t-0.5 -60q-28 -59 -47 -82q-21 -26 -54.5 -77.5t-50.5 -73.5q-18 -23 -38 -52.5t-31.5 -48t-35.5 -57t-32 -51.5q-50 -79 -156 -258q-97 -164 -200 -385q-20 -43 -55 -123.5t-48 -108.5q-3 -9 0 -12.5t13 -3.5q20 0 28 2q110 21 221 -4
q17 -4 54 -27q13 -7 20 -20.5t2 -24.5q-3 -16 -19.5 -28.5t-29.5 -6.5q-18 8 -50.5 11t-39.5 4q-42 10 -109 2q-24 -6 -51 -6q-20 -1 -58 -8.5t-57 -8.5q-49 -4 -143 -32q-18 -6 -41.5 3.5t-28.5 20.5q-4 13 5.5 31.5t27.5 32.5q36 28 76 28h10q5 2 28 6.5t32 10.5
q8 6 12.5 26t5.5 21q60 165 102 248q87 181 136 270q89 164 168 293q107 176 221 338l8 16q3 6 0 8h-10q-8 -8 -19 -14.5t-25 -13t-22 -11.5q-10 -6 -41 -10q-28 0 -41 29q-6 16 -1 26.5t14 16.5q11 6 29 23.5t30 23.5l33 21t32 20q19 10 39 23.5t44 30.5t38 26q31 21 58 18
z" />
    <glyph glyph-name="two" unicode="2" horiz-adv-x="1030" 
d="M967 1346q6 -53 -33 -134q-38 -87 -125 -217q-62 -93 -238 -327q-35 -45 -97.5 -128t-82.5 -110q-30 -38 -91.5 -112.5t-92.5 -112.5q-6 -3 -6 -12q3 -11 16 -7q97 11 105 13q16 4 108 14q15 1 42.5 5t50 6t42.5 1q23 -1 66.5 -1t66.5 -1q82 -3 162 -18q34 -5 58 -33
q12 -15 10.5 -34.5t-15.5 -31.5q-18 -18 -34 -4q-21 15 -70 15h-227q-67 2 -179 -13q-12 -2 -76.5 -10t-99.5 -14q-79 -16 -123 10q-59 29 -34 100q10 28 49 72q13 17 106 131q153 187 168 207q21 28 63.5 83t63.5 83q195 260 283 405q39 69 59 121q11 33 4 82q-3 29 -32 43
q-60 27 -138 13q-9 -2 -28.5 -5.5t-28.5 -5.5q-38 -12 -102 -59q-13 -9 -72 -60q-20 -20 -33 -12q-26 13 -26 33q1 3 1 9t0.5 10t2 9t4.5 9q60 88 170 137q63 25 139 35q108 15 195 -53q38 -30 49 -97v-34z" />
    <glyph glyph-name="three" unicode="3" horiz-adv-x="958" 
d="M438 1470q-28 0 -98 -16q-8 -1 -23.5 -2.5t-28.5 -3.5t-24 -6q-13 -4 -32.5 12.5t-16.5 30.5q7 33 35 45q77 29 115 29h104q40 0 66 -23q55 -49 14 -117q-19 -32 -96 -137q-23 -30 -68.5 -91.5t-67.5 -92.5q-8 -11 -10 -21l-4 -6q5 -7 14 -2q20 16 45 29.5t58 28.5t49 24
q107 58 217 70q37 3 72 -9q109 -41 135 -155q11 -56 -16 -146q-32 -108 -142 -270q-112 -160 -192 -244q-9 -10 -25 -28.5t-29.5 -33t-27.5 -26.5q-13 -12 -45 -40t-49.5 -43.5t-44.5 -36.5t-52 -37q-19 -13 -55.5 -38.5t-56.5 -37.5q-21 -15 -45 -27q-8 -4 -23.5 -1
t-21.5 9q-5 6 -4.5 23t6.5 24q5 5 15 15.5t15 15.5q28 22 85.5 66t86.5 67q106 84 201 193q151 173 227 295q79 119 95 192q1 3 6.5 23t6.5 27.5t0.5 23t-5.5 29.5q-27 79 -96 84q-20 3 -54 -5q-86 -18 -165.5 -57t-180.5 -102l-24 -16t-31.5 -18.5t-28.5 -10.5
q-37 -11 -57 6t-14 55q3 31 16 51q130 190 219 299q34 44 80 115q9 12 7.5 15t-15.5 3h-21z" />
    <glyph glyph-name="four" unicode="4" horiz-adv-x="815" 
d="M233 801q125 0 250 61q49 22 62 80q28 126 86 227q1 2 3 7.5t3 7.5q14 19 39.5 28t42.5 0q17 -8 27 -32.5t4 -46.5q-40 -144 -99 -238q-37 -49 -45 -98q-9 -76 -24 -148q-1 -8 -3.5 -54t-11.5 -69q-2 -5 -2 -34v-359q0 -38 -22 -55q-15 -14 -31.5 -11t-26.5 23
q-3 6 -10.5 39t-7.5 43v80q-1 9 -1 28.5t-1.5 34t-5.5 27.5q-11 28 0 53q4 15 5.5 31t1.5 37t1 31q3 121 29 227v20q2 15 -1 17t-18 -4q-94 -36 -198 -54q-16 -3 -36 -3t-33 1t-36.5 3.5t-34.5 3.5q-46 4 -65.5 38.5t-5.5 85.5q20 78 36 113q108 236 187 379q9 15 47 90
q8 16 32 48t33 52q1 1 4 4.5t5.5 6t5.5 4.5q14 11 31 13t26 -5q9 -6 11 -16.5t0.5 -17t-5.5 -19.5q-20 -77 -75 -148q-18 -23 -46 -73q-88 -175 -104 -211q-21 -45 -90 -222q-7 -15 -3.5 -19.5t21.5 -4.5q16 -2 49 -2z" />
    <glyph glyph-name="five" unicode="5" horiz-adv-x="704" 
d="M264 887q-34 7 -92 -23q-22 -13 -29 -16q-31 -14 -56 0.5t-26 48.5q0 27 8 78.5t9 73.5q1 18 6.5 48.5t7 47.5t-3.5 49q-5 22 6 59q6 30 20 86.5t17 67.5v18q-4 45 21 134q5 21 10.5 34t20 23.5t36.5 9.5q25 11 55.5 18.5t68 13.5t56.5 11q115 25 166 25q45 0 60 -33
q14 -40 -7 -53q-4 -2 -13 -8.5t-17 -10.5t-17 -6q-131 -27 -202 -29q-3 0 -39 -6q-35 -8 -62 6q-7 3 -12.5 -0.5t-5.5 -13.5q0 -27 -4 -56t-12 -67.5t-11 -56.5q-6 -31 -14 -90q-1 -6 -4.5 -45t-11.5 -60q-3 -6 -3 -18q0 -60 -18 -148q-2 -9 3.5 -14t14.5 -4q8 1 21.5 5
t24.5 6t20 1q57 0 96 -10q124 -38 174 -76q87 -68 101 -139q2 -9 7.5 -30.5t7.5 -33.5t0.5 -30t-9.5 -33q4 -53 -33 -154q-52 -138 -137 -245q-88 -112 -260 -281q-30 -27 -64 -43q-25 -13 -49 2q-21 14 -18 49q0 13 12 19q18 11 34.5 26t36 35.5t29.5 30.5q106 102 162 172
q146 180 184 364q23 114 -26 177q-11 15 -21 20q-110 79 -219 74z" />
    <glyph glyph-name="six" unicode="6" horiz-adv-x="868" 
d="M96 307q0 61 -2 92q0 12 5.5 34t4.5 34q0 7 -2 9t-6 1t-6 0q-29 5 -27 29q4 44 15 61q8 14 23.5 45t25.5 47q15 25 27 78q34 173 108 375q104 280 217 442q51 70 103 91q37 16 65 2q14 -6 18 -18t-3 -23q-6 -12 -17 -19q-75 -58 -141 -180q-15 -26 -29.5 -52.5
t-28.5 -57.5t-24 -52.5t-24.5 -59t-21.5 -54t-22 -60t-19 -54t-21 -60.5t-19 -56t-2 -14t3 -8q1 0 5 2q26 15 31 22q71 73 180 96q100 21 176.5 -19.5t106.5 -145.5q22 -86 -7 -211q-31 -147 -129 -328q-50 -93 -131 -193q-35 -45 -125 -112q-41 -30 -102 -37
q-92 -8 -156 88q-20 30 -41 117q-4 17 -6 38t-2.5 34t0 40.5t0.5 36.5zM193 303v-92q0 -44 26 -113q17 -39 55 -49q38 -11 88 19q81 56 148 153q88 130 137 246q77 184 68 315q-3 39 -21 74q-30 54 -73 59q-112 10 -189 -41q-28 -17 -52.5 -37.5t-59.5 -55t-46 -44.5
q-34 -34 -41 -90q-3 -21 -11 -63t-11 -64q-1 -6 -9 -60t-9 -83v-74z" />
    <glyph glyph-name="seven" unicode="7" horiz-adv-x="802" 
d="M537 1630q-33 0 -110 -7t-118 -5q-30 -8 -77.5 -7.5t-77.5 -0.5q-12 0 -16.5 -0.5t-15 2.5l-14 4t-14 5.5t-14.5 6.5q-20 12 -17 37q2 11 11.5 21.5t19.5 11.5h4q28 -3 80 4.5t76 5.5q17 -1 48.5 5t47.5 5q56 -4 92 8q8 3 58 3h162q31 0 57 -23q28 -22 18 -66
q-5 -22 -12.5 -43t-23.5 -54t-19 -40q-79 -173 -164 -391q-27 -71 -121 -352q-45 -139 -104 -385q-14 -53 -35 -195q-4 -21 -12 -78t-15 -88q-10 -67 -10 -86q0 -10 -12 -30q-4 -12 -20.5 -18t-28.5 -1q-8 3 -14.5 19.5t-2.5 23.5q5 8 7.5 17.5t2.5 16t-0.5 17.5t-0.5 15
q-2 15 -0.5 48.5t2.5 47.5t5 47t5 47q8 89 43 250q37 159 78 299q4 16 4 25q0 12 -10 12q-49 0 -74 -2q-28 -5 -51.5 8t-30.5 39q-5 19 10 38.5t37 22.5q37 8 53 0q22 -8 33 -7.5t30.5 5t30.5 4.5q8 0 13 15q6 10 11.5 30t8.5 27q102 283 139 371q66 158 129 295
q5 12 3 15.5t-15 4.5h-69z" />
    <glyph glyph-name="eight" unicode="8" horiz-adv-x="972" 
d="M909 1587q1 -20 -1 -40.5t-7.5 -44t-9.5 -38.5t-13 -43.5t-12 -40.5q-49 -147 -127 -323q-5 -11 -53.5 -119.5t-75.5 -163.5q-3 -6 -7 -20.5t-7 -20.5q-2 -3 -7.5 -11t-7.5 -12.5t-4.5 -12.5t1.5 -11q4 -5 11.5 -9t18 -8t15.5 -7q13 -7 41 -20.5t48.5 -25t37.5 -24.5
q67 -49 92 -121q17 -55 4 -119q-23 -124 -123 -256q-74 -98 -182 -168q-101 -69 -191 -82q-202 -26 -266 162q-31 85 -14 209q22 147 102 297q68 132 135 199q16 19 0 32q-63 57 -82 148q-12 83 0 160q18 110 103 276q44 79 96 150q88 116 149 168q71 63 119 90
q50 29 101 26q70 -3 98 -63q18 -35 18 -113zM295 -55h47q4 -1 8.5 0.5t8.5 4t6 3.5q81 16 184 100q76 61 113 115q80 111 92 213q13 89 -60 137q-38 24 -133 66q-11 6 -24 -4q-23 -13 -45.5 -6.5t-22.5 28.5q0 7 -2.5 13.5t-4.5 10.5t-7.5 8.5t-7.5 6t-9 5.5t-8 5
q-29 20 -37.5 19t-30.5 -29q-4 -5 -12 -14.5t-12 -14.5q-94 -138 -141 -276q-35 -111 -35 -178q-2 -37 10 -111q8 -39 45 -82q29 -29 78 -20zM317 991v-33q-5 -78 60 -147q15 -14 47 -35.5t47 -36.5q23 -20 33 9q18 56 67 163q64 144 121 281q38 90 68 178q42 102 53 203
q0 6 1.5 19t2 19.5t-0.5 16.5t-5 19q-14 36 -43 24q-20 -7 -51 -26q-106 -67 -199 -193q-109 -142 -162 -283q-44 -112 -39 -178z" />
    <glyph glyph-name="nine" unicode="9" horiz-adv-x="954" 
d="M674 1849q59 3 104 -30q20 -16 33 4q10 15 28.5 18t28.5 -6q10 -10 14.5 -16t9 -19t-0.5 -26q-1 -3 -6.5 -30t-6 -30l-5 -30t-4 -30.5t-2 -31t0.5 -31.5q0 -8 -4 -28q-18 -65 -16 -95q2 -12 -4.5 -33t-5.5 -32q3 -29 -7 -62q-5 -16 -7 -47.5t-3 -38.5q-5 -47 -22 -163
q-33 -203 -47 -263q-5 -23 -14 -79t-17 -86q-29 -136 -31 -144q-37 -163 -65 -239q-61 -172 -168 -306q-22 -26 -49 -54t-60 -60t-51 -51q-39 -34 -78 -50q-22 -9 -40 -3.5t-27 24.5q-8 15 -1.5 37t21.5 32q11 7 16 0q13 -18 35 -2q24 20 37 33q176 191 242 340
q49 110 71 213q7 31 22.5 95t22.5 96q7 33 18.5 95t16.5 87q4 27 14 75.5t11 55.5q3 12 6 36t6 36q3 16 12.5 82.5t16.5 101.5q2 9 2 29t2 30q1 4 4.5 12.5t3 11t-5.5 9.5q-3 2 -6 -2t-6.5 -12.5t-5.5 -11.5q-64 -131 -119 -226q-35 -60 -55.5 -92.5t-56 -79t-70.5 -80.5
q-68 -65 -160 -53q-32 6 -62 29q-65 58 -86 116q-43 104 -35 193q10 96 41 170q41 102 109 219q49 78 109 154q99 133 223 205q67 39 129 34zM160 1051v-45q0 -86 51 -152q55 -67 119 -18q56 48 73 77q97 136 209 347q63 122 95 208q30 81 61 191q12 40 -11.5 69.5
t-66.5 34.5q-68 3 -131 -41q-86 -62 -133 -118q-85 -110 -98 -131q-77 -117 -119 -213q-27 -66 -40 -113t-9 -96z" />
    <glyph glyph-name="colon" unicode=":" horiz-adv-x="256" 
d="M63 827q0 30 22 49t50 17q25 -3 42 -19.5t16 -39.5q-1 -29 -25 -50.5t-53 -19.5q-23 0 -38.5 18.5t-13.5 44.5zM63 418q0 30 22 48.5t50 16.5q25 -3 42 -19.5t16 -39.5q-1 -29 -25 -50.5t-53 -19.5q-23 0 -38.5 19t-13.5 45z" />
    <glyph glyph-name="semicolon" unicode=";" horiz-adv-x="262" 
d="M70 827q0 30 22 49t49 17q25 -3 42 -19.5t16 -39.5q-1 -29 -25 -50.5t-53 -19.5q-23 0 -38 18.5t-13 44.5zM201 401q-6 -100 -80 -157l-4 -4q-4 -3 -5.5 -4t-5.5 -3.5t-6.5 -2.5t-6.5 -0.5t-7.5 1.5t-7.5 5q-23 20 -10 51q6 14 14 28q2 4 9.5 18t8.5 21t-3 12.5t-12.5 12
t-10.5 8.5q-13 13 -13 35q2 25 25 48t49 24q20 0 41 -19.5t25 -44.5v-29z" />
    <glyph glyph-name="less" unicode="&#x3c;" horiz-adv-x="755" 
d="M651 1495q12 0 25 -8t16 -17q7 -22 -14 -51q-2 -3 -11.5 -8.5t-11.5 -7.5q-121 -83 -135 -92q-13 -8 -33 -25t-28 -22q-29 -22 -81.5 -67.5t-62.5 -53.5q-56 -46 -127 -117q-12 -12 -11.5 -17.5t13.5 -17.5q6 -5 20.5 -18.5t25.5 -22.5t22 -16q86 -61 180 -162
q94 -104 162 -201q4 -5 18 -39q6 -13 0.5 -27t-18.5 -20q-4 -1 -5.5 -1t-5 2t-5.5 3q-19 5 -39 29q-105 120 -221 230q-92 85 -166 139q-13 9 -36 29t-28 24q-30 23 -31.5 65t25.5 68q84 81 172 154q17 14 60.5 51t68.5 57q19 14 58 43t59 43q12 8 48.5 24t53.5 30
q3 3 11.5 7t11.5 7q12 9 20 6z" />
    <glyph glyph-name="equal" unicode="=" horiz-adv-x="538" 
d="M283 905h-50q-23 -3 -66.5 4t-62.5 6q-6 0 -22 11q-18 10 -19.5 27t13.5 32q19 19 53 19q7 0 24.5 -1t30 -0.5t23.5 3.5q39 8 98.5 7.5t95.5 0.5q26 3 48 -10q29 -15 26 -54q-2 -27 -37 -32q-2 0 -29 -7t-42 -6q-27 2 -84 2v-2zM283 700h-50q-23 -3 -66.5 4.5t-62.5 6.5
q-7 0 -22 10q-18 10 -19.5 27t13.5 32q19 19 53 19q7 0 24.5 -1t30 -0.5t23.5 3.5q39 8 98.5 7.5t95.5 0.5q26 3 48 -10q29 -15 26 -54q-2 -27 -37 -32q-2 0 -29 -7t-42 -6q-27 2 -84 2v-2z" />
    <glyph glyph-name="greater" unicode="&#x3e;" horiz-adv-x="755" 
d="M104 483q-12 0 -25 8t-16 17q-6 21 15 51q2 3 5.5 5.5t8.5 5.5t8 5q126 87 136 93q13 8 33 25t28 22q28 21 79 65.5t64 55.5q62 51 127 116q12 12 11.5 17.5t-13.5 17.5q-7 6 -20.5 19t-24.5 22t-22 16q-89 64 -181 162q-90 99 -161 201q-6 10 -19 39q-6 14 -0.5 27.5
t19.5 19.5q4 1 5.5 1t5 -2t5.5 -3q19 -5 39 -29q100 -114 221 -229q92 -85 166 -139q13 -9 35.5 -29t28.5 -25q30 -23 31.5 -65t-25.5 -68q-76 -73 -172 -153q-18 -14 -61 -52t-68 -57q-19 -15 -58 -43t-59 -43q-13 -8 -49.5 -23.5t-53.5 -29.5q-3 -3 -11 -7.5t-11 -7.5
q-12 -9 -21 -6z" />
    <glyph glyph-name="question" unicode="?" horiz-adv-x="1216" 
d="M985 1761q-13 0 -27 -1.5t-23 -3.5t-25.5 -8l-22 -8t-25 -10.5t-22.5 -9.5q-67 -27 -158 -92q-113 -82 -176 -186q-65 -104 -70 -207q0 -19 -4 -23q-2 -2 -4.5 -9t-6.5 -10.5t-11 -2.5q-3 0 -10.5 0.5t-11.5 1t-9 3.5t-8 9q-20 32 -13 80q3 10 6 33.5t7 36.5
q48 130 121 213q100 112 227 186q124 70 227 88q81 17 154 -29q23 -13 41 -57q1 -3 5 -12t5.5 -13.5t3 -12.5t-1 -15t-8.5 -14q-4 -37 -21.5 -76t-33.5 -61t-48 -62q-23 -31 -73.5 -88.5t-55.5 -63.5q-24 -29 -85.5 -101.5t-94.5 -113.5q-75 -97 -182 -250
q-145 -210 -252 -436q-12 -26 -70 -174q-3 -7 -16 -29q-12 -12 -37 -4q-16 6 -16 27q5 42 8 57q15 69 63 191q24 68 80 164q95 160 164 256q16 22 47.5 67t57.5 80.5t51 65.5q28 32 76 94.5t69 87.5q26 30 78 86q96 107 152 182q37 50 51 99q11 38 -1 56t-50 19h-21zM180 31
q0 -29 -12 -45t-41 -25q-34 -12 -53 14q-22 37 0 62q12 14 26 26q25 29 50 19q33 -14 30 -51z" />
    <glyph glyph-name="at" unicode="@" horiz-adv-x="1212" 
d="M879 1595q-125 0 -258 -73q-70 -38 -129 -91t-125 -128q-121 -141 -201 -328q-74 -168 -55 -320q20 -148 139 -213q139 -76 282 -67q58 5 115 43q4 3 7.5 7t6.5 11t5 10q7 8 17.5 27.5t12.5 22.5q16 19 43 8q31 -17 19 -45q-26 -50 -54 -83t-71 -50q-121 -41 -205 -29
q-210 31 -322 156q-51 56 -73 163q-13 54 -13 101q5 96 43 207q68 192 213 381q25 34 95 108q96 103 198 162q102 60 199 82q162 41 287 -25q96 -51 127 -162q27 -98 -25 -239q-37 -99 -94 -189q-89 -146 -193 -247q-41 -38 -79 -56q-54 -25 -94 -1t-46 85q-6 71 25 191
q0 6 4 14q0 2 -4 14q-1 -1 -4 -3t-4 -3q-8 -10 -28.5 -29.5t-29.5 -33.5q-5 -8 -12 -16.5t-12.5 -14t-15 -14.5t-13.5 -13l-108 -108q-33 -36 -93 -72q-35 -23 -70 -11.5t-46 48.5q-7 22 12 70q37 101 127 231q11 15 32 41t25 31q78 94 180 135q58 21 97 -8q31 -20 49 6
q9 10 26.5 12t26.5 -4q11 -6 17 -24t2 -31t-26.5 -81.5t-33.5 -105.5q-37 -139 -35 -206q0 -17 4.5 -19.5t18.5 6.5q60 32 110 95q21 24 84 110q92 127 134 244q22 68 22 119q1 92 -58 148t-141 54q-4 -1 -9.5 -1t-13 0.5t-11.5 0.5zM696 1204q0 9 -10 6q-2 -1 -35 -10
t-49 -20q-85 -66 -123 -115q-85 -109 -139 -217q-5 -14 0 -19q7 -4 16 5q15 15 69 65t81 80q132 152 160 182q5 7 15 21.5t15 21.5z" />
    <glyph glyph-name="A" unicode="A" 
d="M1085 674q-40 2 -117 -4.5t-116 -3.5q-13 1 -22.5 -5.5t-13 -12t-11.5 -19.5q-22 -35 -60.5 -101t-44.5 -77q-67 -112 -168 -314q-80 -152 -96 -192q-5 -14 -13 -27t-21 -31t-17 -24q-6 -10 -23 -27q-14 -11 -36 -4q-17 10 -17 29q0 23 21 84q15 39 34 80.5t47.5 96
t39.5 77.5q136 266 231 411q1 2 2 7t2 6q15 15 6 26q-8 13 -26 2q-6 -4 -23 -4q-55 3 -188 -14q-57 -6 -149.5 -5.5t-149.5 -0.5q-29 -3 -47 18q-8 12 -5 26.5t15 20.5q44 23 71 25q31 3 94.5 5t94.5 5q154 13 207 21q13 1 74.5 5.5t93.5 10.5q22 5 37 27q16 23 45.5 68.5
t44.5 68.5q103 159 268 387q57 79 162 217q19 22 55 67t55 68q11 12 45 51.5t58 65.5t49 49q53 53 104 65q18 5 40.5 -3t31.5 -25q1 -2 4 -10t4 -10.5t3.5 -9.5t3 -10.5t1.5 -9.5t0.5 -10.5t-1 -10t-2.5 -11t-5 -10.5q-2 -25 -8 -53t-11.5 -46.5t-16.5 -52t-15 -47.5
q-21 -60 -63.5 -172t-49.5 -131q-25 -66 -155 -432q-3 -9 -12.5 -39t-16.5 -45q-7 -16 8 -23q5 -3 15.5 -7.5t18 -10t11.5 -14.5q15 -36 -16 -52q-20 -11 -45 -2q-19 6 -25 3t-12 -23q-37 -102 -73 -208t-89 -266t-69 -208q-82 -250 -119 -377q-77 -251 -88 -283
q-17 -63 -17 -69q0 -7 -4 -19q-12 -31 -37 -28q-14 0 -29 11.5t-16 24.5q-4 39 0 58q6 30 20 85t17 68q17 60 51.5 170t42.5 136q10 31 28 85.5t33 100t27 86.5q37 125 123 375q44 123 95 274q10 19 -11 19q-23 -1 -79 5.5t-85 2.5zM1262 764q31 0 37.5 3.5t13.5 23.5
q15 40 42 119.5t42 119.5q9 25 38.5 110.5t47.5 131.5q23 56 46 118t51.5 141.5t43.5 119.5q13 38 33 108q1 2 -0.5 8t-1.5 7q-2 -1 -6.5 -3.5t-6.5 -3.5q-18 -19 -53 -57t-53 -57q-86 -93 -195 -240q-44 -57 -119.5 -163.5t-101.5 -141.5q-18 -25 -49 -72t-45 -67
q-19 -25 -38.5 -54t-42.5 -66t-36 -56q-7 -12 -5 -15.5t16 -3.5q34 -1 107.5 1t129 0t105.5 -11z" />
    <glyph glyph-name="B" unicode="B" horiz-adv-x="1296" 
d="M815 1634q106 29 217 -6q99 -32 158 -129q65 -105 51 -264q-13 -137 -92 -291q-33 -59 -94 -147q-49 -68 -158 -166q-70 -60 -176 -115l-12 -6q2 -1 7 -5t7 -5q89 -33 149 -117q24 -37 35 -78q30 -126 -28 -299q-48 -149 -183 -323q-93 -125 -209 -183q-109 -53 -192 21
q-33 27 -47 76q-29 108 0 272q22 116 94 362q28 90 94 263q60 158 154 364q61 132 108 229l42 93t42 92q17 30 33 49q19 24 47 12q11 -5 19.5 -19t7.5 -26q-4 -20 -8 -28q-70 -158 -148 -320q-27 -56 -149 -344q-9 -14 -9 -23q0 -12 13 -12q3 1 9 2t9 2q4 2 23.5 11.5t25 12
t23 11.5t24.5 12.5t22 12t24 14t21.5 13.5t23 16t20.5 16q89 76 148 145q77 91 141 236q40 84 49 180q11 124 -33 203q-54 102 -180 111q-102 5 -233 -52q-151 -67 -293 -219q-76 -83 -125 -162q-129 -217 -137 -426q-4 -90 8 -149q4 -16 20 -53q11 -22 -2 -35
q-21 -18 -45 -6q-38 23 -47 65q-29 123 -18 234q7 86 20 147q18 77 66 174q49 95 122 191q118 154 281 260q45 30 168 88q13 5 28 8t34.5 5.5t29.5 4.5zM823 266q0 1 -2 11.5t-4 15.5q-22 73 -86 110q-78 40 -170 46q-22 3 -29.5 -1t-13.5 -22q-8 -19 -31 -86
q-86 -249 -112 -360q-35 -156 -43 -269q-2 -39 16 -96q14 -42 49 -39q38 3 66 18q52 28 94 70.5t88 104.5q36 45 88 135q64 119 86 227q17 76 4 135z" />
    <glyph glyph-name="C" unicode="C" horiz-adv-x="1607" 
d="M115 -76v49q2 25 6.5 55.5t8.5 50.5t11.5 57t10.5 52q31 154 133 422q61 154 157 326q95 176 211 334q62 85 166 200q42 44 125 123q120 102 219 146q72 32 131 37q66 5 118.5 -34t66.5 -114q25 -116 -33 -274q-14 -45 -60 -45q-25 2 -37 19.5t-3 41.5q5 13 9.5 26.5
t8 29.5t5.5 26.5t4 29.5t3 27t1.5 29.5t1 27.5t1 30t0.5 28q1 18 -13.5 33.5t-33.5 17.5q-54 9 -100 -10q-111 -44 -211 -131q-27 -27 -43 -39q-132 -119 -272 -319q-121 -172 -213 -349q-105 -206 -172 -403q-35 -98 -80 -285q-12 -53 -15 -106q-1 -11 -5 -35t-5 -34.5
t-2.5 -34.5t0.5 -35q0 -136 33 -211q41 -100 141 -109q46 -3 103 18q105 41 192 109q19 14 39.5 30.5t36 30t38 34t34.5 31.5t36.5 35.5l32.5 32.5l35.5 35.5l32.5 32.5q62 56 161 174q13 16 38 42t36 38q35 40 109 125.5t114 130.5q37 42 113 136t119 141q9 10 33 49
q14 18 27.5 19t31.5 -9q37 -19 18 -61q-24 -50 -45 -74q-18 -19 -48 -60t-44 -57q-25 -28 -137 -164q-4 -5 -47.5 -54.5t-65.5 -76.5q-16 -20 -63 -67q-25 -30 -75 -84t-68 -74q-86 -97 -185 -189q-69 -82 -135 -135q-104 -98 -211 -162q-119 -66 -194 -75q-118 -15 -189 32
q-51 31 -86 84q-40 65 -57 168q-8 53 -4 164z" />
    <glyph glyph-name="D" unicode="D" horiz-adv-x="2377" 
d="M2253 1032q-10 0 -10 -14q-5 -158 -99 -369q-63 -138 -147 -256q-69 -95 -135 -172q-61 -71 -164 -170q-46 -44 -170 -143q-88 -74 -205 -144q-196 -111 -346 -149q-120 -29 -201 -29q-109 2 -262 54q-11 4 -60 20t-75 23q-45 12 -68 -15q-17 -17 -63 -45
q-48 -28 -90 -26q-36 4 -45 22q-13 34 -7 55q12 39 41 61t74 38q2 1 12.5 5.5t14 4.5h14.5q16 -3 31 3t22 12t23 22q58 58 156 190q73 102 168 252q21 35 43.5 74t49.5 86.5t42 73.5q27 45 80 134t79 134q17 28 49 86t48 86q9 17 50.5 87t61.5 110q6 11 49 87t58 121
q4 14 17.5 38.5t17.5 35.5q7 14 26 29q14 20 39 8t25 -33v-24q-43 -127 -82 -195q-14 -23 -82 -141q-75 -137 -158 -277q-25 -44 -72 -127.5t-55 -97.5q-126 -211 -145 -244q-88 -148 -203 -311q-86 -122 -123 -160q-2 -2 -24 -35q-3 -4 -12.5 -10.5t-14 -12.5t-0.5 -13
q2 -5 8 -7.5t20 -6t15 -3.5q8 -2 83 -25.5t114 -29.5q110 -21 192 -6q100 17 176 41q96 34 234 112q96 53 245 170q79 61 156 142q16 18 48 49.5t44 44.5q54 58 148 180q73 98 133 211q67 134 94 256q23 105 16 270q-2 67 -47 174q-65 148 -172 250q-86 80 -204 125
q-67 29 -170 43q-74 12 -146 6q-121 -9 -242 -57q-134 -52 -264 -154q-124 -95 -237 -231q-70 -85 -129 -180q-129 -199 -195 -410q-34 -107 -47 -170q-8 -33 -12 -100q-4 -37 10 -57q18 -21 0 -39q-7 -6 -24.5 -6t-26.5 6q-36 24 -39 80q-4 58 20 172q34 151 66 237
q56 153 108 240q73 124 111 176q44 67 104 133q69 78 89 96q201 191 399 277q85 39 201 59q111 21 161 19q287 -16 478 -166q155 -119 241 -312q34 -79 49 -163q9 -65 9 -87q0 -10 10 -10v-88z" />
    <glyph glyph-name="E" unicode="E" horiz-adv-x="1542" 
d="M1888 1798q-17 -26 -41 -35.5t-61 -13.5q-17 -1 -48 -4t-56 -5t-48 -3q-40 -3 -123.5 -10.5t-126.5 -10.5q-22 -1 -63 -4t-61 -4q-15 0 -43 -8q-12 -3 -19 -12q-38 -63 -100 -136q-30 -36 -84 -106.5t-80 -102.5q-28 -33 -131 -174q-60 -85 -158 -235q-5 -11 -4 -14
q3 -3 4 -3.5t4.5 2t5.5 3.5h4q27 -2 55.5 0t69.5 7t56 7q43 4 135.5 4.5t140.5 5.5q37 3 104.5 3.5t96.5 2.5q26 0 41 -10q17 -9 19 -25t-13 -30q-20 -23 -57 -23q-21 0 -45 -2t-54 -5.5t-45 -4.5q-23 -3 -75 -4.5t-80 -5.5t-82 -4.5t-78 -3.5q-168 -18 -221 -21
q-8 0 -26 -4.5t-28 -3.5q-9 0 -22 -17q-15 -25 -43 -77t-43 -78q-49 -84 -135 -260q-75 -158 -101 -283q-16 -82 -6 -127q20 -86 101 -129q88 -49 190 -61q8 0 26 -6t29 -5q4 0 58 -6q81 -8 121 2q55 10 96 15h4q9 1 18 -1t21 -7.5t16 -6.5q-7 -12 -29 -43q-22 -27 -75 -39
q-91 -20 -215 -10q-78 5 -174 29q-120 29 -187 84q-62 50 -102 153q-2 5 -2 33q-13 118 41 264q51 136 76 183q8 15 25 55.5t30 60.5q11 19 56 105t75 129q1 2 3 7t3 7q5 8 -4 8q-3 0 -17.5 1t-23.5 0t-18 -5q-8 -4 -13 -4q-29 2 -84.5 -4.5t-81.5 -5.5q-49 0 -75 39
q-11 17 0 26q27 23 43 23q14 0 38 3.5t33 4.5q35 6 102 13.5t81 9.5q48 10 65 8q11 0 20 6t12 9.5t11 15.5q11 16 32.5 49.5t33.5 50.5q65 100 133 195q102 140 131 178q90 111 104 127q21 25 62 75.5t61 75.5q5 10 6 11q-12 4 -14 4q-21 0 -104 -15q-58 -8 -87 -14
q-26 -5 -84.5 -16.5t-89.5 -16.5q-29 -6 -86 -18.5t-86 -18.5q-59 -12 -61 -12q-29 0 -43 29q-9 22 12 43q12 14 60 28q118 24 145 31q84 23 252 55q14 3 158 25q13 2 60.5 4t72.5 12h4q32 -2 91.5 5t88.5 6q42 0 118 6.5t95 7.5q88 0 131 8q19 3 111 8q42 3 65 -30v-19z
" />
    <glyph glyph-name="F" unicode="F" horiz-adv-x="1298" 
d="M782 1079q40 7 114 8.5t105 4.5t87.5 4.5t78.5 3.5q12 0 52 -10q28 -2 32 -37q3 -11 -4 -23t-20 -18q-22 -11 -27 -11q-9 -1 -32 -4.5t-40 -5t-34 -0.5q-75 4 -113 -2q-32 -4 -92.5 -5.5t-87.5 -4.5q-70 -9 -94 -6q-43 3 -56 -41q-13 -34 -50.5 -131t-57.5 -150
q-16 -46 -58 -180t-89.5 -291t-55.5 -182q-46 -156 -66 -234q0 -2 -8.5 -22t-9.5 -31q-2 -16 -23 -37q-16 -16 -28 -14q-11 3 -20 15t-9 22q-4 30 0 43q34 168 37 178q8 26 83 285t93 307q95 269 141 381q0 1 9 23.5t16 33.5q2 4 -0.5 8.5t-9.5 4.5h-15q-7 0 -21.5 -2
t-23 -2.5t-21 0.5t-22.5 4q-13 3 -24 -5t-37 -4q-11 0 -25 13.5t-16 23.5q0 9 11.5 23.5t23.5 17.5q11 3 47 12.5t60 14t48 4.5h25q31 5 46 15.5t22 37.5q4 14 41 96q16 38 51 112t51 112q16 35 49.5 103t50.5 103q8 17 4 23.5t-22 5.5q-37 -3 -82 -12q-29 -6 -86 -18.5
t-86 -18.5q-40 -9 -84 -21q-181 -52 -191 -55q-76 -27 -165 -47q-15 -4 -31 0.5t-19 13.5q-3 12 3.5 25.5t19.5 19.5q17 8 48 23.5t57.5 27.5t50.5 19q30 8 91.5 26.5t92.5 26.5q144 38 203 52q235 46 243 47q19 3 29 16q10 20 43 53q1 2 2 5.5t2 6t3.5 4.5t6.5 3
q8 0 11 -11t4 -12q4 -4 4 -8q1 -4 0 -13t0 -14.5t6 -7.5q24 -12 43 -2q16 8 51.5 9t52.5 10q26 -2 76 5t74 5q15 -1 43 5t43 5q27 -2 88 6q50 9 137 2q27 -1 80.5 5t79.5 5h162q7 0 20 4t17 5q23 6 41.5 -8t17.5 -41q-3 -34 -39 -46q-36 -14 -51 -12q-76 3 -223 -4.5
t-217 -5.5q-28 -6 -91.5 -7t-95.5 -11h-24q-35 0 -100 -9t-74 -10q-15 -1 -54 -6.5t-61 -5.5q-24 3 -31 -23q-5 -14 -22 -53q-29 -57 -81 -165t-65 -134q-14 -30 -49 -106.5t-55 -118.5q-6 -19 12 -19h53z" />
    <glyph glyph-name="G" unicode="G" horiz-adv-x="1630" 
d="M1059 295q-5 -1 -8.5 -3t-7 -5.5l-5.5 -5.5t-5.5 -6.5t-4.5 -6.5q-57 -76 -197 -202q-130 -121 -276 -185q-59 -26 -145 -43q-45 -8 -127 8q-85 20 -131 107q-37 79 -39 133q-1 7 -6 35.5t-3 44.5q3 23 9 65.5t8 59.5q14 104 80 299q4 13 10 27t13.5 30.5t11.5 26.5
q70 159 155 297q27 45 56.5 88.5t80 111t62.5 84.5q13 19 65 76q11 12 47 49.5t54 59.5q13 17 43 42t39 34q118 113 286 213q97 61 252 112q67 19 123 25q93 10 162 -45q43 -32 53 -92q3 -39 -28 -74q-5 -6 -17 -16.5t-20.5 -20t-12.5 -19.5q0 -1 -3 -2q-1 -1 -1.5 -1
t-1.5 -1q0 1 -1 4.5t-1 4.5v20q14 13 4.5 49t-6.5 49q-30 44 -74 47q-92 8 -198 -34q-128 -48 -250 -131q-113 -78 -195 -152q-1 -1 -82 -76q-23 -22 -48.5 -50t-43 -48.5t-46 -55.5t-42.5 -51q-66 -83 -127 -176q-73 -108 -137 -237q-82 -167 -123 -312q-24 -81 -39 -172
q-5 -20 -6.5 -40.5t-2.5 -53.5t-1 -41q-3 -52 20 -112q30 -83 115 -86q109 -7 254 77q94 60 176 136q9 8 28.5 25t31 27t26.5 26t27 30q87 98 145 168q42 53 116 156t87 121q7 8 17.5 28.5t17.5 28.5q6 6 2 13t-12 7q-21 4 -29 0q-16 -4 -33 -6t-37 -2.5t-31.5 -0.5t-36 1.5
t-32.5 1.5q-23 0 -70 -6t-71 -6q-16 0 -49.5 6t-51.5 6t-32.5 14.5t-16.5 30.5q-3 27 20 47t50 13q34 -11 69 0q19 7 39 0q78 -14 199 0q16 2 43 1.5t43 0.5q10 1 30.5 -0.5t36 0t29.5 8.5q5 -1 20 -3t21 -3.5t18.5 -4.5t19 -6.5t16 -9t16 -13t12.5 -17.5q17 -30 2 -80
q-10 -37 -63 -119q-26 -44 -79 -131t-79 -131q-24 -39 -48.5 -83t-44 -78t-47 -86.5t-41.5 -79.5t-44.5 -88t-40 -79.5t-44 -87.5t-40.5 -82q-22 -43 -76 -162q-14 -29 -43 -51q-26 -23 -51 2q-26 29 -13 62q7 15 19.5 45t19.5 45q40 81 119 242.5t119 242.5q35 67 72 135
q8 16 6 23q4 2 8 2q1 4 -4 4q-2 0 -2 -6z" />
    <glyph glyph-name="H" unicode="H" horiz-adv-x="1409" 
d="M690 938q45 9 134 9t122 3q82 9 164 6q22 0 33 25q11 23 38.5 84t43.5 94q67 145 110 227q22 46 66 129.5t61 118.5q32 60 66 140q20 38 51 28q14 -3 23.5 -20t3.5 -35q-6 -19 -20 -53.5t-17 -44.5q-30 -74 -97 -206t-83 -165q-143 -312 -170 -375q-49 -118 -119 -293
q-45 -115 -152 -432q-38 -110 -74 -235q-84 -290 -151 -482q-1 -3 -6.5 -20.5t-8.5 -24t-9.5 -18t-14.5 -19.5q-2 -1 -5.5 -5t-6 -5t-6 -2.5t-7 0t-8.5 4.5q-30 19 -24 41q12 44 34.5 125t26.5 94q9 33 25.5 97.5t25.5 97.5q43 152 72 246q69 222 137 413q20 57 109 289
q11 33 28 66q3 9 -2 14.5t-12 1.5q-15 -6 -29 -6q-37 0 -134.5 -6.5t-151.5 -3.5q-24 1 -72.5 -5.5t-73.5 -5.5q-11 0 -15.5 -5.5t-10.5 -18.5q-9 -21 -28.5 -59.5t-27.5 -57.5q-15 -33 -40.5 -95.5t-28.5 -70.5q-36 -87 -107.5 -261t-107.5 -261q-5 -13 -12.5 -39
t-12.5 -39q-3 -12 -17 -24.5t-22 -10.5q-13 0 -25 16t-14 34q0 15 15 65q70 207 118 328q20 52 60 149.5t57 141.5q5 14 68 153q1 3 3 7t3 7q4 10 -1.5 16.5t-17.5 4.5h-6q-27 -7 -111 -24t-130 -31q-11 -3 -23.5 -3.5t-30 0.5t-24.5 1q-9 0 -14 9.5t-1 18.5q2 4 6.5 16.5
t8.5 18.5q11 19 31 25q158 42 204 51q100 22 136 27q31 3 43 30q17 38 50.5 113t49.5 113l8 16q23 49 69.5 147.5t69.5 147.5q18 37 72 141t82 162q2 4 7.5 16.5t8.5 18t8.5 14.5t11.5 15.5t13 11.5q24 21 47 8q25 -22 19 -51q-10 -41 -50 -119q-109 -213 -139 -279
q-45 -94 -145 -319q-12 -24 -33 -72t-33 -71q-8 -15 -6 -19t19 -4h26z" />
    <glyph glyph-name="I" unicode="I" horiz-adv-x="925" 
d="M1024 1862q15 0 43 1t44.5 0.5t31.5 -3.5q10 -1 90.5 -6.5t120.5 -20.5q20 -7 32.5 -19.5t10.5 -23.5q-2 -15 -17.5 -26t-38.5 -11q-129 0 -155 2q-12 0 -38 4.5t-40 3.5q-9 0 -14 -10q-21 -45 -76 -123q-17 -24 -45.5 -72t-42.5 -69q-49 -83 -148 -277
q-74 -144 -151 -319q-100 -215 -142 -320q-19 -48 -56 -139.5t-65.5 -164.5t-52.5 -140q-53 -138 -118 -338q-1 -3 -5 -10.5t-4 -11.5q0 -21 15 -21q8 1 33.5 0.5t33.5 5.5q21 8 33 2q13 -5 29.5 -7t29.5 -1t29 0h15q43 -5 47 -27q6 -17 -31 -38q-30 -20 -64 -23
q-17 -1 -70.5 -6t-82.5 -4q-27 1 -53 -1.5t-68 -9.5t-51 -8q-21 -2 -45 -2t-53.5 1t-45.5 1q-9 0 -20 11q-16 12 -2 26q49 46 133 60q8 1 24.5 4.5t28.5 5t23 0.5q24 0 24 20q0 27 6 58t13 51.5t19 55.5t18 52q53 153 127 336q18 44 51.5 133.5t52.5 133.5q13 33 41 93
t35 77q16 35 54.5 123.5t60.5 134.5q34 75 137 276q50 97 73.5 141t68 120t85.5 134q1 2 3 6.5t3 6.5q6 11 18.5 33.5t18.5 33.5q-29 12 -86 4q-14 -1 -41 -4t-41 -4q-12 -1 -110 10q-7 0 -15 4q-12 6 -14.5 18.5t6.5 24.5q21 31 55 31q48 2 138 14q29 3 79.5 4t67.5 3z" />
    <glyph glyph-name="J" unicode="J" horiz-adv-x="2048" 
d="M1882 1378q4 107 -8 160q-25 100 -68 166t-125 100q-95 40 -186 21q-86 -15 -141 -31q-134 -44 -279 -147q-98 -70 -182 -160q-47 -55 -72 -86q-5 -9 -13 -17.5t-17.5 -18.5t-14.5 -15q-11 -11 -22 -11q-7 1 -13.5 0t-14 1.5t-11.5 9.5q-20 32 -4 53q4 6 13 20t16.5 24.5
t15.5 18.5q14 14 67 74t86 90q172 156 357 238q112 50 219 61q194 20 327 -86q97 -79 140 -209q30 -92 30 -170q0 -11 5 -35.5t4 -39.5q0 -25 -2.5 -53t-7.5 -63.5t-7 -51.5q-4 -31 -39 -183q-19 -81 -67 -198q-53 -132 -96 -213q-79 -152 -185 -305q-96 -140 -194 -246
q-66 -74 -101 -107q-149 -143 -297 -235q-128 -81 -219 -107q-116 -31 -162 -39q-65 -10 -194 -6q-140 6 -250 99l-6 6q-24 42 -34 62t-20 57.5t-6 70.5q23 155 54 238q49 117 73 161q1 1 2.5 4t2 4.5t2.5 4t3 4t3 3.5l3 3t3.5 3t4 2.5t4 1.5t5.5 1q28 9 41 -8q16 -26 2 -55
q-10 -16 -24 -47t-21 -43q-26 -47 -51 -158q-8 -41 -8 -152q0 -9 1 -19.5t2.5 -17t6.5 -18t7 -16t8.5 -17.5t7.5 -16q19 -31 49 -37q9 -3 25 -8t26 -8t24 -5.5t27 -3.5q86 -9 111 -8q168 14 280 60q158 67 314 194q125 104 170 154q112 117 221 264q148 209 237 399
q57 121 117 314q16 63 45 211q3 16 3 34t-1.5 41.5t-1.5 36.5z" />
    <glyph glyph-name="K" unicode="K" horiz-adv-x="1454" 
d="M102 -98q0 12 19 59q16 37 35 76.5t44.5 90.5l37.5 75q29 60 78.5 170.5t66.5 148.5q15 33 46 97.5t46 97.5q39 94 160 327q58 112 141 259q25 43 76.5 128t75.5 128q59 99 119 192q13 23 40 47q29 23 58 -2q8 -8 11 -24.5t-5 -24.5q-16 -17 -27.5 -54t-21.5 -51
q-14 -19 -62 -98q-68 -104 -170 -278q-73 -131 -77 -138q-5 -10 2 -12l8 4q31 24 143.5 114t175.5 136q301 220 467 313q15 8 41.5 27.5t34.5 24.5q27 18 59 18q25 -2 37 -27q10 -22 -8 -40q-26 -21 -39 -29q-44 -27 -119.5 -82.5t-109.5 -77.5q-12 -8 -51.5 -30.5
t-59.5 -39.5q-26 -20 -89.5 -65t-96.5 -72q-34 -28 -99.5 -76.5t-84.5 -62.5q-62 -49 -113 -92q-55 -43 -111 -84q-29 -22 -36.5 -40.5t-0.5 -51.5q38 -183 68 -287q51 -182 107 -307q19 -44 60.5 -124.5t59.5 -119.5q28 -63 61.5 -131.5t76.5 -154t65 -130.5
q23 -47 23 -106q-2 -14 -10.5 -27t-18.5 -14q-12 -3 -26.5 -1.5t-22.5 13.5q-4 6 -13.5 19t-16.5 22.5t-11 18.5q-57 103 -129 272q-8 18 -24.5 55t-24.5 56q-43 92 -101 227q-47 101 -59 131q-40 92 -86 242q-45 171 -51 198q-15 69 -17 80q-3 10 -8 10q-7 2 -10 -6
l-31 -62t-31 -63q-2 -4 -5 -13t-5 -13q-20 -44 -74 -158.5t-81 -177.5q-19 -43 -42.5 -90.5t-52.5 -104.5t-45 -90q-9 -21 -33 -58.5t-28 -45.5q-2 -4 -9 -16t-11 -21.5t-5 -18.5q-5 -15 -20 -24q-25 -13 -42.5 -2t-17.5 41z" />
    <glyph glyph-name="L" unicode="L" horiz-adv-x="1366" 
d="M719 -346h92q82 3 158 18q10 2 30 2q41 -3 70 11q11 6 24.5 8t24 1.5t23.5 0.5q18 0 26 -19q3 -17 -8 -26q-40 -40 -78 -49q-9 -2 -28.5 -7t-35 -7.5t-30.5 -2.5q-74 3 -172 -18h-31h-96q-70 -2 -213 18q-67 9 -139 31q-92 29 -152 92q-45 47 -69 129q-29 105 22 266
q46 140 111 258q140 260 237 418q176 297 328 516q80 117 184 252q4 5 57 71.5t79 100.5q18 22 54 61.5t44 47.5q9 11 31 22q27 16 41 2q19 -22 10 -45q-2 -10 -19 -32q-29 -39 -88.5 -115t-89.5 -115q-111 -146 -158 -213q-125 -177 -178 -258q-116 -181 -174 -280
q-13 -23 -66.5 -112t-80.5 -138q-36 -63 -158 -301q-47 -94 -86 -230q-24 -96 0 -170q20 -68 86 -108q63 -38 166 -60q139 -26 252 -20z" />
    <glyph glyph-name="M" unicode="M" horiz-adv-x="1914" 
d="M1284 1737q2 -43 -16 -168q-7 -52 -17.5 -104t-29 -134.5t-23.5 -103.5q-17 -73 -49.5 -210t-46.5 -198q-5 -24 -18 -76.5t-21.5 -93t-13.5 -78.5q-3 -20 -7.5 -41.5t-11.5 -48t-10 -41.5q0 -6 4 -18q2 2 6 5t6 5q26 21 58 70q29 41 103.5 150t115.5 167q173 248 239 338
q36 50 183 238q12 15 40 45t40 47q19 23 61 49q42 29 76 6q40 -29 30 -76q-22 -89 -34 -125q-24 -65 -75 -183t-61 -142q-15 -38 -45.5 -105t-37.5 -84q-18 -40 -55 -129t-58 -135q-26 -58 -94 -225q-74 -176 -109 -266q-113 -293 -123 -320q-29 -82 -112 -330
q-21 -62 -45 -120q-8 -28 -41 -21q-19 2 -25 35q-2 32 14 86q9 31 33 114.5t42.5 142t39.5 112.5q18 45 50 136t50 136q65 170 109 270q15 36 43.5 106.5t44.5 106.5q15 33 59 135.5t70 157.5q8 18 23.5 53t23.5 52q103 222 193 444q1 3 5.5 13.5t4.5 15t-2 16.5
q-3 -3 -10 -9.5t-12 -12t-9 -9.5q-25 -28 -67.5 -81t-55.5 -68q-35 -41 -94 -122t-70 -95q-18 -23 -51.5 -72t-36.5 -53q-119 -170 -268 -389q-10 -14 -37 -52t-47.5 -64t-42.5 -48q-23 -23 -39 -31q-34 -17 -60 -5.5t-40 48.5q-17 48 -6 82q5 16 8 49t8 49q9 30 20 87.5
t17 80.5q7 31 21.5 93.5t21.5 93.5q9 42 26.5 117.5t22.5 95.5q9 39 26 109t23 96q1 4 17 68.5t20 98.5q3 30 13 84t12 68q4 27 5 58t0.5 68.5t0.5 57.5q4 31 -10 35q-14 5 -33 -14q-77 -73 -117 -127q-94 -131 -123 -176q-76 -118 -149 -248q-131 -229 -195 -365
q-137 -286 -182 -401q-18 -44 -61.5 -142.5t-65.5 -152.5q-9 -22 -26.5 -65.5t-20.5 -49.5q-11 -34 -37 -47q-23 -11 -41 -0.5t-21 35.5q-2 18 13 62q21 53 62.5 150.5t58.5 139.5q17 40 51.5 128t54.5 134q14 31 42.5 94t41.5 95q29 67 87 194t65 142q25 53 75 155
q21 46 64 139.5t65 139.5q5 11 17.5 31.5t13.5 23.5l10 10q9 9 27 12t27 -3q7 -4 10 -9t3.5 -17t0.5 -13q0 -5 -5 -13.5t-5 -13.5q0 -4 2 -4q0 -6 6 0q4 5 24 35q72 108 172 198q28 28 66 37q48 8 80 -13.5t41 -70.5q12 -36 12 -41q-2 -25 -2 -73z" />
    <glyph glyph-name="N" unicode="N" horiz-adv-x="1695" 
d="M305 432q11 5 18.5 15t15 24.5t11.5 20.5q31 40 105.5 144.5t117.5 158.5q158 201 164 209q16 22 53 59.5t52 56.5q124 153 319 336q197 184 359 281q72 41 166 57q22 4 52 -10.5t42 -34.5q19 -31 22 -72q3 -96 -43 -207q-61 -165 -155 -354q-64 -128 -150 -307
q-19 -40 -58.5 -121t-58.5 -121q-105 -225 -127 -274q-51 -111 -180 -402q-54 -126 -104 -206q-6 -12 -17 -23q-3 -2 -7 -6.5t-6 -6.5t-7.5 -3.5t-11.5 2.5q-20 9 -25.5 16.5t-5.5 26.5q1 3 2 10t2 10q33 88 45 115q24 59 152 346q33 78 161 354q12 25 51 105t58 125
q28 64 85 177t79 159q15 33 45 95.5t48.5 101.5t42 94t40.5 102q2 6 12 32t13 36t9.5 31t8.5 37.5t2 33.5v20q0 15 -16 15q-24 0 -68 -19q-94 -43 -166 -98q-66 -49 -168 -137q-29 -26 -203 -195q-42 -42 -166 -184q-14 -17 -43 -50t-43 -49q-78 -92 -96 -116
q-24 -31 -70 -93t-69 -92q-57 -73 -154 -215q-41 -59 -121 -180q-49 -69 -71 -104q-14 -23 -55 -60q-17 -17 -42 -11.5t-34 28.5q-17 37 -11 61q15 67 66 205q31 82 113 285q40 100 82 192q84 188 254 512q80 157 135 244q28 56 30 61q9 23 41 47q19 14 56 2q12 -4 12 -18
q0 -40 -10 -55q-18 -26 -72 -131q-25 -46 -78 -147.5t-82 -153.5q-23 -43 -47 -92.5t-52 -108.5t-44 -92q-109 -235 -166 -387q-3 -7 -35 -80q-2 -4 -2 -29l-8 -2q-2 -5 1 -5q2 0 3 1q2 2 2 8z" />
    <glyph glyph-name="O" unicode="O" horiz-adv-x="1574" 
d="M1470 1329q3 -47 -4.5 -104.5t-15 -90.5t-25.5 -104q-36 -147 -104 -315q-89 -213 -193 -400q-76 -138 -208 -333q-107 -159 -248 -285q-94 -81 -199 -105q-75 -19 -147 12t-115 89q-68 94 -90 225q-19 117 -19 221q1 9 6.5 31t4.5 35q-1 12 3.5 34t4.5 27q3 36 31 156
q17 83 73 231q39 104 86 193q89 177 191 309q73 96 121 148q14 14 45.5 49t50.5 53q133 119 231 182q20 12 70 21q27 5 57 22q93 51 158 49q128 -3 186 -108q52 -92 49 -178v-64zM831 1374l-8 -4q-17 -18 -51 -51t-60 -60.5t-48 -54.5q-65 -79 -101 -129q-68 -98 -131 -209
q-70 -125 -121 -264q-61 -161 -84 -285q-18 -96 -24 -190q-5 -62 6 -154q13 -112 61 -196q7 -14 24 -36t25 -28q33 -28 78 -31t84 9q63 15 150 94q36 32 114 119q66 79 121 157q120 172 234 388q79 155 114 241q47 111 58 144q86 237 102 366q3 26 8.5 77t8.5 77
q1 14 -1.5 29t-6.5 33t-5 28q-5 40 -37 92q-42 61 -108 51q-71 -7 -125 -47q-98 -73 -160 -168q-93 -148 -119 -285q-23 -120 -26 -215q-4 -81 6 -135q11 -58 27 -92q41 -80 69 -108q39 -42 -16 -64h-19q-55 25 -75 59q-33 60 -43 93q-9 27 -16 60.5t-10 57t-7 63t-6 58.5
q-2 26 3 74.5t5 67.5q0 46 14 104q32 133 78 221q2 5 7 13t8 15.5t3 14.5q1 1 3.5 2t3.5 2q4 4 -4 4q0 -1 -1.5 -4t-1.5 -4z" />
    <glyph glyph-name="P" unicode="P" horiz-adv-x="1409" 
d="M102 1122q9 2 9 15q2 61 39 147q46 111 139 229q72 89 170 177q103 90 229 159q137 75 254 111q122 37 182 39q6 0 33.5 4.5t42.5 3.5q193 -10 305 -102q128 -103 131 -258q5 -112 -53 -256q-41 -109 -137 -242q-90 -125 -186 -211q-191 -167 -373 -276
q-160 -101 -258 -150q-17 -8 -56 -34.5t-63 -35.5q-10 -3 -14 -18q-15 -41 -56.5 -152t-62.5 -172q-24 -71 -72.5 -200.5t-64.5 -173.5q-3 -7 -7 -15.5t-9.5 -19t-8.5 -15.5q-10 -20 -29 -20q-28 4 -34 20q-14 29 -11 41q32 120 43 156q103 297 125 356q79 205 140 351
q100 244 290 616q73 146 127 242q26 54 47 78q23 23 33 28q8 5 11 6.5t10 3.5t12.5 0t11.5 -8q23 -20 10 -51q-6 -12 -41.5 -87.5t-56.5 -115.5q-26 -54 -82.5 -162t-83.5 -163q-57 -119 -172 -371v-8q3 -3 4 -3.5t4.5 2.5t4.5 3q24 9 51 23.5t42 24t48.5 32t42.5 28.5
q146 89 289 201q141 108 227 207q118 134 184 264q62 121 72 217q16 129 -68 213q-75 72 -182 90q-85 16 -192 0q-182 -27 -383 -143q-108 -62 -172 -121q-125 -103 -207 -215q-37 -47 -97 -160q-30 -59 -53 -168q-5 -44 -55 -41q-7 1 -12 11t-11 10v59z" />
    <glyph glyph-name="Q" unicode="Q" horiz-adv-x="1863" 
d="M106 -94q-8 47 13 168q27 182 100 387q70 184 113 274q8 17 21 46.5t24.5 54.5t23.5 47q100 194 191 321q136 192 217 273q12 12 35.5 38.5t38.5 40.5q98 87 174.5 147t159.5 107q121 68 204 91q10 2 38 9t42.5 10t38 5.5t43.5 1.5q31 -2 53 -35q7 -9 -0.5 -28t-21.5 -25
q-2 -1 -10.5 -2.5t-13 -5t-5.5 -10.5q0 -1 27 -17q53 -36 83 -90t52 -131q22 -82 8 -203q-13 -120 -41 -221q-5 -16 -28.5 -94t-38.5 -119q-45 -126 -109 -270q-48 -111 -137 -270q-105 -178 -195 -293q-113 -150 -157 -201q-20 -24 -45.5 -51t-42 -44t-49 -49t-44.5 -44
q-141 -137 -301 -207q-24 -10 -32 -11q-13 -4 -11 -22q23 -90 45 -166q13 -39 37 -118t37 -118q12 -39 -4 -61q-18 -30 -49 -16q-25 16 -33 41q-69 201 -117 397q-6 25 -11.5 29.5t-33.5 5.5q-6 0 -20 -0.5t-21.5 -0.5t-19.5 1.5t-21 5.5q-125 40 -168 166q-28 80 -34 120
t-5 136zM195 -100q1 -14 1 -46t1.5 -56t5.5 -46q18 -69 41 -112q46 -82 151 -82q17 0 17 18q-1 4 -2 14t-2 15q-18 71 -27 149q-11 91 -12 96q-2 15 -7 87q-5 70 -4 83q5 32 16.5 51t37.5 27q28 9 28 -14q0 -20 4 -55.5t5 -48.5q1 -15 7 -65t7 -77q4 -56 8 -86
q2 -14 29 -145q3 -14 9 -18.5t19 -0.5q4 1 8 2.5t9.5 4.5t9.5 4q147 72 270 192q131 127 215 232q98 120 125 161q152 226 201 318q92 170 141 289q87 206 129 368q31 124 41 217q7 93 -6 164q-13 68 -41 123q-84 141 -241 92q-73 -21 -150 -88q-107 -93 -188 -211
q-167 -240 -265 -467q-53 -124 -106 -295q-23 -65 -21 -88q0 -25 -7.5 -86t-4.5 -94q0 -30 -2 -35q-5 -9 -7 -20.5t-2 -19t0.5 -21t0.5 -19.5q1 -14 -4.5 -41t-3.5 -41q1 -23 -7 -67.5t-6 -67.5q1 -3 0 -6t-3 -6.5t-3 -5.5q-9 -22 -28.5 -27t-36.5 10q-17 17 -17 35
q0 10 -1.5 33.5t-1 41t4.5 32.5q8 31 10.5 87.5t6.5 80.5q21 148 24 161q4 26 11.5 56t13.5 51t16 55l15 51q41 138 88 248q65 143 116 246q67 122 82 147q16 34 52 82q17 19 84 111v10q-2 4 -9 0q-15 -14 -45.5 -40.5t-44.5 -41.5q-17 -16 -35.5 -35.5t-40.5 -43.5t-34 -37
q-80 -84 -178 -224q-103 -142 -191 -323q-15 -27 -28 -55t-31.5 -71.5t-24.5 -56.5q-78 -175 -137 -380q-57 -218 -55 -379z" />
    <glyph glyph-name="R" unicode="R" horiz-adv-x="1454" 
d="M1223 1870q74 7 174 -29q83 -30 136.5 -99.5t57.5 -164.5q5 -133 -61 -293q-49 -118 -164 -276q-96 -135 -211 -236q-6 -5 -40 -34t-46.5 -39t-39 -31.5t-48.5 -36.5t-45 -29q-174 -109 -299 -147q-4 -2 -13.5 -6.5t-13.5 -6.5q-10 -5 -8 -22q6 -24 24.5 -66.5
t20.5 -48.5q20 -51 45.5 -149t32.5 -121q6 -23 19.5 -67t19.5 -66q65 -230 70 -248q11 -49 38 -127q1 -2 2 -3.5t2 -2.5t1 -2q16 -48 -27 -64q-14 -6 -31 1t-26 24q-25 58 -29 69q-17 47 -31.5 100t-32.5 122t-26 100q-5 22 -22.5 70.5t-22.5 74.5q-21 97 -82 275
q-2 5 -14.5 36.5t-16.5 49.5q0 8 -8 8q-6 -2 -10 -10q-10 -24 -31 -73t-31 -73q-82 -178 -137 -311q-59 -138 -123 -254q-8 -16 -12 -20q-16 -19 -29 -15q-25 7 -31 31q-2 12 2 33q12 32 36 96.5t36 95.5q12 27 33 77.5t38.5 91.5t33.5 77q8 17 24.5 52t24.5 53
q72 158 174 374q79 169 160 322q45 87 124.5 245.5t104.5 208.5q9 19 35 57t35 60q8 20 28 23q22 3 34.5 -8t12.5 -33q0 -7 -10 -37q-32 -75 -166 -336q-226 -446 -270 -537q-8 -16 -14 -26q-3 -6 0 -12q4 -3 14 0q208 80 334 174q146 106 235 200q93 96 152 183
q63 91 108 182q54 108 70 207q13 79 -2 139q-17 71 -84 113q-47 25 -117 39q-23 4 -50.5 4t-44 -2t-50 -7t-45.5 -6q-112 -17 -262 -90q-83 -38 -191 -121q-91 -69 -192 -186q-72 -78 -125 -178q-26 -48 -37 -137q-4 -25 -10 -35q-9 -18 -12.5 -21.5t-12.5 -1.5
q-48 0 -55 37v10q1 9 4 30t4.5 32.5t5.5 28t10 30.5q59 133 121 209q83 106 139 160q189 174 369 254q128 55 256 78q12 3 111 8z" />
    <glyph glyph-name="S" unicode="S" horiz-adv-x="1761" 
d="M518 -539q-119 -11 -239 52q-126 66 -162 213q-33 123 22 274q9 25 24 55t24 45.5t33.5 54t29.5 46.5q88 131 223 250q89 80 193 135q29 18 51 16q29 0 41 -24q3 -5 4.5 -10t0 -10t-2.5 -8t-4 -8t-4 -7q-15 -23 -33 -29q-18 -7 -49 -26.5t-47 -26.5q-53 -22 -111 -80
q-84 -77 -172 -209q-50 -69 -82 -135q-65 -124 -51 -246q10 -103 84 -160q79 -60 188 -63h53q104 -5 248 51q100 39 199 106q65 41 117 93q142 142 196 305q19 63 25 123q9 98 -14 184q-27 96 -97 196q-64 90 -145 177q-136 140 -191 227q-84 135 -63 285q10 92 86 196
q78 108 227 203q152 96 273 113q171 22 276 -47q87 -61 109 -150q14 -50 2 -109q-1 -7 -3.5 -26t-4.5 -29t-7 -24.5t-12 -26.5q0 -1 -3 -6.5t-6.5 -8.5t-8.5 -6q-33 -20 -49 -4q-25 22 -19 58q5 24 14 131q1 42 -18 70.5t-57 54.5q-35 21 -82 24q-109 12 -217 -30
q-101 -39 -193 -109q-127 -92 -180 -211q-38 -73 -29 -143q9 -105 78 -189q78 -98 152 -172q95 -92 163 -196q94 -138 119 -281q11 -76 4 -170q-6 -89 -41 -166q-66 -142 -135 -227q-118 -143 -274 -234q-112 -65 -297 -118q-80 -19 -156 -13z" />
    <glyph glyph-name="T" unicode="T" horiz-adv-x="1189" 
d="M1776 1688h-88q-18 1 -50 -5t-47 -6q-70 4 -96 -6q-4 -2 -31 -2q-42 0 -161 -18q-22 -3 -37 -21q-24 -31 -27 -35q-42 -63 -139 -235q-84 -155 -146 -287q-106 -221 -172 -371q-41 -90 -120 -284q-55 -127 -142 -336q-35 -85 -102 -238q-75 -180 -111 -247q-3 -5 -7 -16
t-7 -15q-9 -13 -22.5 -18.5t-24.5 -2.5q-11 5 -20.5 23t-6.5 31q20 69 31 100q19 45 57.5 134t57.5 134q11 27 67 156.5t82 200.5q11 31 37.5 87t34.5 76q68 159 153 344q72 159 183 377q11 20 35 72t40 78q10 18 31 58t33 62.5t31 55t36 59.5q2 3 6.5 10.5t6.5 10.5
q5 12 -13 16q-6 0 -16 -5t-16 -5q-82 -10 -252 -51q-180 -48 -256 -78q-173 -66 -262 -127q-60 -43 -72 -57q-80 -86 -45 -183q1 -2 5.5 -10t3.5 -10t-3 -10q-1 -2 -4 -9.5t-7.5 -11.5t-13.5 -4q-46 -4 -57 25q-9 21 -18 45q-23 54 2 129q25 76 112 149q63 53 162 103
q62 30 172 69q116 46 367 105q24 6 184 37q17 3 49 7t58 8t49 9q15 5 44.5 7t35.5 3q25 1 70 6.5t57 6.5q26 3 90.5 5.5t97.5 6.5q46 6 120 5.5t120 0.5q17 0 30 -8q18 -9 23.5 -27t-6.5 -32q-30 -41 -74 -41h-102z" />
    <glyph glyph-name="U" unicode="U" horiz-adv-x="1673" 
d="M784 1733q2 -15 -12 -33q-67 -76 -166 -232q-94 -152 -190 -360q-78 -177 -105 -252q-58 -164 -80 -264q-1 -6 -18 -115q-12 -59 -8 -153q7 -105 47 -174q26 -47 53 -62q29 -19 62 -22q5 -1 18.5 -4.5t23 -3t17.5 7.5q6 -2 21.5 0t21 2t20.5 4t20.5 5.5t20 6t19.5 6.5
q107 41 211 115q22 15 60.5 47t45.5 37q73 59 144 139q58 60 151 176q20 24 64 83t69 89q65 79 109 193q15 41 67 161q82 197 170 361q54 99 99 170q5 9 33 37q15 15 33 19t30 -5q37 -23 27 -72q-3 -19 -16 -50.5t-17 -43.5q-23 -63 -98 -223q-16 -35 -52.5 -98.5
t-42.5 -73.5q-27 -53 -86 -148.5t-82 -138.5q-18 -33 -42.5 -99.5t-30.5 -80.5q-25 -64 -73.5 -192t-72.5 -193q-73 -199 -82 -223q-56 -157 -120 -322q-8 -19 -24 -52.5t-22 -47.5q-9 -21 -22 -31t-25 -6q-15 5 -24.5 22.5t-5.5 34.5q17 79 28 111q14 40 123 321
q17 46 51 138.5t52 138.5q9 24 27.5 73t27.5 74q5 10 2 15q-2 2 -4 1.5t-2.5 -1.5t-2.5 -3l-3 -3q-12 -15 -37 -44.5t-37 -43.5q-11 -16 -12 -17q-10 -10 -54 -58.5t-69 -72.5q-143 -143 -291 -231q-124 -78 -252 -101q-108 -21 -186 17q-71 36 -111 100q-46 79 -61 170
q-14 99 -4 209q7 83 45 225q32 124 96 279q22 56 48 111.5t67 139.5t53 109q56 114 184 305q29 43 103 117q18 14 24 16q26 13 41 3.5t14 -39.5z" />
    <glyph glyph-name="V" unicode="V" horiz-adv-x="1411" 
d="M104 -387q-1 48 6.5 141t8.5 133q0 43 8 121q2 30 5 64t7 75t6 64q8 66 21 143q5 27 12 82t12 82q9 48 15 100q9 82 16 105q5 16 10 76q2 24 23 182q14 104 27 180q15 97 22 162q4 27 14 75.5t11 55.5q12 54 12 80q0 34 10 94t12 84q0 18 31 45q14 17 35 2q38 -24 25 -63
q-2 -10 -2 -33q0 -72 -29 -229q-12 -83 -12 -91q-3 -31 -13.5 -85t-13.5 -76q-2 -16 -5 -48t-5 -47q-15 -85 -29 -204q-1 -11 -5 -31.5t-6 -37.5t-1 -32q1 -10 -5 -28.5t-5 -28.5q3 -27 -9 -57q-3 -11 -8 -76q0 -4 -24 -172q-4 -29 -12.5 -89.5t-12.5 -90.5q-1 -9 -5 -32
t-5 -32.5t-2.5 -32.5t0.5 -32q1 -16 -5.5 -44t-5.5 -42q0 -7 0.5 -21.5t0.5 -23t-2 -21t-7 -22.5v-9q1 -52 -6.5 -159t-5.5 -164v-8q0 -16 4 -19q2 -2 14 10q48 76 80 125q249 386 291 455q18 29 53 85.5t57 91.5t51 84.5t52 92.5q29 53 89.5 149.5t84.5 137.5
q41 75 178 307q27 46 78.5 129t71.5 117q57 96 123 190q105 156 162 224q7 7 77 104q10 13 31 21q13 6 29.5 2.5t23.5 -13.5q20 -28 13 -49q-7 -17 -19 -29q-57 -63 -119 -146t-97.5 -136.5t-102.5 -157.5q-48 -73 -129.5 -210.5t-102.5 -172.5q-17 -29 -79.5 -130.5
t-94.5 -158.5q-24 -44 -51.5 -91t-64.5 -107.5t-54 -89.5q-37 -62 -105 -172.5t-93 -151.5q-31 -50 -92.5 -149.5t-92.5 -149.5q-182 -278 -190 -289q-5 -8 -13 -17t-13.5 -14t-17 -15t-14.5 -13q-31 -28 -66 -18.5t-50 49.5q-11 26 -11 51v90z" />
    <glyph glyph-name="W" unicode="W" horiz-adv-x="1894" 
d="M104 -76q-4 75 29 215q31 128 88 328q16 59 70 219q11 32 44.5 136.5t53.5 160.5q95 273 141 381q56 136 125 268q53 100 97 146q29 29 59 10q33 -23 14 -59q-7 -15 -22.5 -40.5t-18.5 -31.5q-72 -121 -133 -258q-30 -68 -58 -139t-57.5 -154t-47.5 -136.5t-52 -155.5
t-47 -142q-50 -147 -106 -346q-43 -153 -68 -289q-1 -5 -7 -30.5t-6 -31t1 -32.5q0 -11 4 -11q5 0 8 7q109 154 174 264q29 51 90.5 150.5t91.5 150.5q76 127 240 377q87 138 184 258q25 34 72 65q36 19 60.5 9.5t37.5 -39.5q6 -13 7.5 -28t0 -24.5t-6 -26.5t-5.5 -24
q-8 -31 -22.5 -91.5t-23.5 -98t-23 -89.5t-27 -96q-8 -28 -61 -239q-9 -33 -56 -246q-18 -77 -30 -150q-14 -86 -29 -147q-1 -5 -6 -38t-11 -50q-3 -11 -2.5 -43t-7.5 -43q2 -26 -5 -76t-5 -74q1 -19 10 -77q0 -3 3.5 -5.5t6.5 -1.5q27 14 33 21q74 98 105 151
q68 114 120 234q104 225 136 307q16 40 52 119t52 119q18 40 50 120.5t50 120.5q14 30 40.5 90.5t39.5 90.5q24 51 71.5 154.5t70.5 154.5q13 29 46 98t50 107q18 40 53 119.5t53 119.5q5 12 17 41t22.5 49.5t24.5 38.5q10 11 23.5 17t23.5 2q19 -8 29 -24.5t4 -33.5
q-18 -63 -37 -102q-25 -54 -85.5 -187t-94.5 -204q-111 -237 -123 -266q-64 -138 -144 -324q-67 -153 -102 -238q-29 -65 -141 -329q-9 -23 -47 -101q-13 -26 -36 -77t-42.5 -91.5t-38.5 -76.5q-72 -133 -133 -218q-30 -38 -76 -77q-52 -36 -92.5 -26.5t-67.5 58.5
q-13 24 -22 93q-11 69 2 120q4 10 4 33q1 39 26 195q3 21 12 67t11 70q3 20 10 57t10 52q40 172 60 256q8 36 26.5 106t26.5 106q30 106 64 250q8 27 24.5 83.5t24.5 84.5q0 2 -1 5.5t-1 5.5q-5 0 -8 -3q-15 -15 -33 -40q-79 -100 -232 -338q-66 -103 -237 -385
q-18 -29 -55 -90t-59.5 -97t-55.5 -86.5t-62 -91.5q-34 -47 -90 -96q-32 -32 -71 -15q-45 22 -48 68q-1 8 -1 17.5t0.5 20t0.5 13.5z" />
    <glyph glyph-name="X" unicode="X" horiz-adv-x="1454" 
d="M102 -424q6 5 10 12.5t8 20.5t5 16q18 36 40 72t54 84.5t45 68.5q28 42 84 124t84 124t79 118t93 138.5t80 118.5q10 15 14 19q25 25 25 67q-5 250 0 334q4 63 5 190t5 191q1 15 3 81.5t7 102.5q3 27 4.5 82t4.5 82q7 50 8.5 104t0 122t-0.5 102v14q0 24 16 29
q23 8 37 -6q35 -35 39 -68q11 -95 6 -156q-5 -42 -5.5 -121.5t-4.5 -115.5q-5 -41 -5.5 -118t-4.5 -112q-7 -83 -8.5 -187.5t0 -187.5t-0.5 -188v-35q0 -8 2 -8q5 -2 13 6q6 6 12 15q18 30 38.5 58t53.5 69.5t43 54.5q123 153 201 242q27 32 59 67.5t71 78t60 65.5
q129 135 142 147q30 26 87.5 81.5t86.5 82.5q78 70 200 172q4 4 31 20q29 20 51 -8q23 -23 -2 -51q-10 -10 -49.5 -51.5t-56.5 -58.5t-49 -45.5t-60 -49.5l-24 -24q-35 -35 -99.5 -99t-117.5 -117t-99 -100q-61 -64 -129 -145q-13 -15 -75 -88q-39 -45 -113 -135
q-22 -27 -45.5 -58.5t-51.5 -70.5t-44 -60q-37 -47 -121 -162q-15 -21 -15 -47q1 -14 -0.5 -64t2.5 -63q6 -42 6 -121t5 -116q4 -34 4.5 -104t5.5 -107q3 -26 3.5 -85t4.5 -89q4 -28 5 -84.5t5 -85.5q5 -30 6 -89t5 -85q6 -44 6.5 -123.5t1.5 -100.5q1 -10 4.5 -32t5 -38
t0.5 -32q-3 -42 -35 -45q-15 -2 -27.5 6.5t-15.5 24.5q-1 4 -4.5 10.5t-5 11.5t-0.5 10q2 23 -3.5 63.5t-6.5 51.5q-9 134 -19 189q-2 2 -2 8q2 49 0.5 73.5t-6.5 73t-6 72.5q-5 145 -10 184q-3 26 -4 80t-4 80q-5 42 -6 122.5t-5 117.5q-3 24 -8 145q0 4 -4 12
q-4 -2 -10 -8q-64 -95 -190 -284.5t-189 -284.5q-20 -30 -69 -98.5t-74 -106.5q-3 -7 -19 -23q-45 -42 -65 17q-1 1 -4.5 2t-4.5 2v10z" />
    <glyph glyph-name="Y" unicode="Y" horiz-adv-x="1343" 
d="M782 598q-4 -5 -28 -29t-33 -39q-11 -16 -34.5 -40t-27.5 -29q-2 -3 -22.5 -27t-32.5 -35q-14 -12 -50 -46t-58 -50q-42 -33 -90 -55q-62 -32 -125 -12q-19 6 -37 19t-28 25t-26 33q-38 57 -57 160q-15 73 -22 178q-9 76 -7 105q2 33 17 198q10 101 61 310q24 90 72 217
q70 172 113 254q30 61 75 112q4 5 12.5 17.5t12.5 17.5q15 17 31 16t30 -20q13 -13 4 -27q-14 -32 -20 -43q-70 -104 -145 -286q-43 -108 -78 -219q-41 -129 -60 -238q-12 -94 -20 -141q-14 -99 -6 -293q6 -85 18 -148.5t43 -120.5q16 -33 55 -45q11 -5 31 2q56 15 133 84
q95 91 140 140q77 89 147 180q27 34 115 149q5 7 24.5 34l26 36t23.5 33.5t25.5 37t23 34t24 37.5t20.5 35.5t21 37.5q20 42 125 217q66 106 154 228q76 102 133 159q22 19 45 19q28 -2 41.5 -21.5t3.5 -46.5q-10 -24 -33 -63q-27 -38 -83.5 -120t-101 -144t-87.5 -117
q-35 -45 -133 -189q-42 -60 -119 -215q-64 -125 -103 -207q-25 -52 -73 -158.5t-72 -158.5q-87 -193 -139 -315q-7 -19 -22.5 -52.5t-20.5 -44.5q-13 -27 -38.5 -83t-37.5 -83q-14 -31 -74 -157t-92 -195q-14 -29 -39 -86.5t-37 -83.5q-1 -2 -4.5 -9.5t-7.5 -11.5t-10 -7
q-19 -10 -36.5 -4t-18.5 26q-7 32 4 57t48.5 114t59.5 136q56 107 154 326q27 59 79 177l78 177q128 283 154 336q14 28 10 41l8 4q4 4 -4 4q-2 -2 -2 -8z" />
    <glyph glyph-name="Z" unicode="Z" horiz-adv-x="1232" 
d="M1102 1718q-10 0 -28 -0.5t-32.5 -0.5t-27.5 1q-16 1 -47.5 -5t-48.5 -5q-69 4 -97 -8q-26 1 -68 -0.5t-78 -0.5t-67 9q-30 4 -30 18q0 30 24 39q32 13 35 13q19 -1 56 5t55 5t50.5 5t45.5 7q45 4 65 8q118 13 283 9q91 0 170 -43q44 -23 65.5 -72.5t10.5 -99.5
q-22 -96 -101 -218q-58 -91 -168 -229q-93 -117 -178 -217q-26 -31 -77 -96t-78 -97q-22 -28 -66 -78.5t-57 -66.5q-16 -18 -46.5 -55t-45.5 -56q-43 -55 -125 -165q-162 -215 -234 -342q-32 -58 -41 -86q-14 -48 -12 -78q10 -66 90 -92q56 -22 143 -33q26 -4 78 -5t78 -5
q92 -16 174 -7q25 3 74.5 4t88.5 5.5t73 17.5q12 3 28 0q23 -3 30.5 -23.5t-7.5 -39.5q-37 -40 -88 -43q-166 -15 -201 -21h-49q-11 0 -29 0.5t-32 0.5t-27 -1q-29 -2 -61.5 0t-72 6.5t-61.5 5.5q-100 7 -172 37q-108 46 -147 125q-25 59 -8 144q19 77 94 198q60 99 211 299
q10 13 141 172q25 32 76.5 97t77.5 96q13 16 40 46t40 46q24 28 65.5 79.5t56.5 69.5q9 12 58 66q53 63 133 168q85 106 141 188q55 83 90 174q32 93 -73 117q-19 4 -41.5 6t-36.5 2.5t-43.5 0t-38.5 -0.5z" />
    <glyph glyph-name="bracketleft" unicode="[" horiz-adv-x="1003" 
d="M362 -61q-115 0 -172 -2q-13 0 -81 10q-55 14 -43 80q4 21 13 42.5t22 48.5t18 40q23 52 86 233q51 154 82 264q58 185 104 318q16 45 50 134t51 134q19 53 68 171t71 183q3 10 8 31t8 31q6 32 18.5 44t43.5 15q13 1 66 6.5t83 3.5q11 0 51 -10q11 -2 17.5 -9t8.5 -12.5
t5 -17.5q7 -19 -20 -37q-22 -15 -46 -12h-94q-26 -1 -36.5 -9.5t-16.5 -31.5q-22 -67 -100 -254q-20 -49 -82 -215q-80 -213 -117 -332q-12 -39 -47.5 -150.5t-54.5 -172.5q-64 -209 -82 -262q-20 -63 -64 -146q-6 -12 -3.5 -16t16.5 -4q38 0 113 1t112 1h143q20 0 47 -10
q23 -9 28.5 -30t-11.5 -38q-23 -23 -58 -20h-205z" />
    <glyph glyph-name="backslash" unicode="\" horiz-adv-x="874" 
d="M735 215q-29 32 -47 76l-63 129t-64 129q-73 142 -162 350q-106 257 -127 315q-6 17 -59 142q-15 44 -60 159t-65 179q-3 13 -11.5 34.5t-10.5 26.5q-8 15 2 49q6 19 28.5 22.5t34.5 -11.5q15 -15 25 -35q16 -40 45 -120t45 -120q6 -18 41 -106q46 -107 104 -258
q90 -231 289 -666q51 -108 80 -154q9 -14 16.5 -30t16 -36.5t14.5 -31.5q7 -15 4 -25q-2 -4 -3.5 -12.5t-4.5 -14.5t-10 -9q-31 -8 -45 8q-1 1 -2.5 2t-2.5 1.5t-3 2.5t-5 4z" />
    <glyph glyph-name="bracketright" unicode="]" horiz-adv-x="1003" 
d="M641 1729q115 0 172 2q8 0 82 -11q55 -14 43 -80q-4 -21 -13 -42.5t-22 -48.5t-18 -40q-23 -52 -86 -233q-51 -154 -82 -264q-49 -159 -105 -318q-16 -45 -49.5 -134t-50.5 -134q-19 -53 -68 -171t-71 -183q-3 -10 -8.5 -31t-8.5 -31q-6 -32 -18 -44t-43 -15
q-13 -1 -66.5 -6.5t-83.5 -3.5q-11 0 -51 10q-11 2 -17.5 9t-8.5 12.5t-5 17.5q-7 18 21 37q22 15 45 12h94q26 1 36.5 9.5t16.5 31.5q18 55 101 254q20 49 82 215q75 198 116 332q14 44 49.5 153.5t53.5 169.5q64 209 82 262q21 67 63 146q6 12 3.5 16t-15.5 4
q-38 0 -113 -1t-112 -1q-16 0 -46 0.5t-53.5 0.5t-44.5 -1q-20 0 -47 10q-23 9 -28 30t12 38q24 24 57 21h205z" />
    <glyph glyph-name="asciicircum" unicode="^" horiz-adv-x="563" 
d="M500 1497v-14q4 -32 -17 -37q-37 -8 -51 10q-20 26 -20 27q-54 111 -60 125q-5 14 -47 84q-4 11 -12 0q-9 -14 -30.5 -46t-33 -50t-27.5 -45.5t-28 -51.5q-9 -21 -45 -57q-18 -15 -41 -2q-12 6 -20 20.5t-5 24.5q8 31 17 45q27 42 82.5 127t83.5 127q4 6 12 14
q28 31 49.5 29.5t46.5 -35.5q71 -91 117 -213q4 -9 13.5 -26t14 -30t1.5 -26z" />
    <glyph glyph-name="underscore" unicode="_" horiz-adv-x="661" 
d="M236 12q-78 0 -113 2q-3 0 -7.5 -0.5t-7.5 -0.5t-7 1t-7 4q-2 2 -9.5 7t-11.5 8.5t-7.5 10.5t-2.5 15q1 13 11.5 22.5t23.5 12.5q15 3 74.5 21t93.5 16q44 -2 127 2q20 0 65.5 4.5t69.5 3.5q52 -3 68 -45q5 -8 0 -18q-16 -42 -61 -45q-25 -2 -75.5 -6.5t-74.5 -6.5
q-46 -4 -149 -8z" />
    <glyph glyph-name="grave" unicode="`" horiz-adv-x="432" 
d="M362 2073q16 -20 0 -39q-6 -9 -21 -14t-24 1q-10 3 -38 21q-54 35 -177 108q-16 8 -34 33q-9 22 0 41q4 10 20.5 13.5t26.5 -1.5q38 -13 53 -24q100 -67 168 -109q13 -10 26 -30z" />
    <glyph glyph-name="a" unicode="a" horiz-adv-x="1255" 
d="M1409 770q2 -22 -12 -47q-78 -111 -140 -180q-147 -169 -251 -273q-100 -100 -172 -149q-85 -56 -154 -68q-34 -6 -72 11t-59 51q-1 1 -3 4t-3 4q-29 57 -29 121q0 72 18 139q5 11 14.5 35t14.5 35q4 8 4 28v0q6 0 6 4q2 2 0.5 2.5t-4.5 -0.5q-2 -4 -2 -6v0h-2
q-5 -1 -9 -4.5t-8.5 -9.5t-6.5 -8l-72.5 -72.5t-81.5 -79.5q-118 -115 -235 -168q-73 -30 -123 -30q-61 -2 -109.5 34t-62.5 103q-13 74 12 155q47 169 168 322q122 155 260 240q104 66 201 69q67 0 143 -51q48 -31 92 -96l6 -6q1 -2 3 -5.5t3 -5.5q1 -1 2.5 -3t2.5 -3
q25 41 71 123q27 49 72 41l8 -4q27 -23 14 -51q-20 -46 -28 -56q-53 -71 -103 -180q-30 -55 -57 -114q-67 -148 -100 -269q-1 -3 -3.5 -14.5t-3.5 -18.5q-9 -55 -4 -106q0 -11 7 -29q12 -25 26 -32t39 0q50 16 70 30q7 5 30.5 21t33.5 23.5l28 21t31.5 26t25.5 25.5
q8 9 54.5 55t68.5 72q130 144 170 195q82 103 115 153q14 23 41 33q20 7 36.5 -4.5t18.5 -32.5zM543 592q10 12 34 44t42 54t36 41q24 31 13 66q-18 64 -80 110q-52 42 -99 35q-40 0 -51 -4q-113 -38 -243 -168q-47 -47 -82 -96q-115 -156 -154 -291q-16 -66 -12 -100
q6 -79 86 -76q64 3 125 41q128 84 190 149l166 166q3 3 9.5 9t11 11t8.5 9z" />
    <glyph glyph-name="b" unicode="b" horiz-adv-x="962" 
d="M152 700q4 3 9 7.5t11.5 11.5t9.5 10q126 135 264 217q97 51 201 51q70 0 119 -55t51 -125q-5 -125 -76 -270q-46 -97 -161 -221q-81 -86 -197 -154q-31 -17 -74 -31q-3 -1 -12 -3t-14.5 -5t-10.5 -8q-7 -5 -20 -8q-59 -7 -130.5 -4t-127.5 24q-20 7 -30.5 2t-14.5 -26
q-6 -26 -22 -70.5t-19 -54.5q-4 -9 -16 -29t-17 -33q-10 -23 -45 -14q-11 0 -22 7.5t-15 19.5q-6 28 -2 81q6 29 24.5 82t22.5 68q8 33 4 45q-6 14 -0.5 24.5t15.5 12.5q21 12 39 49q4 8 25 50.5t28 66.5q16 43 44.5 128t43.5 128q54 151 78 227q71 208 110 307
q88 239 164 434q1 2 22 47t29 70q4 18 17.5 26.5t27.5 2.5q48 -11 31 -53q-16 -77 -45 -140q-65 -151 -121 -315q-95 -255 -131 -360q-36 -115 -65 -193q-5 -21 -2 -27q-1 -2 -4 -4q-1 0 -1.5 -0.5t0.5 -1.5q-2 -2 1 -3l2 1q1 0 1 1v3t1 4zM240 215q58 10 157 74
q133 92 240 248q16 26 39 79q8 12 14.5 26.5t10.5 24t8.5 29.5t5.5 26.5t5 31.5t5 28q2 6 1.5 19.5t0.5 23.5q2 34 -28 63t-62 23q-65 -3 -121 -26q-117 -61 -229 -170q-113 -121 -219 -285q-11 -20 -21.5 -45t-16.5 -42.5t-16 -48.5t-14 -44q-7 -19 16 -27q46 -10 74.5 -15
t71 -4.5t78.5 11.5z" />
    <glyph glyph-name="c" unicode="c" horiz-adv-x="862" 
d="M-98 348q-2 96 57 252q47 132 143 248q66 77 127 130t133 85q62 31 142 24q51 -6 80 -49q43 -64 34 -143q-1 -19 -15 -31t-34 -14q-20 0 -30 8t-19 29q-5 12 -10 55q0 25 -11 36t-36 11q-43 0 -103 -39q-126 -82 -219 -217q-81 -126 -114 -241q-29 -109 -27 -160
q4 -49 15.5 -84t41.5 -60q23 -20 58 -26q84 -14 190 41q87 48 197 141q33 27 67.5 60.5t78.5 77.5l65 65q27 27 55 56t66 70.5t53 57.5q29 33 63 33q22 -2 35 -19.5t4 -37.5q-15 -33 -33 -54q-131 -149 -301 -309q-132 -129 -252 -203q-104 -67 -206 -84q-124 -19 -213 58
q-44 42 -74 133q-8 26 -8 100z" />
    <glyph glyph-name="d" unicode="d" horiz-adv-x="890" 
d="M596 713q-5 -1 -9 -4t-8.5 -8.5t-5.5 -6.5q-85 -112 -94 -123q-98 -113 -176 -194q-75 -75 -149 -121q-57 -37 -113 -43q-48 -5 -87 20t-56 80q-19 59 4 152q35 161 141 285q100 123 203 182q60 37 147 61q125 37 230 -24q19 -11 27 -9t18 19q81 121 135 211
q67 106 125 205q15 22 61 108q13 26 33 43q11 9 26.5 11.5t26.5 -3.5q26 -18 23 -45q-1 -9 -17 -41q-82 -140 -110 -190q-10 -19 -32 -56.5t-34.5 -60.5t-28.5 -56.5t-26 -62.5q-5 -14 -18 -36.5t-15 -26.5q-51 -104 -133 -322q-45 -121 -111 -325q-53 -164 -104 -367
q-3 -15 -8.5 -43.5t-11 -52t-11.5 -43.5v-4q-6 -37 -41 -43q-13 -1 -28.5 15t-18.5 34q-3 22 0 43q35 191 68 293q9 30 35 115t45 144t39 114q45 123 55 147q2 10 2 29q10 0 10 6q0 8 -2 8q-4 1 -5 -0.5t-1 -5.5v-8zM-14 377v-29q3 -39 41 -39q26 0 47 8q22 10 42.5 23
t42.5 31t34.5 29.5t38 36t34.5 32.5q42 48 45 51q7 8 21.5 23.5t21.5 23.5q50 56 125 154q53 67 90 119q12 15 5 40.5t-31 26.5q-7 1 -20.5 5.5t-21 5.5t-20.5 -3q-13 -5 -35 -5t-30 -3q-127 -40 -191 -100q-161 -143 -211 -285q-30 -81 -28 -145z" />
    <glyph glyph-name="e" unicode="e" horiz-adv-x="835" 
d="M8 369q-6 -61 15 -113q19 -58 79.5 -87t120.5 -19q97 16 226 106q67 48 169 158q38 38 97 116q124 166 143 195q1 1 9 13t10 18q9 17 22 28q17 13 35.5 14t30.5 -10t14 -32t-10 -39q-66 -95 -113 -156q-76 -103 -115 -143q-112 -135 -206 -205q-114 -85 -173 -113
q-128 -57 -227 -39q-164 37 -209 185q-10 33 -15 55t-4.5 53t11.5 58q14 102 60 195t120 192q50 67 119 133q118 105 254 133q53 11 107.5 -14t80.5 -72q30 -76 15 -129q-42 -171 -195 -277q-48 -36 -160 -77q-87 -26 -184 0q-45 13 -67 45q-9 12 -13 10.5t-10 -16.5
q-2 -5 -7.5 -19.5t-8 -21t-7 -20t-6.5 -21.5t-5 -20.5t-3.5 -21.5t-0.5 -20.5t1 -21.5zM221 580q66 -5 141 28q61 27 136 99q71 74 88 155q9 38 -3.5 69.5t-43.5 41.5q-37 12 -76 0q-42 -8 -84.5 -32t-65.5 -43t-69 -60q-34 -29 -82 -97q-5 -7 -30 -40.5t-34 -53.5
q-4 -13 2 -16q8 -5 27 -18.5t30 -20t29 -11.5t35 -1z" />
    <glyph glyph-name="f" unicode="f" horiz-adv-x="612" 
d="M498 1249q108 0 202 -20q19 -4 27 -10q16 -10 23.5 -26t-0.5 -30q-25 -37 -56 -35q-28 1 -80 8t-73 9q-90 11 -154 -2q-16 -4 -25 -4q-38 5 -59 -39q-100 -231 -117 -273q-34 -90 -127 -374q-37 -113 -112 -404q-27 -129 -29 -141q-3 -15 -3.5 -31t0.5 -39.5t1 -32.5
q0 -36 -31 -49q-13 -5 -18 6q-13 19 -10 37q1 11 0.5 74t7.5 72q2 7 1.5 19.5t0.5 19.5q2 58 22 172q16 77 62 239.5t63 249.5q6 29 31 80q11 29 33.5 86.5t41 102.5t36.5 85q33 77 43 97q4 11 0 18q-1 3 -4 3.5t-4.5 0t-5.5 -2t-5 -1.5q-104 -31 -239 -24q-9 0 -11 3
t-0.5 8t0.5 7q-8 35 -1.5 49t36.5 21q11 2 47.5 13t61.5 15t51 2q24 -2 69.5 9t53.5 12q24 2 41 37q64 128 192 295q69 94 205 215q91 81 182 104q82 22 127 -25q20 -23 23 -57q3 -28 -3.5 -61.5t-14 -53t-23.5 -57.5q-3 -8 -12.5 -23.5t-12.5 -23.5q-5 -13 -13 -25
t-14.5 -20t-19.5 -19t-19 -15.5t-22.5 -16.5t-21.5 -15q-4 -4 -8 -4q-8 5 -3 15q9 13 9 20q1 18 -0.5 25.5t3 24.5t5.5 23.5t7.5 22.5t9.5 22t10 22t10 22q33 78 37 102q2 19 0 22t-17 3q-18 2 -47 -10q-69 -33 -141 -101q-46 -41 -115 -118q-22 -27 -44 -56t-52 -70.5
t-41 -56.5q-14 -14 -19 -26q-4 -8 -26.5 -43.5t-28.5 -57.5h107z" />
    <glyph glyph-name="g" unicode="g" horiz-adv-x="878" 
d="M-6 553q2 61 39 147q56 138 178 244q110 92 225 111q99 14 152 -47q8 -7 10.5 -6t5.5 12q17 34 19 53q2 33 36 59q18 18 46 2q37 -26 22 -88q-44 -192 -86 -352q-7 -27 -23.5 -85t-23.5 -89q-14 -53 -32.5 -112t-42 -130t-36.5 -112q-8 -29 -2 -41q16 -26 -12 -47
q-11 -7 -19 -16t-15 -24.5t-8.5 -19.5t-8.5 -24q-30 -88 -92 -226q-41 -94 -103 -184q-62 -85 -137 -135q-85 -55 -164 2q-27 18 -47 76q-18 57 16 139q37 92 105 168q60 69 63 72q149 131 269 196q43 24 55 70q102 319 123 409q19 75 35 119q2 10 2 29q0 4 -2 4q-3 6 -6 0
q-13 -26 -49 -61.5t-46 -49.5q-24 -29 -100 -92q-75 -59 -143 -88q-41 -18 -84 -18q-54 0 -84 30t-35 84v21zM90 565q0 -14 2 -20q0 -22 3.5 -25.5t25.5 -3.5q18 0 33 6q69 23 155 101q138 125 226 262q17 28 15 39t-28 30q-39 23 -84 11q-67 -16 -141 -70
q-124 -91 -191 -254q-20 -51 -16 -76zM0 -498q3 1 8 4.5t8 4.5q69 23 131 116q49 69 121 234q7 18 20.5 49t16.5 39q5 9 0 14q-7 3 -14 0q-1 -1 -3 -4t-3 -4q-119 -74 -217 -186q-95 -103 -109 -195q-2 -21 5.5 -40t21.5 -26q2 -2 14 -6z" />
    <glyph glyph-name="h" unicode="h" horiz-adv-x="854" 
d="M463 1538q0 -4 8 -8q25 -19 28.5 -33t-10.5 -39q-17 -33 -50.5 -99t-49.5 -99q-12 -24 -100 -216q-77 -164 -164 -362q-14 -33 -42 -97.5t-42 -97.5q-17 -42 -33 -65q-2 -5 -2 -29q-8 0 -12 -6q0 -6 2 -6q6 -6 6 4q2 2 2 8q11 6 20 15.5t19 22.5t14 18q92 101 113 124
q67 71 98 97q30 24 43 34t38.5 24.5t49.5 21.5q1 0 10 3t11 3.5l10 2.5t11.5 2h10.5t13 -2t12 -5q37 -16 47 -45q21 -48 17 -74q-9 -97 -15 -129q-4 -27 -6.5 -57t-4.5 -69.5t-3 -55.5q0 -2 1 -7.5t1 -7.5q3 -9 11.5 -11t17.5 5q56 44 73 68q24 24 47.5 52t53.5 66t45 56
q78 97 149 213q12 17 35.5 20.5t40.5 -8.5q12 -10 12 -31q0 -31 -18 -61q-107 -149 -229 -295q-14 -16 -42 -50t-44 -52q-66 -66 -129 -78q-29 -7 -58 6t-43 39q-23 50 -20 98q5 119 12 156q12 92 14 129q0 16 2 24q-3 9 -12 14t-18 1q-54 -30 -58 -33q-80 -71 -151 -154
q-16 -18 -49.5 -54t-49.5 -54q-81 -91 -139 -180q-19 -30 -112 -195q-5 -6 -12.5 -17t-14.5 -20t-14 -16q-35 -41 -74 -10q-14 8 -14 28q-2 34 20 88q13 31 53.5 126t63.5 147q14 31 55.5 123t63.5 143q18 40 50.5 114.5t45.5 104.5q69 154 110 240q90 191 160 315
q23 38 58 119q17 39 47 55q6 0 10 -2z" />
    <glyph glyph-name="i" unicode="i" horiz-adv-x="620" 
d="M-123 246q0 105 53 248q70 174 107 241q47 84 145 252q27 49 72 41q26 -3 29 -27q0 -28 -15 -55q-10 -17 -39 -69t-47 -80q-39 -58 -92 -174q-70 -147 -100 -269q-19 -71 -13 -139q0 -13 7 -27q14 -27 27 -33.5t38 1.5q37 9 72 30q108 74 147 115q14 14 58.5 57.5
t66.5 69.5q21 25 79.5 91t88.5 104q91 114 115 153q14 22 43 33q18 7 35 -4.5t20 -32.5q0 -24 -14 -45q-68 -100 -137 -180q-147 -168 -254 -273q-95 -98 -172 -151q-84 -56 -152 -68q-37 -6 -77 13.5t-60 56.5q-31 55 -31 121zM389 1145q0 -25 -22.5 -47t-47.5 -21
q-24 0 -41.5 18t-15.5 42q0 26 22.5 47.5t47.5 19.5q26 -1 41.5 -18.5t15.5 -40.5z" />
    <glyph glyph-name="j" unicode="j" horiz-adv-x="393" 
d="M-659 -346q9 73 53 156q60 106 180 198q95 77 201 142q70 45 78 49q6 3 10.5 8t8 12t5.5 11.5t5.5 13.5t4.5 12q2 6 74 236q4 14 33.5 119t46.5 161q7 22 22.5 66t22.5 67q22 58 29 92q7 26 20 45q17 15 34 11.5t28 -23.5q13 -21 8 -33q-10 -19 -13.5 -55t-9.5 -53
q-58 -190 -59 -195q-13 -41 -27 -87t-30 -101t-25 -86q-19 -59 -31 -86q0 -8 2 -8q2 -7 13 -2q17 14 49.5 41t48.5 41q11 11 31.5 30.5t37.5 35.5t33 30q80 71 197 229q7 9 23.5 26.5t21.5 22.5q11 9 27.5 10t27.5 -6q27 -19 19 -45q-3 -21 -17 -39q-29 -31 -82 -99t-82 -99
q-102 -106 -165 -160q-17 -14 -52 -43.5t-56.5 -47t-53 -41t-60.5 -40.5q-27 -21 -39 -55q-45 -98 -73 -166q-49 -108 -111 -207q-59 -112 -149 -182q-67 -60 -129 -62q-80 -3 -115 66q-16 33 -16 90zM-197 43q-2 7 -8 4q-10 -3 -19 -8t-20 -14.5t-14 -12.5
q-120 -76 -195 -151q-93 -90 -114 -215q-5 -40 16 -52q19 -13 41 0q6 4 21 11t22 14q67 60 102 109q82 123 156 280q1 3 5 15.5t7 19.5zM250 1176q-2 -30 -21 -48t-45 -14q-17 0 -31 19.5t-12 37.5q0 20 23 40.5t45 19.5q44 -7 41 -55z" />
    <glyph glyph-name="k" unicode="k" horiz-adv-x="864" 
d="M-223 125q11 3 11 18.5t1 18.5q7 15 21.5 50.5t23.5 53.5q18 38 105 223q98 208 145 312q23 49 62.5 139t54.5 123q20 45 59.5 134t58.5 134q63 144 109 256q5 10 9.5 30.5t6.5 27.5q10 29 39 32q29 6 45 -20q12 -20 4 -53q-33 -122 -67 -193q-28 -62 -78 -176t-65 -148
q-23 -51 -67.5 -153.5t-66.5 -153.5q-1 -3 -4 -7t-4 -7q-7 -28 -6 -29q8 -3 10.5 -2.5t8.5 7.5t8 8q41 24 113 77.5t87 63.5q31 21 93 64.5t94 64.5q35 22 61 -4q27 -26 2 -51q-33 -33 -51 -45q-58 -39 -125 -93q-82 -60 -133 -104q-18 -15 -58 -38.5t-57 -39.5
q-4 -4 -12 -8q-42 -34 -52 -62t-3 -88q13 -89 69 -145q44 -44 117 -27q84 22 203 107q96 66 192 153q114 103 168 183q17 28 37 39q1 1 5 3.5t5.5 3.5t5.5 3t6.5 2.5t6 0.5t7 -1.5t7.5 -3.5q27 -13 27 -41q0 -34 -17 -53q-6 -7 -28 -37.5t-37 -46.5q-18 -17 -63 -62.5
t-70 -68.5q-153 -136 -285 -215q-52 -30 -135 -62q-84 -30 -166 6q-58 23 -104 99q-48 79 -50 145q-4 4 -4 6q-8 -4 -8 -6q-4 -8 -13.5 -24t-14.5 -26t-12 -24.5t-11 -27.5q-10 -26 -45 -95q-8 -17 -22 -48.5t-26 -56.5t-26 -46q-30 -37 -31 -37q-21 -20 -32 -19t-33 25
q0 4 -6 4v31z" />
    <glyph glyph-name="l" unicode="l" horiz-adv-x="700" 
d="M-39 -92q-44 -5 -78.5 31t-40.5 94q-1 5 -1 15t-1 18t-4 14q-4 14 4 29q9 15 6 32q1 18 5 38.5t8 35t10.5 37.5t9.5 35q30 114 121 334q54 134 178 346q68 121 172 260q92 118 133 166q69 75 191 180q43 43 147 102q36 19 80 19q45 0 66 -33q22 -34 6 -82
q-29 -82 -101 -172q-66 -83 -116 -133q-140 -147 -234 -223q-6 -4 -82.5 -68.5t-122.5 -87.5q-9 -6 -27 -22t-26 -21q-2 -2 -10 -10.5t-11.5 -12t-10.5 -8.5t-13.5 -8t-13.5 -4q-5 -1 -9 -2.5t-6.5 -5t-4 -6.5l-4 -8l-3.5 -7q-96 -195 -147 -334q-56 -158 -70 -227
q-26 -105 -29 -147q-2 -14 7 -45q8 -22 17.5 -28.5t27.5 -0.5q62 21 82 37q128 92 227 194q10 11 51.5 55t63.5 70q219 255 249 293q15 20 48.5 57.5t48.5 57.5q19 22 43 22t39 -20q14 -23 0 -51q-4 -5 -15 -22.5t-18 -24.5l-189 -222q-75 -85 -141 -151q-10 -12 -30 -35
t-32 -37t-30.5 -33.5t-34.5 -35.5q-10 -9 -43.5 -39.5t-49.5 -45t-43.5 -36.5t-51.5 -39q-70 -54 -113 -70q-5 -2 -16 -5.5t-18 -5.5t-16.5 -4t-17.5 -1.5t-16 2.5zM319 1012q2 2 9 2q20 21 61 53t53 43q25 23 76.5 68t82 72.5t71.5 68.5t73 78l54 61.5t43.5 58.5t40.5 74
q5 10 4 11q-2 7 -13 2q-38 -15 -126 -76q-80 -64 -201 -199q-67 -73 -185 -237q-7 -9 -21 -34t-24 -38q-1 0 -0.5 -1l1.5 -3t1 -4z" />
    <glyph glyph-name="m" unicode="m" horiz-adv-x="1353" 
d="M465 1018q-9 -8 -28.5 -22.5t-33.5 -27t-24 -26.5q-13 -17 -51 -65t-57 -72.5t-46.5 -64.5t-46.5 -74q-42 -71 -85 -153t-93 -180.5t-80 -154.5q-9 -23 -14 -31q-22 -42 -37 -50q-17 -9 -39 1q-15 6 -22 16t-6 23.5t4 23.5t10 25q101 238 391 908q24 55 63 39
q25 -11 25 -33.5t-12 -42.5q-48 -109 -70 -189q40 51 57 68q82 86 127 123q66 58 121 26q53 -28 45 -116q-8 -90 -18 -135q-55 -217 -66 -271q9 16 27 41q29 39 94.5 127t115.5 153.5t99 125.5q33 44 127 98q57 31 102.5 7.5t51.5 -87.5q9 -90 -13 -180q-16 -59 -145 -473
q-12 -35 -33 -102.5t-26 -84.5q3 -1 8 -4.5t6 -3.5q7 6 22.5 18t24.5 19t21.5 18.5t21.5 22.5q67 78 142 167.5t165.5 197t141.5 168.5q3 5 8.5 14t10 14.5t9.5 9.5q43 21 56 11q12 -8 12 -56q1 -4 -1 -7.5t-7 -9t-7 -7.5q-410 -494 -471 -565q-50 -56 -122 -99
q-52 -30 -91 -6t-36 84q4 58 36 168q22 70 75.5 229.5t80.5 245.5q22 69 29 180q3 35 -12.5 44t-43.5 -13q-99 -77 -155 -141q-190 -218 -373 -578q-15 -28 -41 -82t-37 -75q-22 -42 -37 -51q-17 -10 -39 -1q-7 3 -12.5 6.5t-9 8.5t-5.5 9t-2 10.5t-0.5 10t1.5 11.5t3 11
t3.5 12t3.5 11q18 59 58 184t59 191q28 89 98 359q3 15 4.5 43t3.5 39q-3 2 -8 6t-8 6z" />
    <glyph glyph-name="n" unicode="n" horiz-adv-x="1044" 
d="M147 805q12 14 37 45t40 49t38.5 42.5t44.5 43.5q121 110 213 137q60 16 109 -2q48 -19 65 -73q39 -106 17 -199q-4 -17 -7 -50.5t-4 -39.5q-16 -117 -49 -264q-1 -3 -12 -97q-1 -5 -5 -37.5t-3.5 -38t0.5 -38.5v-25q-4 -30 16 -43q17 -10 41 14q9 9 29.5 23t34.5 28
t22 31q47 50 122.5 153.5t96.5 129.5q40 50 137 192q22 32 58 29q15 -3 22.5 -14.5t3.5 -26.5q-5 -20 -8 -26q-47 -72 -145 -216q-68 -95 -127 -170q-2 -3 -18.5 -24.5t-21 -27t-18.5 -23.5t-21.5 -26.5t-20 -22t-23.5 -24.5t-23 -21q-23 -23 -55 -48q-44 -27 -108 -20
q-37 6 -58 41q-28 40 -26 72q1 8 -5 26t-4 29q5 30 15 109t20 122q17 74 25 138q3 24 12.5 76t11.5 79q12 128 -6 191q-4 13 -5.5 18.5t-9 9t-9 3.5t-19.5 1q-24 0 -47 -10q-72 -35 -139 -96q-137 -134 -244 -318q-27 -46 -71.5 -135.5t-63.5 -124.5q-1 -2 -4.5 -11.5
t-7.5 -14.5q-12 -22 -33 -26.5t-41 9.5q-14 11 -14 25q1 8 0.5 21t0.5 23t5 19q16 45 50.5 152t55.5 164q23 60 31 90q9 35 42.5 95t43.5 93q5 20 19 27q33 13 49 2q26 -20 14 -51q-8 -21 -53 -123q-13 -31 -10 -47q-7 0 -9 -2q-2 -5 1 -5q2 0 3 1q0 1 1 3.5t1 4.5z" />
    <glyph glyph-name="o" unicode="o" horiz-adv-x="937" 
d="M1077 778q-26 -42 -69.5 -83.5t-70 -61t-87.5 -62.5q-63 -44 -227 -122q-38 -18 -58 -54q-94 -143 -209 -223q-101 -66 -200 -53q-59 10 -95 37q-67 55 -88 151q-3 15 -4 31.5t-0.5 29t3.5 31t5.5 27.5t7.5 30t7 29q1 4 4 14t4 15.5t2 14.5t0 17t-4 17q-4 13 -5 27t2 32
t5 26.5t8 29.5q43 143 178 252q81 62 164 90q113 36 217 -6q87 -36 115 -146q31 -106 -14 -256q-1 -8 -11 -32q-1 -4 0.5 -6t3.5 -2t3 1q14 3 22 9q170 102 258 170q1 0 22 19.5t35 25.5q9 6 21 12q20 11 28.5 9.5t26.5 -21.5v-19zM274 463q56 4 86 8q27 4 56 12t66 19
t55 16q22 9 28 23q43 90 49 194q0 10 -4.5 27t-5.5 24q-6 62 -37 123q-8 19 -28 29q-30 17 -64.5 22t-61.5 1.5t-65 -13.5q-5 -1 -41 -16q-13 -7 -32.5 -24.5t-26.5 -22.5q-100 -81 -144 -205q-1 -5 -6 -19.5t-6 -20.5t2 -19q5 -11 10 -48q3 -46 22.5 -67.5t66.5 -32.5
q20 -5 81 -10zM63 358v-30q3 -87 91 -121q48 -18 120 8q24 10 46 23.5t44.5 33t35.5 32t39 39t34 34.5q6 6 2 14q-2 2 -14 2q-97 -30 -160 -28h-74q-81 0 -143 45q-18 12 -18 -9q-3 -21 -3 -43z" />
    <glyph glyph-name="p" unicode="p" horiz-adv-x="1011" 
d="M100 606q0 -2 -1.5 -0.5t-0.5 2.5q0 4 4 4q0 -4 -2 -6zM874 1055q25 -124 -26 -287q-28 -97 -113 -240q-59 -101 -162 -188q-96 -83 -200 -117q-45 -18 -68 -20q-139 -11 -217 55q-5 4 -15.5 12.5t-15.5 12.5q-18 13 -22 11t-15 -24q-90 -194 -227 -616
q-14 -42 -50.5 -131.5t-51.5 -138.5q-2 -8 -20.5 -61.5t-22.5 -82.5q0 -8 -6.5 -24.5t-6.5 -18.5q-7 -16 -24 -23.5t-31 -2.5q-32 11 -20 55q19 75 88 287q69 225 86 284q3 10 10 30t10 30q14 42 40.5 126t39.5 126q51 145 66 196q33 109 72 224.5t93.5 272t77.5 222.5
q49 144 84 199q13 23 52 133q9 32 20 43q17 22 37.5 20.5t34.5 -24.5q2 -4 2 -7.5t-1 -7.5t-1 -6q-1 -22 -17.5 -57.5t-19.5 -46.5q-4 -12 -13.5 -33.5t-13.5 -32.5q-44 -103 -108.5 -299.5t-96.5 -277.5q0 -2 1 -6.5t1 -6.5q9 4 15 13t11.5 22.5t8.5 18.5q72 122 193 270
q117 140 246 221q70 45 147 45q63 3 109 -57q30 -35 40 -92zM98 608q0 -1 2 -2q2 2 2 6q-4 0 -4 -4zM750 743q54 138 45 228q3 11 4 21.5t-1.5 21.5t-4.5 19t-6.5 21t-6.5 19q-20 53 -80 47q-7 0 -14.5 -1.5t-13.5 -3t-13.5 -5t-12 -5t-13 -6t-11.5 -6.5t-12.5 -7.5
t-11.5 -6.5q-105 -65 -197 -178q-124 -151 -200 -278q-16 -28 -113 -207q-15 -25 -14 -31q3 -9 22 -33q2 -4 15 -12q34 -30 77.5 -40.5t104.5 -8.5q4 -2 10.5 1t15.5 8t15 7q82 21 170 88q65 50 147 162q60 84 99 186z" />
    <glyph glyph-name="q" unicode="q" horiz-adv-x="806" 
d="M520 1128q2 -5 4.5 -6t8 -1t8.5 -1q51 7 84 -24q25 -21 41 -27q21 -7 28 -20t2 -37q-3 -21 -10 -47q-71 -186 -160 -324q-11 -18 -77 -131q-7 -12 -62 -131q-52 -126 -72 -180q-6 -17 -21.5 -55t-21.5 -58q-12 -30 7 -57q42 -64 59 -156q1 -6 8 -29.5t8 -36.5
q1 -27 -0.5 -77t-1.5 -68q-3 -115 -35 -244q-20 -103 -84 -176q-27 -31 -69 -41q-42 -13 -80 25q-37 33 -37 65q0 10 -8.5 27t-7.5 25q5 11 2 50t-2 50q22 190 51 307q9 38 28.5 106.5t26.5 96.5q19 63 70 203q9 25 27.5 71.5t21.5 53.5q9 9 0 12q-3 1 -4 1t-3 -2l-3 -3
q-81 -63 -148 -70q-37 -3 -71.5 18.5t-55.5 55.5q-40 65 -24 188q19 155 123 314q35 52 53 75q109 128 223 193q3 2 21 11.5t23.5 12.5t21.5 10.5t25.5 10t23 6t26.5 4.5q7 -2 10.5 0t2.5 8q6 2 20 2zM520 1030q-5 -1 -13.5 -1t-15.5 -1t-12 -4q-106 -43 -168 -98
q-106 -84 -174 -193q-88 -137 -102 -268q-9 -77 6 -111q30 -61 84 -39q77 35 137 105q9 11 44 55.5t54 67.5q24 29 39 65q31 71 133 275q6 14 19 40.5t18 37.5q15 31 -8 61q-5 10 -12.5 11.5t-16 -1.5t-12.5 -2zM266 -201q0 40 -35 127q-1 6 -4 6q-4 3 -5 -3l-1 -3
q-18 -37 -45 -151q-37 -159 -43 -209q-12 -106 -12 -162q0 -53 2 -82q4 -27 22 -35q6 -3 12.5 0t13.5 9t11 8q6 6 6 8q3 6 20 39.5t23 52.5q20 78 31 143q15 146 4 252z" />
    <glyph glyph-name="r" unicode="r" horiz-adv-x="772" 
d="M258 985q3 -18 -10 -37q-15 -26 -25 -61q-17 -60 -61 -139q-4 -11 0 -13q3 -3 10 4q76 76 119 109q8 6 33.5 25t35.5 26t33 23t37.5 24t35.5 19t40.5 18.5t40.5 13.5q59 15 117.5 -13.5t78.5 -84.5q5 -19 -10 -34t-35 -11q-3 1 -11 3t-12.5 3t-10.5 4t-9 6q-64 57 -157 4
q-161 -88 -297 -247q-113 -130 -199 -285q-41 -74 -88 -215q-9 -24 -24.5 -66.5t-28.5 -77.5t-27 -65q-23 -43 -49 -41q-37 3 -53 45q-2 8 -2 23q5 23 12.5 45.5t21 54.5t17.5 43q16 41 46.5 123t45.5 123q40 115 80 209q27 65 133 286l18 39t19.5 42.5t19 38.5t23.5 40
q9 18 18 27l6.5 6.5t7.5 6t7.5 4t9 2t10.5 -2.5q21 -9 27 -17.5t6 -29.5z" />
    <glyph glyph-name="s" unicode="s" horiz-adv-x="884" 
d="M-39 -147q7 9 10.5 20t6 25t4.5 20q28 70 90 160q22 31 53.5 67t48 53t64.5 64.5t55 54.5q13 13 14 13q3 2 10.5 6t11.5 8.5t5 11.5q3 27 -4 47q-53 122 -146 189q-58 41 -90 96q-27 51 -8 111q32 113 160 194q9 5 28.5 15.5t28.5 15.5q58 33 170 29q41 -1 76 -39t33 -78
q-3 -29 -27 -39q-25 -11 -45 6q-6 4 -14 12q-4 3 -16.5 20t-28.5 21q-42 10 -97 -8q-80 -28 -157 -119q-17 -19 -29 -65q-4 -22 20 -51q8 -11 18.5 -20.5t27.5 -21.5t22 -16q98 -69 139 -168q2 -6 8 -14.5t7 -11.5q12 -24 19.5 -25t27.5 17q40 36 170 129q135 99 334 217
q46 25 77 -2q12 -10 13.5 -18t-4.5 -25q-11 -27 -43 -45q-147 -83 -324 -207q-39 -27 -110 -79.5t-93 -68.5q-38 -27 -35 -73q9 -105 -55 -252q-63 -150 -168 -246q-70 -63 -139 -68q-46 -2 -71 16.5t-38 63.5q-4 8 -10 8v50zM344 203v12q0 2 1 6t0.5 7t-3.5 5q-3 1 -5 -0.5
t-5 -5t-4 -4.5q-49 -47 -71 -69t-58 -63t-62 -77q-69 -94 -86 -174q-6 -40 31 -37q6 1 13.5 5t8.5 4q52 21 113 102q43 56 88 160q29 63 39 129z" />
    <glyph glyph-name="t" unicode="t" horiz-adv-x="372" 
d="M555 1339h-127q-21 0 -31 -18q-69 -145 -80 -174q-76 -191 -124 -340q-24 -74 -90.5 -255.5t-96.5 -281.5q-12 -39 -64 -222t-63 -222q-2 -5 -4 -13.5t-4 -14t-5.5 -12.5t-8.5 -13q-18 -18 -25.5 -19.5t-28.5 8.5q-38 18 -28 58q11 36 32 107.5t33 107.5q13 42 52 174.5
t74.5 249.5t53.5 174q72 242 173 483q17 38 44 107.5t35 89.5q3 9 0 13t-12 3q-15 -1 -27.5 0t-27.5 -1t-27 -7q-7 -3 -16 -3t-20 1.5t-17 1.5q-99 -5 -111 -8q-50 -13 -77 33q-11 23 6 40q26 26 51 23q39 -2 59 -0.5t60 6.5t61 6q22 1 65 4.5t64 4.5q22 3 33 28
q18 42 29 63.5t33 53t48 51.5q20 15 35 45q50 97 58 117q5 12 13.5 17.5t14.5 6t19 0.5q21 0 37 -26q9 -12 -5 -35q-23 -45 -70 -136t-71 -136q-16 -31 -13.5 -36t36.5 -5h178q37 0 59 -25q23 -23 2 -47q-27 -27 -55 -27h-129z" />
    <glyph glyph-name="u" unicode="u" horiz-adv-x="1132" 
d="M526 358q1 25 -0.5 34t1.5 33.5t3.5 32.5t4.5 32t5.5 32l6 32t6.5 32q33 142 49 184q7 11 0 18q-4 2 -5 1t-4 -4.5t-5 -4.5l-2 -2q-22 -29 -68.5 -88.5t-68.5 -89.5q-140 -191 -197 -256q-43 -52 -94 -80q-59 -35 -104 -18t-66 76q-36 94 -15 194q3 17 9 60t12 67
q44 152 102 248q22 33 35 63q2 8 12.5 20.5t12.5 14.5q18 18 41 8q26 -11 26 -36q-1 -3 -1 -9.5t-1 -11t-4 -8.5q-6 -12 -22 -53t-29 -62q-61 -110 -84 -227q-19 -90 -19 -172q3 -31 11 -51q14 -41 51 -19q41 21 76 68q46 56 110 145q23 32 49 66.5t59 77t50 65.5
q98 124 195 242q12 15 17.5 21t19.5 12.5t30 3.5q38 -3 41 -39q-1 -16 0 -20.5t-3.5 -20t-5.5 -19.5t-7.5 -18.5t-7.5 -18.5q-67 -158 -111 -354q-32 -139 -23 -270q1 -7 11 -37q24 -80 98 -39q64 37 115 104q42 52 200 267q129 172 144 194q4 6 14 13.5t14 11.5q12 16 43 0
q21 -8 21 -33q0 -22 -19 -49q-15 -21 -45.5 -62t-46.5 -61q-19 -25 -65 -87t-72 -95q-16 -20 -47.5 -61t-51 -65t-49.5 -56.5t-59 -57.5q-79 -68 -162 -63q-50 3 -82 43q-46 51 -49 131q-1 12 -1 24.5t0.5 26.5t0.5 20z" />
    <glyph glyph-name="v" unicode="v" horiz-adv-x="722" 
d="M4 350q-2 62 -2 79t6.5 77t7.5 76q1 28 3.5 79.5t3.5 75.5q2 57 18 158q2 13 5 36t5 36q3 19 19 39q19 20 39.5 15t31.5 -32q18 -43 6 -90q-6 -21 -6 -41q4 -62 -12 -180q-18 -139 -18 -418q0 -4 1 -10.5t1 -9.5q0 -11 4 -11q1 0 8 7q13 22 55 90q34 57 96.5 174.5
t96.5 175.5q21 36 58 104t54 97q2 4 12 21t13 22.5t12 20t14 21.5t13.5 19.5t15.5 20t16.5 17t18.5 17.5q34 25 51 27q26 5 45 -21q4 -6 4.5 -12t-0.5 -9t-5.5 -11t-4.5 -9q-3 -7 -13 -17t-13 -15q-40 -57 -107 -172l-147 -258q-7 -12 -82 -154q-56 -114 -129 -219
q-7 -11 -16.5 -21.5t-24.5 -24.5t-19 -18q-29 -26 -64.5 -18t-49.5 43q-13 30 -13 43q0 21 -6.5 83.5t-1.5 96.5z" />
    <glyph glyph-name="w" unicode="w" horiz-adv-x="1173" 
d="M2 322q-2 62 27 198q7 29 20 98.5t23 106.5q8 29 18 80t21 93t28 77q-2 11 1 21.5t11.5 25t10.5 20.5q7 17 23.5 23t29.5 -2q33 -15 21 -53q-9 -18 -9 -27q1 -21 -2 -42.5t-9.5 -53t-8.5 -41.5q-9 -45 -30.5 -127t-26.5 -105q-30 -127 -37 -178q-1 -11 -7 -49t-6.5 -49.5
t0.5 -50.5q3 -15 9 -33q5 -14 15 -6q2 1 3 2q13 14 26.5 32t21.5 30t23 36t21 33q85 145 148 235q23 33 75 78q22 18 55.5 9.5t47.5 -35.5q6 -12 11 -27t6.5 -24t4.5 -29.5t4 -26.5q9 -49 23 -88q13 -38 42 -44.5t60 20.5q49 39 90 112q22 36 61 109.5t60 109.5
q13 23 52 99.5t65 115.5q9 18 25 31q27 19 49 2q20 -15 24 -28t-6 -33q-51 -109 -74 -146q-14 -23 -37 -63.5t-30 -52.5q-11 -20 -32.5 -58.5t-34.5 -62t-32.5 -56t-37.5 -59.5q-48 -74 -95 -102q-47 -32 -94 -35q-63 -6 -106 49q-57 70 -70 176q0 15 -6 16q-6 2 -16 -8
q-17 -28 -37 -59.5t-44.5 -68.5t-37.5 -58q-77 -128 -118 -177q-20 -23 -40 -42q-33 -26 -76 -29q-44 0 -65 41q-28 49 -31 98v52z" />
    <glyph glyph-name="x" unicode="x" horiz-adv-x="688" 
d="M100 623q-8 12 -8 22q-30 136 -33 168q-2 25 -8 76.5t-8 77.5q-1 19 6 55t8 45q4 24 4 43q3 17 14.5 28t26.5 11q16 0 27.5 -11.5t11.5 -29.5q-2 -41 5 -114t8 -99q0 -23 3 -48.5t8 -57t7 -48.5q0 -5 10 -10q5 -2 6 -1t1 5.5t1 5.5q106 123 183 185q54 45 143 112
q19 15 31 13q8 -1 15 0t14 -3t12 -14q7 -18 6 -29t-14 -22q-69 -65 -99 -88q-142 -107 -256 -258q-9 -12 -11 -25.5t-1 -20t8 -25t8 -21.5q26 -80 113 -299q3 -6 6 -18.5t6 -18.5q13 -22 -12 -43q-28 -28 -57 -2q-5 5 -10 10.5t-9 10t-8 12t-6.5 11.5t-6.5 12.5t-5.5 12
t-5.5 13t-5 12.5q-67 167 -86 217q-8 19 -18 4q-7 -11 -21.5 -33t-21.5 -34q-8 -14 -42.5 -78.5t-48.5 -91.5t-37 -76t-40 -90q-2 -7 -10.5 -18t-9.5 -13q-9 -18 -24 -24.5t-28 -0.5q-12 4 -20.5 25t-3.5 35q8 29 24 67q69 164 176 336q9 14 32.5 51t37.5 58q14 19 12 31z
" />
    <glyph glyph-name="y" unicode="y" horiz-adv-x="845" 
d="M33 606q-1 26 1.5 53.5t7.5 65t7 53.5q4 35 14 71t27 85t23 70q11 42 51 79q23 16 41 7q24 -12 24 -33q0 -42 -8 -62q-67 -169 -88 -286q-6 -34 -10 -107q-3 -57 18 -127q6 -21 21 -39q33 -36 78 -16q29 13 67 47q101 97 152 172q55 92 59 98q100 174 178 336q7 17 29 39
q15 17 49 8q10 -1 17.5 -14.5t9.5 -28.5q0 -11 -15 -41q-70 -138 -92 -184q-75 -161 -131 -334q-15 -47 -61.5 -198t-75.5 -232q-49 -135 -121 -240q-37 -54 -100.5 -95.5t-128.5 -53.5q-59 -12 -123 18q-20 9 -25 27t6 33q18 19 41 14q112 -27 197 49q83 75 135 199
q45 110 113 323q21 79 35 109q5 16 -2 18q-3 1 -8 -3t-7 -7q-7 -11 -15 -21t-19 -21l-17.5 -17.5t-21 -18t-19.5 -15.5t-22.5 -17t-20.5 -15q-46 -35 -106 -35q-63 -3 -103 50q-66 95 -61 182v55z" />
    <glyph glyph-name="z" unicode="z" horiz-adv-x="870" 
d="M287 1128h-187q-37 0 -49 31q-6 12 -2 27.5t14 21.5q31 21 64 21q30 -1 112 -0.5t113 -1.5q18 0 51 6t50 6q60 -4 102 6q46 11 80 -4q29 -15 35 -33t-8 -47q-11 -17 -13 -18q-70 -70 -106 -117q-35 -47 -109 -141q-27 -41 -39 -56q-7 -8 -6 -11.5t12 -2.5q37 0 58 -18
q15 -13 12.5 -29t-22.5 -23l-10 -5t-13 -3q-15 2 -43.5 -4.5t-42.5 -5.5q-18 0 -35 -14q-14 -14 -26.5 -30.5t-27.5 -39.5t-22 -33q-74 -105 -180 -266q-31 -49 -29 -84q4 -32 29 -35q29 0 43 4q67 20 154 78q124 79 284 205q18 14 55 40.5t54 41.5q7 6 22.5 11.5t20.5 8.5
q17 8 39 -10q13 -13 4 -35q-18 -43 -51 -69q-3 -3 -94 -76q-6 -5 -195 -145q-47 -36 -131 -86q-12 -6 -45.5 -24t-52.5 -26q-89 -28 -152 -6q-35 12 -57 42t-25 67q-3 63 27 121q59 106 139 213q13 19 39.5 56.5t40.5 57.5q11 18 6 22q-4 4 -12 5q-11 2 -31 14
q-22 15 -20.5 37.5t24.5 34.5q39 21 94 18q35 -5 60 31q22 30 60.5 84t71 98t64.5 80q1 1 3.5 3t3.5 3q-12 6 -13 6q-41 -2 -123 -2h-69z" />
    <glyph glyph-name="braceleft" unicode="{" horiz-adv-x="995" 
d="M893 1886q19 -3 30 -16.5t9 -30.5q-1 -20 -15.5 -31.5t-33.5 -9.5q-35 0 -49 -4h-3q-7 -1 -16.5 -4t-13.5 -4h-2q-16 -8 -31 -17q-50 -26 -96 -81q-56 -71 -86 -183q-83 -286 -256 -467q-58 -61 -103 -92q20 -8 49 -22q48 -26 72 -64q28 -52 17 -106q-44 -243 -52 -418
q-15 -337 80 -461q42 -57 115 -63q20 -1 32.5 -15t10.5 -33q-1 -19 -14.5 -31t-30.5 -12h-4q-112 9 -183 101q-114 147 -96 518q7 174 53 432q9 43 -43 72q-50 30 -114 39q-16 4 -17 4q-18 4 -27.5 15.5t-11.5 20t0 11.5q0 15 10.5 28.5t30.5 16.5q8 1 28.5 12.5t59.5 42
t78 72.5q157 170 230 424q40 136 104 215q50 67 127 108q60 28 111 35h10h27q8 0 12 -2v0h2z" />
    <glyph glyph-name="bar" unicode="|" horiz-adv-x="309" 
d="M70 166q-9 40 -9 88t1 144.5t1 144.5q-2 111 11 385q21 302 26 340q4 29 7 84t4 67q5 45 15.5 168.5t20.5 190.5q6 34 9 65q0 17 22 43q13 12 35.5 6t28.5 -24q7 -24 4 -43q-12 -124 -27 -254q-1 -19 -4 -57t-4 -58q-4 -65 -23 -276q-20 -243 -36 -725q0 -135 4 -174
q3 -23 -2 -109q0 -15 -7 -22q-3 -3 -8.5 -11.5t-11 -12t-12.5 -1.5q-32 4 -37 27q-1 2 -3.5 6t-4.5 8z" />
    <glyph glyph-name="braceright" unicode="}" horiz-adv-x="995" 
d="M102 -276q-19 3 -30 16.5t-9 30.5q1 20 16 31.5t34 9.5q35 0 49 4h2q7 1 17 4t14 4h2q20 10 30 16q51 26 97 82q56 71 86 182q83 286 256 467q63 66 102 93q-20 7 -49 22q-48 26 -72 64q-27 50 -16 106q43 236 51 418q15 337 -80 461q-42 57 -115 63q-20 1 -32.5 14.5
t-10.5 32.5q1 19 14.5 31t30.5 12h5q112 -9 182 -100q114 -147 96 -518q-7 -174 -53 -432q-9 -43 43 -72q50 -29 115 -39l16 -4q18 -4 27.5 -15.5t11.5 -20t0 -11.5q0 -15 -10.5 -28.5t-30.5 -16.5q-8 -1 -28.5 -12.5t-59.5 -42t-78 -72.5q-155 -168 -229 -424
q-39 -134 -105 -215q-51 -69 -127 -109q-61 -28 -110 -35h-11h-26q-7 0 -13 3v0h-2z" />
    <glyph glyph-name="asciitilde" unicode="~" horiz-adv-x="1400" 
d="M1307 1153q17 -4 26 -20t4 -35q0 -3 -7.5 -23.5t-28 -59.5t-46.5 -73q-126 -160 -323 -160q-47 0 -89 10.5t-69.5 23.5t-58.5 39t-45.5 41t-42.5 46q-36 43 -59.5 65t-64.5 40t-93 18q-141 0 -211 -113q-17 -26 -28 -56t-14 -44t-3 -18q-3 -19 -18 -30t-34 -9
q-19 3 -30.5 17.5t-8.5 33.5q0 5 4.5 24t19 57t34.5 72q97 156 289 156q53 0 97 -12t79.5 -38t56 -45.5t51.5 -55.5q30 -35 47 -52t47 -39t65 -31.5t79 -9.5q151 0 252 125q22 27 38.5 58.5t22.5 48.5l6 18q5 19 21 28t35 3z" />
    <glyph glyph-name="exclamdown" unicode="&#xa1;" horiz-adv-x="1122" 
d="M84 -524q-11 6 -18 19.5t-3 23.5q3 11 11 18l4 8q4 8 11.5 22t8.5 17q9 18 27.5 50t21.5 38q22 34 72 133q5 9 15.5 29t15.5 29l4 8q68 128 92 180q25 53 88 201q3 7 12.5 26.5t14.5 30.5q11 25 98 228q10 27 47 112q13 30 39.5 93.5t40.5 93.5q13 32 53 114q16 31 23 51
q6 10 26 56q7 14 19.5 40.5t22.5 48t18 40.5q3 6 10 18.5t10 18.5q20 30 25 43q7 21 27 24q8 4 16 4q9 0 18 -6q16 -13 13 -47v-2q-1 -9 -19 -49q-1 -3 -3 -9.5t-3 -9.5q-4 -8 -12 -24.5t-12 -24.5q-2 -4 -8.5 -15t-8.5 -17q-25 -50 -29 -60q-16 -31 -88 -188
q-45 -96 -135 -305l-12 -27q-51 -121 -53 -127q-58 -133 -70 -158q-6 -13 -43 -96q-9 -20 -27.5 -61t-27.5 -62q-28 -70 -103 -215q-3 -5 -9 -16.5t-9 -16.5q-62 -125 -123 -219q-9 -9 -12 -18q-20 -32 -33 -43q-12 -10 -20 -10.5t-23 8.5zM1059 1489q-1 -22 -19.5 -38.5
t-38.5 -14.5q-18 2 -35 20t-16 35q5 24 26 44.5t38 16.5q20 -3 33.5 -21.5t11.5 -41.5z" />
    <glyph glyph-name="cent" unicode="&#xa2;" horiz-adv-x="933" 
d="M289 -266q7 38 8 109t4 100q2 15 4 67.5t12 79.5q9 23 -22 31q-64 13 -123 72q-56 56 -88 157q-26 81 -21 154q5 99 46 209q53 142 153 276q111 148 232 211q23 13 30 41q7 26 23.5 97.5t27.5 111.5q4 13 10 40.5t12 48.5t15 38q2 2 4 8.5t5 9.5q18 23 34 17
q12 -3 20.5 -16t6.5 -25v-6q-14 -38 -27.5 -115.5t-25.5 -112.5q-6 -18 -15 -80q-1 -6 0.5 -8t5.5 -1.5t9 -0.5q90 -7 145 -59q52 -49 49 -109q-1 -3 1.5 -13.5t-1.5 -16.5q-10 -19 -32 -23q-8 -1 -13.5 6.5t-7.5 16.5l-4 4q-4 5 -4 21t-8 20q-12 7 -29.5 23t-22.5 20
q-21 16 -51 17t-53 -5q-3 0 -14 -16q-4 -7 -19 -66q-44 -202 -47 -223q-2 -18 -11 -63t-11 -70q-4 -25 -14 -74t-11 -57q-6 -29 -14 -80q-1 -19 -23 -162q-1 -10 -2.5 -31.5t-4 -37.5t-7.5 -31q-6 -10 1 -17t19 -2q78 30 133 66q82 47 242 149q3 1 9.5 4t9.5 4q25 8 34 -6
q11 -18 -6 -35q-15 -19 -71 -59q-100 -73 -162 -113q-6 -4 -36 -23t-41 -25t-35 -19t-44 -20.5t-41 -12.5q-33 -10 -33 -51q0 -17 -2 -36.5t-5.5 -43t-4.5 -35.5q-4 -51 -16 -149q-1 -7 -6.5 -44.5t-6.5 -56.5q0 -21 -14 -45q-11 -15 -26 -12t-23 20q-3 4 -4 9t-1 11t-1 9
v29zM152 494q7 -119 53 -197q32 -55 84 -78q3 -1 9.5 -5t9.5 -5t11 0q10 4 10.5 16t0.5 13q8 13 8 53q0 15 2 30.5t5.5 34.5t4.5 29q5 29 14.5 87.5t14.5 88.5q5 35 22 127q5 27 17.5 84t17.5 84q24 118 47 209q3 14 -4 16q-1 2 -6 0.5t-6 -4.5q-7 -7 -27 -26t-29.5 -28
t-26.5 -26.5t-27.5 -30t-24 -29t-23.5 -32.5q-69 -104 -114 -215q-33 -86 -43 -196z" />
    <glyph glyph-name="sterling" unicode="&#xa3;" horiz-adv-x="1413" 
d="M1051 -201h-64q-79 0 -227 35q-37 9 -109.5 33t-109.5 33q-34 9 -92 20q-64 14 -162 -12q-101 -27 -148 -74q-9 -9 -22 -31q-7 -10 -20.5 -13t-22.5 3q-17 14 -11 35q12 45 42 73.5t79 57.5q37 23 115 47q16 5 22 12t5 21q-1 27 3.5 53t16.5 70t14 51q9 31 30 101.5
t32.5 110t28 98t29.5 110.5t24 102q6 26 20 73.5t19 65.5q1 5 2 17t2 18q-4 0 -11.5 0.5t-14.5 0.5t-13 -1q-4 -1 -22.5 -4.5t-28.5 -3.5q-18 0 -31 10q-19 11 -21 29.5t15 30.5q33 23 106 39q4 1 16 0.5t15 1.5q1 1 6 3.5t7 4t5.5 4.5t5.5 7t3 9q7 31 24.5 88t22.5 76
q18 74 67 215q55 166 150 336q64 115 166 182q70 43 133 17q13 -5 27 -19q3 -3 21 -24.5t34 -28.5q19 -8 10 -49q-8 -46 -8 -72q-3 -42 -45 -45q-25 0 -34 7.5t-9 31.5q1 16 -4 44t-6 38q-4 32 -20 38t-40 -7q-33 -12 -69 -51q-79 -91 -127 -199q-62 -145 -84 -207
q-63 -179 -111 -356q-2 -17 14 -17q18 1 46.5 7.5t39.5 7.5q122 16 183 16q9 -1 26.5 -6t26.5 -6q10 -2 18 -12t8 -23q0 -28 -26 -35q-18 -6 -19 -6q-48 0 -110 -10q-105 -16 -119 -19t-40.5 -5t-39.5 -5q-27 -6 -35 -12.5t-12 -30.5q-3 -15 -10 -39t-10 -35
q-59 -246 -99 -385q-12 -45 -37 -134t-38 -134q-20 -74 -33 -131q-6 -25 14 -25t42.5 -2t39 -5t41.5 -9.5t38.5 -10.5t41.5 -13.5t39 -12.5q128 -41 196 -51q75 -14 131 -14q47 1 142.5 1t142.5 1q28 0 47 -11q17 -11 19 -26.5t-13 -30.5q-23 -20 -57 -20q-24 -1 -104 -8.5
t-125 -4.5z" />
    <glyph glyph-name="currency" unicode="&#xa4;" horiz-adv-x="1028" 
d="M367 1024q-11 50 -21 70q-14 26 -23.5 55.5t-19 70.5t-14.5 58q-5 24 12 55q9 15 24.5 14t24.5 -16q29 -51 66 -164q1 -2 2 -7t2 -7q6 -19 10.5 -20t18.5 16q51 61 106 76q2 0 8 1.5t9 2t8 1t8.5 0t7 -1.5t7 -4t5.5 -7q7 -13 13 -15t18 6q66 36 117 13q8 -4 20 8
q6 8 19.5 24.5t19.5 24.5q9 17 22.5 32t33.5 34t28 28q41 41 64 -16q5 -10 -2 -23q-2 -6 -21 -30q-10 -11 -45.5 -58t-60.5 -67q-18 -15 -11 -37q26 -87 8 -226q-3 -20 -10 -60.5t-10 -61.5q-7 -47 -53 -199q-37 -118 -125 -279q-16 -31 -45 -63q-20 -20 -2 -41
q16 -21 40.5 -68.5t41.5 -68.5q20 -23 14 -60q-3 -20 -18 -28t-35 0q-22 10 -39 41q-3 5 -68 116q-8 11 -13.5 12t-16.5 -8q-10 -8 -21 -14.5t-26 -12t-23.5 -8t-27.5 -7.5t-25 -7t-12.5 0t-13.5 6t-11 5q-31 5 -60 28q-2 2 -6.5 7t-7 8t-2.5 2q-19 -12 -25 -23
q-7 -16 -17.5 -34t-19 -30t-23 -31.5t-21.5 -29.5q-11 -16 -31 -33q-20 -16 -37 -4q-11 8 -15.5 22.5t-0.5 24.5q27 59 53 90q7 10 35.5 54.5t48.5 64.5q11 8 6 31q-19 74 -19 143q-1 13 5.5 34t5.5 34q-4 45 8 61q5 54 20.5 119t28 102t39.5 115q29 80 57 131q10 16 13 29z
M754 1024q2 9 -6 39t-9 45q0 14 -18 27q-7 4 -10 3.5t-9 -4t-8 -4.5q-10 0 -30 -12q-55 -38 -119 -121q-96 -118 -150 -223q-1 -1 -3 -6t-2.5 -6.5t-3 -6t-3.5 -6.5t-3.5 -5.5t-5 -5.5t-5.5 -4.5t-6 -4t-7 -2.5t-7 -4.5t-4 -6t-2 -6.5t-1 -5q-18 -60 -23 -99q-2 -12 -8 -37
t-8.5 -39.5t-4.5 -35.5t-1 -39q-9 -26 -9.5 -52.5t5 -65t6.5 -50.5q2 -17 18 -49q26 -51 78 -31q43 14 70 41q42 42 70 88q69 105 137 289q25 76 47 166q24 107 35 233z" />
    <glyph glyph-name="yen" unicode="&#xa5;" horiz-adv-x="1060" 
d="M63 1087q-1 21 1.5 45t9 62.5t8.5 50.5q18 156 98 387q17 50 56 86q22 14 34 2q1 -1 5 -4t5 -4t4 -4.5t3 -6v-6.5t-2 -9q-41 -108 -54 -158q-43 -149 -61 -260q-18 -104 -18 -277q0 -42 30 -100q6 -16 31 -37q34 -20 63 -4q38 21 54 35q12 10 23.5 22.5t20 22t21.5 26.5
t18 23.5t19.5 28t17 25t18.5 28.5t17 26q40 60 108 175t89 149q123 198 201 363q17 34 30 49q33 33 64 12q32 -22 14 -59q-22 -50 -26 -56q-59 -93 -105 -190q-27 -59 -84 -207q-81 -221 -114 -330q-44 -143 -84 -262q-3 -10 2 -14q2 -5 12 0q27 16 88 16q28 3 39 -24
q13 -23 -10 -43q-23 -23 -43 -23q-23 1 -61.5 -13t-49.5 -16q-6 0 -10 -12q-5 -17 -15 -48.5t-18.5 -58t-15.5 -49.5q-3 -11 2.5 -14.5t15.5 2.5q20 9 45 17.5t41.5 12.5t48.5 11t43 10q33 11 58 -6q20 -12 20 -24q0 -26 -22 -37q-9 -4 -20 -7.5t-24 -6.5t-20 -5
q-33 -8 -203 -71q-24 -8 -35 -37q-38 -158 -114 -379q-2 -5 -6.5 -17.5t-6.5 -17.5v-10q-7 -17 -23 -25.5t-28 -3.5q-12 4 -20.5 21.5t-5.5 31.5q29 119 39 148q11 31 30.5 101.5t34.5 107.5q4 11 0 18q-6 4 -7.5 4.5t-6.5 -3t-6 -3.5q-12 -5 -34.5 -14t-33.5 -14
q-10 -5 -53 -5q-26 3 -23 31q4 35 31 49q65 38 133 56q43 15 49 53q5 23 19.5 66.5t19.5 64.5q4 13 2 15.5t-16 0.5q-10 -1 -55 -16q-63 -32 -123 -49q-26 -7 -56 8q-10 3 -17.5 11t-4.5 18q4 25 24 32q8 1 22 7t19 8q150 58 179 67q35 11 54.5 30t29.5 56q10 40 24 86.5
t25 79.5t29.5 87.5t27.5 82.5q0 1 3 15.5t9 19.5q7 7 0 14q-6 0 -10 -8q-9 -19 -20 -37t-31.5 -46t-24.5 -34q-64 -104 -135 -172q-29 -29 -57 -43q-61 -35 -122.5 -18t-96.5 80q-26 42 -41 121q-9 55 -9 120z" />
    <glyph glyph-name="brokenbar" unicode="&#xa6;" horiz-adv-x="360" 
d="M180 444q0 -48 -18 -206q-5 -38 -2 -86q1 -16 -4.5 -41t-5.5 -37q0 -2 -3.5 -6.5t-3.5 -6.5q-10 -26 -34 -26q-15 0 -25 8.5t-10 19.5q0 2 -6.5 25t-6.5 37q0 63 17 225q1 13 6 38.5t6.5 38t-0.5 38.5q-1 15 5 39t7 33q0 11 10 19.5t25 8.5q22 2 35 -24q3 -6 8 -37v-60z
M139 889q6 15 8.5 44.5t4.5 39.5q13 59 18 108q13 88 33 160q3 10 4.5 36t9.5 40q16 27 21 31q11 7 26 4.5t21 -13.5q17 -35 10 -49q-9 -19 -6 -43q0 -54 -19 -147q-4 -18 -7.5 -52t-4.5 -38q-15 -95 -43 -148q-1 -2 -5 -9t-7 -11q-13 -12 -31 -7.5t-22 21.5q0 2 -6.5 13.5
t-4.5 19.5z" />
    <glyph glyph-name="section" unicode="&#xa7;" horiz-adv-x="966" 
d="M289 -469q-84 -6 -162 47q-54 37 -64 88q-3 18 6.5 38t26.5 24q12 4 19 -7l6 -12q19 -73 117 -80q7 -1 26.5 -6t30.5 -4q179 22 274 88q50 37 68 70q35 59 21 126.5t-68 110.5t-84 56q-43 17 -78 22q-93 16 -129 101q-29 74 12 176q21 59 97 159q42 52 151 144
q15 10 2 20q-18 21 -39 39q-46 41 -80 103q-61 111 -8 227q63 138 195 174q100 27 172 -21q56 -40 69 -110q18 -92 15 -125q-1 -5 -7 -39t-6 -53q-4 -36 -36 -47q-22 -9 -40.5 4t-19.5 39q-7 46 0 71q6 18 7.5 37.5t0 47.5t-1.5 36q0 34 -19.5 56.5t-51.5 27.5
q-37 3 -70 -10q-75 -33 -111 -98q-25 -44 -28.5 -80t10 -66.5t45.5 -68.5q60 -71 195 -174q6 -4 22 -16.5t23 -18t20.5 -17t21.5 -20t18 -20t17 -23.5q52 -79 17 -166q-19 -48 -60 -92q-89 -96 -215 -156q-31 -14 -2 -31q96 -66 123 -157q1 -4 6 -18t7 -20t4.5 -18.5
t2.5 -20.5t-2 -19t-7 -21q-15 -133 -170 -219q-78 -46 -226 -76q-9 -3 -18.5 -3.5t-24 0.5t-20.5 1zM381 270q1 -3 0 -13t1 -17.5t9 -12.5q40 -34 78 -45q7 -2 13.5 -2.5t14.5 1.5t13.5 3.5t15 5.5t13.5 5q147 61 245 176q28 32 27.5 69.5t-29.5 69.5l-20 20q-44 38 -90 72
q-20 17 -29 17t-27 -15q-126 -97 -188 -196q-49 -81 -47 -138z" />
    <glyph glyph-name="dieresis" unicode="&#xa8;" horiz-adv-x="354" 
d="M117 2163q43 0 43 -56q-2 -22 -17 -36.5t-37 -14.5q-45 3 -45 49q0 28 15 43t41 15zM248 2163q46 0 43 -56q0 -21 -15 -36t-36 -15q-25 1 -35 12.5t-10 36.5q0 28 14 43t39 15z" />
    <glyph glyph-name="copyright" unicode="&#xa9;" horiz-adv-x="1040" 
d="M977 1425q0 -143 -68 -292q-59 -128 -147 -213q-116 -109 -252 -144q-58 -13 -124 -0.5t-118 43.5q-138 81 -186 268q-23 91 -19 144q11 139 52 221q3 5 19.5 44.5t31.5 57.5q49 61 93 102t99 68q10 5 43 22t55 27t44 17q150 47 291 -37q93 -55 143 -147q52 -99 43 -181z
M889 1405q-2 14 -2.5 44.5t-3.5 47.5q-23 84 -92 150q-55 49 -142 69q-50 11 -86 -4q-77 -26 -102 -37q-161 -64 -240 -209q-70 -126 -61 -254v-39.5t4 -48.5q19 -98 78 -168q65 -78 149 -92q105 -16 187 33q116 61 192 168q116 160 119 340zM424 1157q16 -1 30.5 2.5t39 13
t30.5 11.5q9 2 82 35q17 9 23 10q19 0 28 -15q7 -9 0 -26q-10 -23 -49 -45q-9 -5 -35.5 -22t-44 -26.5t-36.5 -15.5q-81 -30 -132 -10q-91 35 -100 129q-17 179 135 291q89 67 209 76q45 4 72 -15q22 -16 31 -39q5 -14 -5.5 -31t-25.5 -18q-22 0 -25 2q-25 10 -49.5 11
t-49.5 -7.5t-43 -17t-44 -23.5q-80 -47 -113 -149q-8 -25 -4 -74q9 -47 76 -47z" />
    <glyph glyph-name="ordfeminine" unicode="&#xaa;" horiz-adv-x="1685" 
d="M1622 770q2 -22 -12 -47q-78 -111 -140 -180q-147 -169 -251 -273q-100 -100 -172 -149q-85 -56 -154 -68q-34 -6 -72 11t-59 51q-1 1 -3 4t-3 4q-29 57 -29 121q0 72 18 139q5 11 14.5 35t14.5 35q4 8 4 28v0q6 0 6 4q2 2 0.5 2.5t-4.5 -0.5q-2 -4 -2 -6v0h-2
q-5 -1 -9 -4.5t-8.5 -9.5t-6.5 -8l-72.5 -72.5t-81.5 -79.5q-117 -114 -236 -168q-73 -30 -122 -30q-61 -2 -109.5 34t-62.5 103q-13 74 12 155q47 169 168 322q122 155 260 240q104 66 201 69q67 0 143 -51q48 -31 92 -96l6 -6q1 -2 3 -5.5t3 -5.5q1 -1 2.5 -3t2.5 -3
q25 41 71 123q27 49 72 41l8 -4q27 -23 14 -51q-20 -46 -28 -56q-53 -71 -103 -180q-30 -55 -57 -114q-67 -148 -100 -269q-1 -3 -3.5 -14.5t-3.5 -18.5q-9 -55 -4 -106q0 -11 7 -29q12 -25 26 -32t39 0q50 16 70 30q7 5 30.5 21t33.5 23.5l28 21t31.5 26t25.5 25.5
q8 9 54.5 55t68.5 72q130 144 170 195q82 103 115 153q14 23 41 33q20 7 36.5 -4.5t18.5 -32.5zM756 592q10 12 34 44t42 54t36 41q24 31 13 66q-18 64 -80 110q-52 42 -99 35q-40 0 -51 -4q-113 -38 -243 -168q-47 -47 -82 -96q-115 -156 -154 -291q-16 -66 -12 -100
q6 -79 86 -76q64 3 125 41q128 84 190 149l166 166q3 3 9.5 9t11 11t8.5 9z" />
    <glyph glyph-name="guillemotleft" unicode="&#xab;" horiz-adv-x="1165" 
d="M651 1495q12 0 25 -8t16 -17q7 -22 -14 -51q-2 -3 -11.5 -8.5t-11.5 -7.5q-121 -83 -135 -92q-13 -8 -33 -25t-28 -22q-29 -22 -81.5 -67.5t-62.5 -53.5q-56 -46 -127 -117q-12 -12 -11.5 -17.5t13.5 -17.5q6 -5 20.5 -18.5t25.5 -22.5t22 -16q86 -61 180 -162
q94 -104 162 -201q4 -5 18 -39q6 -13 0.5 -27t-18.5 -20q-4 -1 -5.5 -1t-5 2t-5.5 3q-19 5 -39 29q-105 120 -221 230q-92 85 -166 139q-13 9 -36 29t-28 24q-30 23 -31.5 65t25.5 68q84 81 172 154q17 14 60.5 51t68.5 57q19 14 58 43t59 43q12 8 48.5 24t53.5 30
q3 3 11.5 7t11.5 7q12 9 20 6zM1061 1495q12 0 25 -8t16 -17q6 -21 -15 -51q-2 -3 -5.5 -5.5t-8.5 -5.5t-8 -5q-121 -83 -135 -92q-13 -8 -34 -25t-28 -22q-28 -21 -79 -65.5t-64 -55.5q-56 -46 -127 -117q-12 -12 -11.5 -17.5t13.5 -17.5q6 -5 20.5 -18.5t25.5 -22.5
t22 -16q86 -61 180 -162q94 -104 162 -201q4 -5 18 -39q6 -13 0.5 -27t-18.5 -20q-4 -1 -5.5 -1t-5.5 2l-6 3q-19 5 -39 29q-105 120 -221 230q-92 85 -166 139q-13 9 -35 28.5t-28 24.5q-30 23 -31.5 65t25.5 68q84 81 172 154q17 14 60.5 51t68.5 57q20 14 58 42.5
l58 43.5q12 8 49 24t54 30q3 3 11 7t11 7q12 9 21 6z" />
    <glyph glyph-name="registered" unicode="&#xae;" horiz-adv-x="1040" 
d="M977 1425q0 -143 -68 -292q-59 -128 -147 -213q-116 -109 -252 -144q-58 -13 -124 -0.5t-118 43.5q-138 81 -186 268q-23 91 -19 144q10 133 52 221q3 5 19.5 44.5t31.5 57.5q49 61 93 102t99 68q12 6 34.5 17.5t36.5 18.5t34.5 15.5t38.5 14.5q147 48 289 -37
q93 -55 143 -147q52 -99 43 -181zM889 1405q-2 14 -2.5 44.5t-3.5 47.5q-23 84 -92 150q-54 49 -140 69q-52 11 -88 -4q-77 -26 -102 -37q-161 -64 -240 -209q-70 -126 -61 -254v-39.5t4 -48.5q19 -98 78 -168q64 -78 149 -92q105 -16 189 33q115 62 190 168
q116 160 119 340zM420 1153v-43v-20q-3 -24 -18 -39.5t-33 -14.5q-16 2 -30 18.5t-15 37.5q-4 38 2 57q6 21 6 43q-1 9 -1 18.5t1 19.5t2 17.5t3.5 19t4 17.5t5.5 18.5t5.5 17.5t6.5 18.5t6 17.5q40 107 122 186q45 42 97 51q46 10 79 -18.5t33 -65.5q3 -73 -57 -143
q-20 -23 -70 -59q-17 -11 4 -17q9 -3 33 -12t41 -16.5t33 -16.5q57 -37 76 -78q9 -17 3.5 -33t-22.5 -20q-18 -4 -43 10q-45 25 -57 31q-23 10 -48.5 19t-59.5 20t-50 16q-5 2 -18.5 10.5t-18 10t-14.5 -1.5q-7 -4 -8.5 -14t0 -25t0.5 -21v-16zM473 1362q1 1 4 2t4 2
q29 12 86 61q13 9 39 60q4 4 -4 9l-6 1q-9 1 -31 -10q-12 -9 -22.5 -18.5t-22 -25t-16 -21t-18.5 -27t-15 -23.5q0 -1 1 -4.5t1 -5.5z" />
    <glyph glyph-name="degree" unicode="&#xb0;" horiz-adv-x="399" 
d="M172 1462q-62 -8 -92 56q-33 71 -5.5 134.5t101.5 88.5q44 15 91 -3t63 -67q12 -41 4 -78q-23 -90 -119 -129q-7 -2 -43 -2zM160 1608q-2 -8 8 -27q10 -32 37 -18q29 16 41 61q3 21 -17 33q-23 10 -47 -7t-22 -42z" />
    <glyph glyph-name="plusminus" unicode="&#xb1;" horiz-adv-x="567" 
d="M219 782v39q-1 7 0.5 21.5t0.5 25t-7 15.5q-6 4 -16 5t-25.5 0t-19.5 -1h-50q-12 1 -25.5 14.5t-13.5 22.5q-2 8 9.5 21t21.5 16q78 24 117 24q18 0 18 16q-3 25 4 74t5 72q0 9 4.5 23.5t5.5 19.5q8 31 49 31q15 0 22 -7.5t13 -23.5q14 -29 4 -60q-8 -22 -8 -64t-2 -56
q0 -15 14 -15q49 0 68 -10q10 -5 32 6q18 9 41 -4q28 -17 23 -39q-2 -11 -13 -22t-24 -11q-20 1 -63 -5.5t-66 -4.5q-11 2 -16.5 -3t-4.5 -15q2 -20 -4.5 -59.5t-5.5 -57.5v-113q0 -3 1 -12t0.5 -15.5t-3.5 -11.5q0 -1 -1.5 -6t-2.5 -6.5t-3 -5.5t-4.5 -5.5t-6 -3t-8.5 -1.5
q-21 0 -28 3.5t-13 20.5q-21 73 -19 105v63zM283 373h-50q-23 -3 -66.5 4t-62.5 6q-7 0 -22 10q-18 10 -19.5 27.5t13.5 32.5q18 18 53 18q7 0 24.5 -1t30 -0.5t23.5 3.5q39 8 98.5 7.5t95.5 0.5q26 3 48 -10q29 -15 26 -53q-2 -28 -37 -33q-7 -1 -21.5 -5t-26.5 -6t-23 -1
q-27 2 -84 2v-2z" />
    <glyph glyph-name="twosuperior" unicode="&#xb2;" horiz-adv-x="546" 
d="M332 1143q65 0 98 -2q29 -2 41 -27t-6 -51q-16 -19 -51 -19l-52 -1q-53 -1 -53 1q-22 1 -62.5 -5t-62.5 -5q-15 0 -40 4.5t-35 5.5q-31 7 -43 37q-9 32 8 49q19 19 71 80q58 64 142 201q45 67 88 170q6 13 10.5 40t9.5 38q3 8 0.5 17t-8 19t-6.5 15q0 3 -5 6.5t-9 3.5
t-14.5 1.5t-16 1.5t-14 -1t-15 -5t-12.5 -11q-6 -9 -22.5 -22.5t-22.5 -20.5q-22 -23 -44 -19t-32 29q-7 17 0 29q22 40 44.5 65t57.5 39q76 29 141 -14t68 -125q0 -49 -22 -117q-26 -70 -123 -233q-40 -62 -113 -162q-8 -8 -4 -10q2 -2 10 -2h99z" />
    <glyph glyph-name="threesuperior" unicode="&#xb3;" horiz-adv-x="491" 
d="M197 1812q82 -4 100 -10q43 -14 56.5 -52.5t-3.5 -72.5q-27 -62 -65 -100q-12 -12 -19 -29q0 -1 -1 -3q-5 -11 5 -9q9 1 25 -4t20 -6q51 -2 93 -56q32 -37 14 -100q-15 -64 -72 -131q-74 -85 -137 -113q-32 -11 -66 -20q-19 -5 -40.5 9.5t-22.5 33.5q-2 11 13.5 27.5
t25.5 13.5q7 -3 14 -3t11 0.5t11 5t7.5 5t7.5 6.5q96 65 148 170q2 2 2 4q11 26 1.5 42.5t-36.5 17.5q-77 4 -125 -15q-57 -20 -78 17q-8 13 -3 35t23 38q55 55 130 152q25 30 20 41q-7 16 -45 16q-5 -1 -34 -0.5t-34 -7.5q-3 -2 -24 -2q-19 0 -37 9.5t-19 19.5
q-3 17 12.5 35.5t35.5 23.5q56 15 86 12z" />
    <glyph glyph-name="acute" unicode="&#xb4;" horiz-adv-x="444" 
d="M344 2228q27 4 35 -18q5 -10 1 -25.5t-13 -21.5q-13 -11 -37 -23q-124 -63 -183 -98q-24 -12 -45 -12q-25 3 -36 20q-6 9 -1.5 24t13.5 23q37 28 49 33q30 16 89.5 45.5t88.5 44.5q16 8 39 8z" />
    <glyph glyph-name="mu" unicode="&#xb5;" horiz-adv-x="1589" 
d="M1487 1286q16 -3 27 -14.5t12 -28.5v-1q5 -109 -10 -226q-15 -111 -50 -205q-45 -118 -114 -190q-40 -43 -80 -68l-211 -569q-8 -17 -24.5 -25t-35.5 -2q-18 8 -24.5 24t0.5 35l180 486q-59 -15 -123 -15q-168 0 -276 123q-76 85 -121 242q-33 131 -41 270v17l-444 -1301
q-4 -13 -16.5 -22t-26.5 -9q-9 0 -15 3q-18 6 -26 22.5t-2 34.5l540 1581q6 17 21 25.5t32 5.5q17 -4 27 -19t8 -33q-2 -15 -4 -41.5t-5.5 -108.5t1.5 -151q18 -320 139 -456q80 -92 209 -92q96 0 164 36l240 643q6 15 20 23t29 6zM1364 801q20 45 31 82z" />
    <glyph glyph-name="paragraph" unicode="&#xb6;" horiz-adv-x="1705" 
d="M1599 1597q19 0 32.5 -13t13.5 -32t-13.5 -32t-32.5 -13h-145h-184q0 -6 -2 -8l-406 -1560q-5 -15 -16.5 -25t-26.5 -10q-8 0 -12 2q-18 4 -27 20t-6 35l404 1546q-186 0 -361 -12l-409 -1556q-5 -15 -16.5 -25t-26.5 -10q-9 0 -13 2q-19 4 -27.5 20t-2.5 35l204 780
q-111 10 -215 60q-250 119 -250 397q0 108 80 188q151 148 580 191q237 25 733 20h145zM549 831l172 656q-396 -44 -516 -164q-53 -50 -53 -125q0 -224 198 -315q56 -27 113.5 -39.5t85.5 -12.5z" />
    <glyph glyph-name="periodcentered" unicode="&#xb7;" horiz-adv-x="256" 
d="M63 623q0 30 22 48.5t50 16.5q25 -3 42 -19.5t16 -39.5q-1 -29 -25 -50.5t-53 -19.5q-23 0 -38.5 19t-13.5 45z" />
    <glyph glyph-name="cedilla" unicode="&#xb8;" horiz-adv-x="608" 
d="M164 -246q-59 0 -80 10q-20 7 -23 35q0 23 21 29q4 1 22 7.5t27 6.5q39 0 129 21q112 30 176 102q26 26 -8 39q-58 27 -137 10q-42 -7 -70 -26q-20 -17 -50 -5t-30 46q0 90 43 155q3 5 11 24.5t16 27.5q9 11 22.5 16.5t20.5 1.5q27 -17 27 -43q0 -21 -23 -78q-1 -3 -4 -7
t-3 -6t3 -7q3 -4 6.5 -5t9 0t6.5 1q3 0 15 6q113 18 213 -41q31 -18 40 -55.5t-7 -73.5q-28 -66 -117 -119q-118 -72 -256 -72z" />
    <glyph glyph-name="onesuperior" unicode="&#xb9;" horiz-adv-x="385" 
d="M63 1135q3 15 10 42t9 35q41 146 72 269l6 18q6 16 4 22.5t-14 24.5q-13 16 -7 37q2 25 21 59q10 15 19.5 32t19.5 37.5t16 31.5q2 3 5 10t6.5 11.5t7.5 7.5q3 2 10 7t10 6.5t11.5 3.5t15.5 -3q11 -7 15 -9.5t11 -9t9.5 -14.5t1.5 -18q0 -34 -25 -107q-90 -296 -115 -407
q-10 -50 -26 -88q-9 -23 -15 -29q-32 -32 -51 -19q-30 18 -27 50z" />
    <glyph glyph-name="ordmasculine" unicode="&#xba;" horiz-adv-x="1232" 
d="M1171 778q-26 -42 -69.5 -83.5t-70 -61t-87.5 -62.5q-63 -44 -227 -122q-38 -18 -58 -54q-95 -144 -208 -223q-101 -67 -201 -53q-57 10 -94 37q-67 55 -88 151q-3 15 -4 32t-1 28t3.5 31t5 27.5t7.5 31.5l7 28t4 14t4 15.5t2 14.5t0 17t-4 17q-4 13 -5 27t2 32t5 26.5
t8 29.5q43 142 179 252q82 62 163 90q113 36 218 -6q86 -35 114 -146q31 -106 -14 -256q-2 -12 -10 -32q-1 -4 0 -6t3 -2t3 1q14 3 22 9q170 102 258 170q6 5 17 15t21 18t20 12q12 8 20 12q20 11 28.5 9.5t26.5 -21.5v-19zM369 463q56 4 86 8q27 4 56 12t65 19t55 16
q22 9 28 23q44 93 50 194q0 10 -5 26.5t-6 24.5q-6 64 -36 123q-8 18 -29 29q-30 17 -64.5 22t-61.5 1.5t-65 -13.5q-5 -1 -41 -16q-13 -7 -32.5 -24.5t-26.5 -22.5q-99 -80 -143 -205q-1 -5 -6.5 -19t-6.5 -20.5t2 -19.5q7 -13 11 -48q3 -47 22.5 -68t65.5 -32
q19 -5 82 -10zM158 358v-30q1 -46 23 -74.5t67 -46.5q48 -18 121 8q24 10 46 23.5t44 32.5t35.5 32t38 38.5t34.5 35.5q6 6 2 14q-2 2 -14 2q-97 -30 -160 -28h-73q-82 0 -144 45q-18 12 -18 -9q-2 -14 -2 -43z" />
    <glyph glyph-name="guillemotright" unicode="&#xbb;" horiz-adv-x="1165" 
d="M514 483q-12 0 -25 8t-16 17q-7 22 14 51q2 3 11.5 8.5t11.5 7.5q15 10 42 29.5t49.5 35t43.5 28.5q13 8 34 25t28 22q28 21 79 65.5t64 55.5q62 51 127 116q12 12 11.5 17.5t-13.5 17.5q-6 5 -20.5 18.5t-25.5 22.5t-22 16q-86 61 -180 162q-94 104 -162 201
q-4 5 -18 39q-6 13 -0.5 27t18.5 20q4 1 5.5 1t5.5 -2l6 -3q19 -5 39 -29q100 -114 221 -229q92 -85 166 -139q13 -9 34.5 -28.5t28.5 -25.5q30 -23 31.5 -65t-25.5 -68q-76 -73 -172 -153q-18 -14 -61 -52t-68 -57q-20 -15 -58.5 -43t-58.5 -43q-13 -8 -49 -23.5t-53 -29.5
q-3 -3 -11 -7.5t-11 -7.5q-12 -9 -21 -6zM104 483q-12 0 -25 8t-16 17q-6 21 15 51q2 3 5.5 5.5t8.5 5.5t8 5q126 87 136 93q13 8 33 25t28 22q28 21 79 65.5t64 55.5q62 51 127 116q12 12 11.5 17.5t-13.5 17.5q-7 6 -20.5 19t-24.5 22t-22 16q-89 64 -181 162
q-90 99 -161 201q-6 10 -19 39q-6 14 -0.5 27.5t19.5 19.5q4 1 5.5 1t5 -2t5.5 -3q19 -5 39 -29q100 -114 221 -229q92 -85 166 -139q13 -9 35.5 -29t28.5 -25q30 -23 31.5 -65t-25.5 -68q-76 -73 -172 -153q-18 -14 -61 -52t-68 -57q-19 -15 -58 -43t-59 -43
q-13 -8 -49.5 -23.5t-53.5 -29.5q-3 -3 -11 -7.5t-11 -7.5q-12 -9 -21 -6z" />
    <glyph glyph-name="onequarter" unicode="&#xbc;" horiz-adv-x="1148" 
d="M756 537q73 0 110 8q24 6 31.5 13t13.5 28q11 35 32 117.5t36 125.5q3 13 11 24t11.5 14t20.5 16q24 16 39 -4q30 -38 22 -68q-13 -53 -34 -170q-7 -37 -11 -52t-15 -42.5t-26 -46.5q-5 -6 -8.5 -18t-3.5 -13q-7 -28 -19.5 -81.5t-15.5 -68.5q-7 -29 -21.5 -87.5
t-21.5 -86.5q-14 -46 -16 -57q-2 -15 -21 -29q-27 -17 -43.5 -8t-23.5 35q-7 29 0 59q13 42 32.5 134t34.5 139q3 11 -1.5 16t-14.5 4q-7 -1 -45 -0.5t-43 -7.5q-12 -8 -23 0q-12 5 -26 7t-25 1t-26 0q-46 3 -80 27q-58 40 -33 121q6 23 15 46t23.5 56.5t18.5 44.5
q10 20 39.5 78t44.5 90q7 17 32.5 54.5t33.5 62.5q1 3 6.5 8.5l7.5 7.5q17 23 41 13t29 -37q1 -13 -1.5 -28t-5.5 -23t-11.5 -27t-10.5 -23q-37 -91 -74 -139q-10 -12 -18.5 -28t-13 -26.5t-12.5 -33t-11 -29.5q-23 -48 -31 -73q-11 -40 31 -43h70zM184 1036q4 16 10.5 44
t8.5 34q12 45 36.5 134t36.5 134q0 3 3 9.5t4 9.5q4 16 2 22.5t-15 24.5q-9 12 -6 39q3 28 21 57q8 11 55 103q2 2 4 6.5t3.5 7.5t5 6.5t7.5 5.5q2 1 9.5 7t10.5 7l12 4t14 -3q13 -8 19.5 -13t12 -15t4.5 -24q0 -36 -24 -106q-89 -293 -115 -408q-9 -46 -27 -88
q-9 -23 -14 -28q-29 -32 -51 -19q-29 18 -27 49zM63 96v19q5 32 29 82l119 264q60 141 170 344q100 196 162 299q16 26 40 74.5t31 62.5q18 30 81 140.5t102 168.5q8 12 32 60q7 10 39 28q19 6 36.5 -9.5t15.5 -35.5q-5 -18 -15 -41l-129 -221l-55 -100q-24 -47 -72.5 -135
t-58.5 -107q-141 -248 -334 -647q-47 -95 -68 -158q-4 -17 -12 -33t-19 -36.5t-16 -30.5q-8 -16 -14 -18q-3 0 -18 -7.5t-23 -1.5q-26 15 -23 39z" />
    <glyph glyph-name="onehalf" unicode="&#xbd;" horiz-adv-x="991" 
d="M774 190q65 0 98 -2q29 -2 41.5 -26t-6.5 -49q-16 -21 -51 -21l-52 -2q-52 -1 -52 2q-20 1 -61.5 -5t-63.5 -5q-13 0 -76 10q-33 7 -41 37q-13 30 6 49q48 52 72 80q43 47 143 199q33 52 88 172q5 13 9.5 39t9.5 39q2 8 0 16.5t-8 19.5t-7 15q0 3 -5 6.5t-9 3.5
t-14.5 1.5t-16 1.5t-14 -1t-15 -5t-12.5 -11q-6 -9 -22.5 -22.5t-22.5 -20.5q-22 -23 -43.5 -19t-32.5 29q-7 17 0 29q22 40 45 65t58 39q76 29 141 -14t68 -125q2 -40 -23 -117q-33 -88 -123 -233q-46 -72 -112 -162q-8 -8 -4 -10q3 -3 10 -3h98zM186 1036q3 19 17 78
q12 45 36.5 134t36.5 134q0 3 3 9.5t4 9.5q4 16 2 22.5t-15 24.5q-12 15 -6 39q3 30 23 57l53 103q1 2 7 12t11 14q3 2 10 7t10.5 7t12 4t15.5 -3q20 -10 28.5 -21t7.5 -31q0 -29 -22 -106q-77 -241 -117 -408q-9 -46 -27 -88q-9 -23 -14 -28q-26 -33 -51 -19q-30 19 -25 49
zM63 96v19q9 41 29 82l119 264q53 124 168 344q103 194 166 299q11 20 34 66t37 71q20 33 81 142.5t100 166.5q8 12 32 60q4 6 10.5 11t16 10t12.5 7q20 6 37 -9.5t13 -35.5q-2 -16 -13 -41l-129 -221l-55 -100q-99 -184 -133 -242q-152 -271 -330 -647q-36 -68 -70 -158
q-4 -17 -12 -33t-19 -36.5t-16 -30.5q-3 -14 -12 -18q-6 -1 -15 -5.5t-13.5 -6t-12.5 2.5q-30 15 -25 39z" />
    <glyph glyph-name="threequarters" unicode="&#xbe;" horiz-adv-x="1148" 
d="M260 1702q10 0 28 -1l27 -1.5t22 -2t23 -5.5q43 -14 57 -52.5t-3 -72.5q-28 -64 -64 -103q-14 -10 -20 -26q0 -1 -1 -3q-3 -5 -2.5 -8t7.5 -2q9 1 25.5 -4t21.5 -6q47 -2 92 -55q30 -37 12 -100q-15 -64 -69 -132q-77 -84 -140 -112q-21 -8 -63 -21q-20 -5 -42.5 9.5
t-23.5 33.5q-2 11 13.5 27.5t25.5 13.5q23 -9 49 13l1.5 1.5t1.5 0.5q92 60 147 170q0 1 1 2t1 2q22 56 -35 59q-79 4 -125 -14q-57 -20 -77 16q-8 13 -2.5 35t22.5 39q45 45 131 151q25 30 21 41q-7 17 -48 17q-5 -1 -33.5 -0.5t-33.5 -7.5q-3 -2 -25 -2q-19 0 -36.5 9
t-18.5 19q-3 17 12 36.5t35 23.5q48 15 86 12zM756 537q73 0 110 8q23 6 30 12.5t15 28.5q11 35 32 117.5t36 125.5q2 8 5 14t8.5 12.5t8 9t11 9.5t10.5 9q24 16 39 -4q30 -38 22 -68q-13 -53 -34 -170q-7 -37 -11 -52t-15 -42.5t-26 -46.5q-5 -6 -8.5 -18t-3.5 -13
q-7 -28 -19.5 -81.5t-15.5 -68.5q-7 -29 -21.5 -87.5t-21.5 -86.5q-14 -46 -16 -57q-2 -15 -21 -29q-27 -17 -43.5 -8t-23.5 35q-7 32 2 59q11 38 30 131t35 142q3 11 -1.5 16t-14.5 4q-6 -1 -44 -0.5t-44 -7.5q-12 -8 -23 0q-11 5 -25 7t-25.5 1t-26.5 0q-46 3 -80 27
q-56 39 -33 121q6 23 15 46t23.5 56.5t18.5 44.5q10 20 39.5 78t44.5 90q7 16 32 54t32 63q2 3 9 8.5t9 7.5q16 23 39 13q24 -10 29 -37q1 -13 -1.5 -28t-5.5 -23t-11.5 -27t-10.5 -23q-37 -91 -74 -139q-10 -12 -18.5 -28t-13 -26.5t-12.5 -33t-11 -29.5q-28 -71 -29 -73
q-14 -40 29 -43h70zM63 96v19q6 26 29 82l119 264q60 141 170 344q89 174 164 299q11 20 34 66t37 71q16 26 79 138.5t104 170.5l30 60q4 6 10.5 11t16 10t12.5 7q20 6 37 -9.5t13 -35.5q0 -3 -11 -41l-129 -221l-57 -100q-53 -102 -131 -242q-151 -266 -332 -647
q-40 -76 -68 -158q-4 -13 -10 -27t-11 -23.5t-14.5 -25.5t-13.5 -24q-3 -14 -12 -18q-6 -1 -15 -5.5t-13.5 -6t-12.5 2.5q-28 14 -25 39z" />
    <glyph glyph-name="questiondown" unicode="&#xbf;" horiz-adv-x="1216" 
d="M231 -160q11 0 21.5 0.5t22.5 3.5l20 5t22 7t19.5 7.5t21 9t19.5 8.5q67 27 158 92q112 81 176 187q64 103 69 207q0 18 4 22q1 2 4.5 9.5t7.5 11t11 2.5q3 0 10.5 -0.5t11.5 -1.5t9 -4t8 -9q19 -30 12 -80q-3 -10 -5.5 -33t-6.5 -36q-48 -130 -121 -213
q-101 -114 -227 -187q-123 -70 -228 -88q-80 -17 -153 29q-23 13 -41 57q-1 2 -5.5 11.5t-5.5 14t-2.5 13t1 15.5t8.5 14q4 37 21.5 75.5t33.5 61.5t47 62q23 31 72 86t57 65q24 29 85.5 101.5t94.5 113.5q86 112 183 250q145 210 252 436q7 14 69 174q1 2 17 29q12 12 36 4
q17 -7 17 -26q-5 -44 -8 -58q-13 -62 -64 -190q-24 -68 -80 -164q-95 -160 -164 -256q-17 -23 -47.5 -67t-56.5 -80t-51 -66q-28 -32 -77 -94.5t-69 -87.5q-26 -30 -78 -86q-85 -95 -151 -183q-37 -50 -51 -98q-11 -39 1 -57t50 -19h20zM1036 1571q0 29 12.5 44.5t41.5 24.5
q34 12 53 -14q22 -36 0 -61q-12 -15 -27 -27q-8 -9 -12.5 -13t-15.5 -8t-21 3q-34 15 -31 51z" />
    <glyph glyph-name="Agrave" unicode="&#xc0;" 
d="M1085 674q-40 2 -117 -4.5t-116 -3.5q-13 1 -22.5 -5.5t-13 -12t-11.5 -19.5q-22 -35 -60.5 -101t-44.5 -77q-67 -112 -168 -314q-80 -152 -96 -192q-5 -14 -13 -27t-21 -31t-17 -24q-6 -10 -23 -27q-14 -11 -36 -4q-17 10 -17 29q0 23 21 84q15 39 34 80.5t47.5 96
t39.5 77.5q136 266 231 411q1 2 2 7t2 6q15 15 6 26q-8 13 -26 2q-6 -4 -23 -4q-55 3 -188 -14q-57 -6 -149.5 -5.5t-149.5 -0.5q-29 -3 -47 18q-8 12 -5 26.5t15 20.5q44 23 71 25q31 3 94.5 5t94.5 5q154 13 207 21q13 1 74.5 5.5t93.5 10.5q22 5 37 27q16 23 45.5 68.5
t44.5 68.5q103 159 268 387q57 79 162 217q19 22 55 67t55 68q11 12 45 51.5t58 65.5t49 49q53 53 104 65q18 5 40.5 -3t31.5 -25q1 -2 4 -10t4 -10.5t3.5 -9.5t3 -10.5t1.5 -9.5t0.5 -10.5t-1 -10t-2.5 -11t-5 -10.5q-2 -25 -8 -53t-11.5 -46.5t-16.5 -52t-15 -47.5
q-21 -60 -63.5 -172t-49.5 -131q-25 -66 -155 -432q-3 -9 -12.5 -39t-16.5 -45q-7 -16 8 -23q5 -3 15.5 -7.5t18 -10t11.5 -14.5q15 -36 -16 -52q-20 -11 -45 -2q-19 6 -25 3t-12 -23q-37 -102 -73 -208t-89 -266t-69 -208q-82 -250 -119 -377q-77 -251 -88 -283
q-17 -63 -17 -69q0 -7 -4 -19q-12 -31 -37 -28q-14 0 -29 11.5t-16 24.5q-4 39 0 58q6 30 20 85t17 68q17 60 51.5 170t42.5 136q10 31 28 85.5t33 100t27 86.5q37 125 123 375q44 123 95 274q10 19 -11 19q-23 -1 -79 5.5t-85 2.5zM1262 764q31 0 37.5 3.5t13.5 23.5
q15 40 42 119.5t42 119.5q9 25 38.5 110.5t47.5 131.5q23 56 46 118t51.5 141.5t43.5 119.5q13 38 33 108q1 2 -0.5 8t-1.5 7q-2 -1 -6.5 -3.5t-6.5 -3.5q-18 -19 -53 -57t-53 -57q-86 -93 -195 -240q-44 -57 -119.5 -163.5t-101.5 -141.5q-18 -25 -49 -72t-45 -67
q-19 -25 -38.5 -54t-42.5 -66t-36 -56q-7 -12 -5 -15.5t16 -3.5q34 -1 107.5 1t129 0t105.5 -11zM1782 2105q16 -20 0 -39q-6 -9 -21 -13.5t-24 1.5q-12 3 -39 21q-64 42 -176 108q-18 9 -35 33q-9 22 0 41q4 10 20.5 13.5t26.5 -1.5q38 -13 53 -24q100 -67 168 -109
q14 -11 27 -31z" />
    <glyph glyph-name="Aacute" unicode="&#xc1;" 
d="M1085 674q-40 2 -117 -4.5t-116 -3.5q-13 1 -22.5 -5.5t-13 -12t-11.5 -19.5q-22 -35 -60.5 -101t-44.5 -77q-67 -112 -168 -314q-80 -152 -96 -192q-5 -14 -13 -27t-21 -31t-17 -24q-6 -10 -23 -27q-14 -11 -36 -4q-17 10 -17 29q0 23 21 84q15 39 34 80.5t47.5 96
t39.5 77.5q136 266 231 411q1 2 2 7t2 6q15 15 6 26q-8 13 -26 2q-6 -4 -23 -4q-55 3 -188 -14q-57 -6 -149.5 -5.5t-149.5 -0.5q-29 -3 -47 18q-8 12 -5 26.5t15 20.5q44 23 71 25q31 3 94.5 5t94.5 5q154 13 207 21q13 1 74.5 5.5t93.5 10.5q22 5 37 27q16 23 45.5 68.5
t44.5 68.5q103 159 268 387q57 79 162 217q19 22 55 67t55 68q11 12 45 51.5t58 65.5t49 49q53 53 104 65q18 5 40.5 -3t31.5 -25q1 -2 4 -10t4 -10.5t3.5 -9.5t3 -10.5t1.5 -9.5t0.5 -10.5t-1 -10t-2.5 -11t-5 -10.5q-2 -25 -8 -53t-11.5 -46.5t-16.5 -52t-15 -47.5
q-21 -60 -63.5 -172t-49.5 -131q-25 -66 -155 -432q-3 -9 -12.5 -39t-16.5 -45q-7 -16 8 -23q5 -3 15.5 -7.5t18 -10t11.5 -14.5q15 -36 -16 -52q-20 -11 -45 -2q-19 6 -25 3t-12 -23q-37 -102 -73 -208t-89 -266t-69 -208q-82 -250 -119 -377q-77 -251 -88 -283
q-17 -63 -17 -69q0 -7 -4 -19q-12 -31 -37 -28q-14 0 -29 11.5t-16 24.5q-4 39 0 58q6 30 20 85t17 68q17 60 51.5 170t42.5 136q10 31 28 85.5t33 100t27 86.5q37 125 123 375q44 123 95 274q10 19 -11 19q-23 -1 -79 5.5t-85 2.5zM1262 764q31 0 37.5 3.5t13.5 23.5
q15 40 42 119.5t42 119.5q9 25 38.5 110.5t47.5 131.5q23 56 46 118t51.5 141.5t43.5 119.5q13 38 33 108q1 2 -0.5 8t-1.5 7q-2 -1 -6.5 -3.5t-6.5 -3.5q-18 -19 -53 -57t-53 -57q-86 -93 -195 -240q-44 -57 -119.5 -163.5t-101.5 -141.5q-18 -25 -49 -72t-45 -67
q-19 -25 -38.5 -54t-42.5 -66t-36 -56q-7 -12 -5 -15.5t16 -3.5q34 -1 107.5 1t129 0t105.5 -11zM1763 2181q27 4 35 -18q5 -10 1 -25.5t-13 -21.5q-13 -11 -37 -23q-117 -60 -182 -98q-26 -13 -45 -13q-25 3 -37 21q-6 9 -1.5 24t13.5 23q37 28 49 33q29 16 89 45t89 45
q16 8 39 8z" />
    <glyph glyph-name="Acircumflex" unicode="&#xc2;" 
d="M1085 674q-40 2 -117 -4.5t-116 -3.5q-13 1 -22.5 -5.5t-13 -12t-11.5 -19.5q-22 -35 -60.5 -101t-44.5 -77q-67 -112 -168 -314q-80 -152 -96 -192q-5 -14 -13 -27t-21 -31t-17 -24q-6 -10 -23 -27q-14 -11 -36 -4q-17 10 -17 29q0 23 21 84q15 39 34 80.5t47.5 96
t39.5 77.5q136 266 231 411q1 2 2 7t2 6q15 15 6 26q-8 13 -26 2q-6 -4 -23 -4q-55 3 -188 -14q-57 -6 -149.5 -5.5t-149.5 -0.5q-29 -3 -47 18q-8 12 -5 26.5t15 20.5q44 23 71 25q31 3 94.5 5t94.5 5q154 13 207 21q13 1 74.5 5.5t93.5 10.5q22 5 37 27q16 23 45.5 68.5
t44.5 68.5q103 159 268 387q57 79 162 217q19 22 55 67t55 68q11 12 45 51.5t58 65.5t49 49q53 53 104 65q18 5 40.5 -3t31.5 -25q1 -2 4 -10t4 -10.5t3.5 -9.5t3 -10.5t1.5 -9.5t0.5 -10.5t-1 -10t-2.5 -11t-5 -10.5q-2 -25 -8 -53t-11.5 -46.5t-16.5 -52t-15 -47.5
q-21 -60 -63.5 -172t-49.5 -131q-25 -66 -155 -432q-3 -9 -12.5 -39t-16.5 -45q-7 -16 8 -23q5 -3 15.5 -7.5t18 -10t11.5 -14.5q15 -36 -16 -52q-20 -11 -45 -2q-19 6 -25 3t-12 -23q-37 -102 -73 -208t-89 -266t-69 -208q-82 -250 -119 -377q-77 -251 -88 -283
q-17 -63 -17 -69q0 -7 -4 -19q-12 -31 -37 -28q-14 0 -29 11.5t-16 24.5q-4 39 0 58q6 30 20 85t17 68q17 60 51.5 170t42.5 136q10 31 28 85.5t33 100t27 86.5q37 125 123 375q44 123 95 274q10 19 -11 19q-23 -1 -79 5.5t-85 2.5zM1262 764q31 0 37.5 3.5t13.5 23.5
q15 40 42 119.5t42 119.5q9 25 38.5 110.5t47.5 131.5q23 56 46 118t51.5 141.5t43.5 119.5q13 38 33 108q1 2 -0.5 8t-1.5 7q-2 -1 -6.5 -3.5t-6.5 -3.5q-18 -19 -53 -57t-53 -57q-86 -93 -195 -240q-44 -57 -119.5 -163.5t-101.5 -141.5q-18 -25 -49 -72t-45 -67
q-19 -25 -38.5 -54t-42.5 -66t-36 -56q-7 -12 -5 -15.5t16 -3.5q34 -1 107.5 1t129 0t105.5 -11zM1823 2040q0 -39 -39 -53q-5 -2 -17 4q-29 11 -57 51t-43 69q-10 12 -25 3q-8 -4 -15 -10t-15 -14.5t-13 -12.5q-11 -10 -31 -32t-32 -32q-13 -13 -31 -22q-20 -10 -35 2
q-21 18 -16 39q7 25 23 41q14 14 39 39.5t46 46.5t40 39q27 27 65 24q16 0 31 -12q45 -43 117 -148q2 -4 8 -22z" />
    <glyph glyph-name="Atilde" unicode="&#xc3;" 
d="M1085 674q-40 2 -117 -4.5t-116 -3.5q-13 1 -22.5 -5.5t-13 -12t-11.5 -19.5q-22 -35 -60.5 -101t-44.5 -77q-67 -112 -168 -314q-80 -152 -96 -192q-5 -14 -13 -27t-21 -31t-17 -24q-6 -10 -23 -27q-14 -11 -36 -4q-17 10 -17 29q0 23 21 84q15 39 34 80.5t47.5 96
t39.5 77.5q136 266 231 411q1 2 2 7t2 6q15 15 6 26q-8 13 -26 2q-6 -4 -23 -4q-55 3 -188 -14q-57 -6 -149.5 -5.5t-149.5 -0.5q-29 -3 -47 18q-8 12 -5 26.5t15 20.5q44 23 71 25q31 3 94.5 5t94.5 5q154 13 207 21q13 1 74.5 5.5t93.5 10.5q22 5 37 27q16 23 45.5 68.5
t44.5 68.5q103 159 268 387q57 79 162 217q19 22 55 67t55 68q11 12 45 51.5t58 65.5t49 49q53 53 104 65q18 5 40.5 -3t31.5 -25q1 -2 4 -10t4 -10.5t3.5 -9.5t3 -10.5t1.5 -9.5t0.5 -10.5t-1 -10t-2.5 -11t-5 -10.5q-2 -25 -8 -53t-11.5 -46.5t-16.5 -52t-15 -47.5
q-21 -60 -63.5 -172t-49.5 -131q-25 -66 -155 -432q-3 -9 -12.5 -39t-16.5 -45q-7 -16 8 -23q5 -3 15.5 -7.5t18 -10t11.5 -14.5q15 -36 -16 -52q-20 -11 -45 -2q-19 6 -25 3t-12 -23q-37 -102 -73 -208t-89 -266t-69 -208q-82 -250 -119 -377q-77 -251 -88 -283
q-17 -63 -17 -69q0 -7 -4 -19q-12 -31 -37 -28q-14 0 -29 11.5t-16 24.5q-4 39 0 58q6 30 20 85t17 68q17 60 51.5 170t42.5 136q10 31 28 85.5t33 100t27 86.5q37 125 123 375q44 123 95 274q10 19 -11 19q-23 -1 -79 5.5t-85 2.5zM1262 764q31 0 37.5 3.5t13.5 23.5
q15 40 42 119.5t42 119.5q9 25 38.5 110.5t47.5 131.5q23 56 46 118t51.5 141.5t43.5 119.5q13 38 33 108q1 2 -0.5 8t-1.5 7q-2 -1 -6.5 -3.5t-6.5 -3.5q-18 -19 -53 -57t-53 -57q-86 -93 -195 -240q-44 -57 -119.5 -163.5t-101.5 -141.5q-18 -25 -49 -72t-45 -67
q-19 -25 -38.5 -54t-42.5 -66t-36 -56q-7 -12 -5 -15.5t16 -3.5q34 -1 107.5 1t129 0t105.5 -11zM1720 1997q-71 -5 -121 76q-14 26 -28 71q-1 1 -2.5 8.5t-3.5 10.5q-5 11 -14.5 11.5t-14.5 -9.5q-1 -3 -15 -35t-20 -49q-1 -4 -5 -15.5t-5 -17.5q-6 -19 -21 -27.5t-32 -3.5
q-15 5 -27 23t-8 33q6 17 12.5 47t9.5 41q28 78 107 106q31 12 62 0t48 -41q17 -34 25 -65q8 -33 33 -54q39 -32 67 13q8 14 14 30t12.5 37t10.5 31q5 18 19 39q17 24 43 14q25 -11 28 -35q3 -67 -14 -108q-23 -52 -31 -66q-44 -68 -129 -65z" />
    <glyph glyph-name="Adieresis" unicode="&#xc4;" 
d="M1085 674q-40 2 -117 -4.5t-116 -3.5q-13 1 -22.5 -5.5t-13 -12t-11.5 -19.5q-22 -35 -60.5 -101t-44.5 -77q-67 -112 -168 -314q-80 -152 -96 -192q-5 -14 -13 -27t-21 -31t-17 -24q-6 -10 -23 -27q-14 -11 -36 -4q-17 10 -17 29q0 23 21 84q15 39 34 80.5t47.5 96
t39.5 77.5q136 266 231 411q1 2 2 7t2 6q15 15 6 26q-8 13 -26 2q-6 -4 -23 -4q-55 3 -188 -14q-57 -6 -149.5 -5.5t-149.5 -0.5q-29 -3 -47 18q-8 12 -5 26.5t15 20.5q44 23 71 25q31 3 94.5 5t94.5 5q154 13 207 21q13 1 74.5 5.5t93.5 10.5q22 5 37 27q16 23 45.5 68.5
t44.5 68.5q103 159 268 387q57 79 162 217q19 22 55 67t55 68q11 12 45 51.5t58 65.5t49 49q53 53 104 65q18 5 40.5 -3t31.5 -25q1 -2 4 -10t4 -10.5t3.5 -9.5t3 -10.5t1.5 -9.5t0.5 -10.5t-1 -10t-2.5 -11t-5 -10.5q-2 -25 -8 -53t-11.5 -46.5t-16.5 -52t-15 -47.5
q-21 -60 -63.5 -172t-49.5 -131q-25 -66 -155 -432q-3 -9 -12.5 -39t-16.5 -45q-7 -16 8 -23q5 -3 15.5 -7.5t18 -10t11.5 -14.5q15 -36 -16 -52q-20 -11 -45 -2q-19 6 -25 3t-12 -23q-37 -102 -73 -208t-89 -266t-69 -208q-82 -250 -119 -377q-77 -251 -88 -283
q-17 -63 -17 -69q0 -7 -4 -19q-12 -31 -37 -28q-14 0 -29 11.5t-16 24.5q-4 39 0 58q6 30 20 85t17 68q17 60 51.5 170t42.5 136q10 31 28 85.5t33 100t27 86.5q37 125 123 375q44 123 95 274q10 19 -11 19q-23 -1 -79 5.5t-85 2.5zM1262 764q31 0 37.5 3.5t13.5 23.5
q15 40 42 119.5t42 119.5q9 25 38.5 110.5t47.5 131.5q23 56 46 118t51.5 141.5t43.5 119.5q13 38 33 108q1 2 -0.5 8t-1.5 7q-2 -1 -6.5 -3.5t-6.5 -3.5q-18 -19 -53 -57t-53 -57q-86 -93 -195 -240q-44 -57 -119.5 -163.5t-101.5 -141.5q-18 -25 -49 -72t-45 -67
q-19 -25 -38.5 -54t-42.5 -66t-36 -56q-7 -12 -5 -15.5t16 -3.5q34 -1 107.5 1t129 0t105.5 -11zM1593 2107q43 0 43 -55q-2 -22 -16.5 -36.5t-36.5 -14.5q-45 3 -45 49q0 57 55 57zM1724 2107q46 0 43 -55q0 -21 -15 -36t-36 -15q-25 1 -35 12.5t-10 36.5q0 57 53 57z" />
    <glyph glyph-name="Aring" unicode="&#xc5;" 
d="M1085 674q-40 2 -117 -4.5t-116 -3.5q-13 1 -22.5 -5.5t-13 -12t-11.5 -19.5q-22 -35 -60.5 -101t-44.5 -77q-67 -112 -168 -314q-80 -152 -96 -192q-5 -14 -13 -27t-21 -31t-17 -24q-6 -10 -23 -27q-14 -11 -36 -4q-17 10 -17 29q0 23 21 84q15 39 34 80.5t47.5 96
t39.5 77.5q136 266 231 411q1 2 2 7t2 6q15 15 6 26q-8 13 -26 2q-6 -4 -23 -4q-55 3 -188 -14q-57 -6 -149.5 -5.5t-149.5 -0.5q-29 -3 -47 18q-8 12 -5 26.5t15 20.5q44 23 71 25q31 3 94.5 5t94.5 5q154 13 207 21q13 1 74.5 5.5t93.5 10.5q22 5 37 27q16 23 45.5 68.5
t44.5 68.5q103 159 268 387q57 79 162 217q19 22 55 67t55 68q11 12 45 51.5t58 65.5t49 49q53 53 104 65q18 5 40.5 -3t31.5 -25q1 -2 4 -10t4 -10.5t3.5 -9.5t3 -10.5t1.5 -9.5t0.5 -10.5t-1 -10t-2.5 -11t-5 -10.5q-2 -25 -8 -53t-11.5 -46.5t-16.5 -52t-15 -47.5
q-21 -60 -63.5 -172t-49.5 -131q-25 -66 -155 -432q-3 -9 -12.5 -39t-16.5 -45q-7 -16 8 -23q5 -3 15.5 -7.5t18 -10t11.5 -14.5q15 -36 -16 -52q-20 -11 -45 -2q-19 6 -25 3t-12 -23q-37 -102 -73 -208t-89 -266t-69 -208q-82 -250 -119 -377q-77 -251 -88 -283
q-17 -63 -17 -69q0 -7 -4 -19q-12 -31 -37 -28q-14 0 -29 11.5t-16 24.5q-4 39 0 58q6 30 20 85t17 68q17 60 51.5 170t42.5 136q10 31 28 85.5t33 100t27 86.5q37 125 123 375q44 123 95 274q10 19 -11 19q-23 -1 -79 5.5t-85 2.5zM1262 764q31 0 37.5 3.5t13.5 23.5
q15 40 42 119.5t42 119.5q9 25 38.5 110.5t47.5 131.5q23 56 46 118t51.5 141.5t43.5 119.5q13 38 33 108q1 2 -0.5 8t-1.5 7q-2 -1 -6.5 -3.5t-6.5 -3.5q-18 -19 -53 -57t-53 -57q-86 -93 -195 -240q-44 -57 -119.5 -163.5t-101.5 -141.5q-18 -25 -49 -72t-45 -67
q-19 -25 -38.5 -54t-42.5 -66t-36 -56q-7 -12 -5 -15.5t16 -3.5q34 -1 107.5 1t129 0t105.5 -11zM1591 2009q-78 -3 -121 45q-39 39 -20 86q29 81 92 125q88 56 162 51q59 -6 98 -45q43 -43 17 -114q-36 -97 -156 -136q-51 -18 -72 -12zM1591 2107q93 0 135 72q10 19 5.5 27
t-25.5 10q-91 10 -141 -57q-2 -3 -9.5 -11t-10.5 -14.5t-1 -13.5q4 -8 12 -11t16.5 -2t18.5 0z" />
    <glyph glyph-name="AE" unicode="&#xc6;" horiz-adv-x="2500" 
d="M1085 674q-40 2 -117 -4.5t-116 -3.5q-13 1 -22.5 -5.5t-13 -12t-11.5 -19.5q-22 -35 -60.5 -101t-44.5 -77q-67 -112 -168 -314q-80 -152 -96 -192q-5 -14 -13 -27t-21 -31t-17 -24q-6 -10 -23 -27q-14 -11 -36 -4q-17 10 -17 29q0 23 21 84q15 39 34 80.5t47.5 96
t39.5 77.5q136 266 231 411q1 2 2 7t2 6q15 15 6 26q-8 13 -26 2q-6 -4 -23 -4q-55 3 -188 -14q-57 -6 -149.5 -5.5t-149.5 -0.5q-29 -3 -47 18q-8 12 -5 26.5t15 20.5q44 23 71 25q31 3 94.5 5t94.5 5q154 13 207 21q13 1 74.5 5.5t93.5 10.5q22 5 37 27q16 23 45.5 68.5
t44.5 68.5q103 159 268 387q57 79 162 217q19 22 55 67t55 68q11 12 45 51.5t58 65.5t49 49q53 53 104 65q18 5 40.5 -3t31.5 -25q1 -2 4 -10t4 -10.5t3.5 -9.5t3 -10.5t1.5 -9.5t0.5 -10.5t-1 -10t-2.5 -11t-5 -10.5q-2 -25 -8 -53t-11.5 -46.5t-16.5 -52t-15 -47.5
q-21 -60 -63.5 -172t-49.5 -131q-25 -66 -155 -432q-3 -9 -12.5 -39t-16.5 -45q-7 -16 8 -23q5 -3 15.5 -7.5t18 -10t11.5 -14.5q15 -36 -16 -52q-20 -11 -45 -2q-19 6 -25 3t-12 -23q-37 -102 -73 -208t-89 -266t-69 -208q-82 -250 -119 -377q-77 -251 -88 -283
q-17 -63 -17 -69q0 -7 -4 -19q-12 -31 -37 -28q-14 0 -29 11.5t-16 24.5q-4 39 0 58q6 30 20 85t17 68q17 60 51.5 170t42.5 136q10 31 28 85.5t33 100t27 86.5q37 125 123 375q44 123 95 274q10 19 -11 19q-23 -1 -79 5.5t-85 2.5zM1262 764q31 0 37.5 3.5t13.5 23.5
q15 40 42 119.5t42 119.5q9 25 38.5 110.5t47.5 131.5q23 56 46 118t51.5 141.5t43.5 119.5q13 38 33 108q1 2 -0.5 8t-1.5 7q-2 -1 -6.5 -3.5t-6.5 -3.5q-18 -19 -53 -57t-53 -57q-86 -93 -195 -240q-44 -57 -119.5 -163.5t-101.5 -141.5q-18 -25 -49 -72t-45 -67
q-19 -25 -38.5 -54t-42.5 -66t-36 -56q-7 -12 -5 -15.5t16 -3.5q34 -1 107.5 1t129 0t105.5 -11zM2847 1702q-17 -26 -41.5 -35.5t-61.5 -13.5q-14 -1 -67.5 -6.5t-83.5 -6.5q-39 -3 -122.5 -10t-127.5 -10q-22 -1 -63.5 -4t-61.5 -4q-15 0 -43 -8q-10 -3 -18 -13
q-33 -56 -101 -135q-30 -36 -84 -106.5t-80 -102.5q-28 -33 -131 -174q-46 -65 -157 -235q-6 -12 -5 -15q3 -3 4 -3.5t5 2t6 3.5h4q27 -2 56 0.5t67.5 7.5t56.5 7q43 4 136 4.5t141 5.5q37 3 104 3.5t96 2.5q26 0 41 -10q17 -9 19 -25t-13 -30q-20 -23 -57 -23q-21 0 -45 -2
t-53.5 -5.5t-44.5 -4.5q-23 -3 -75.5 -5t-80.5 -6t-82 -4.5t-78 -3.5q-149 -16 -221 -20q-8 0 -25.5 -4.5t-27.5 -3.5q-10 0 -23 -17q-15 -25 -43.5 -77.5t-42.5 -77.5q-46 -79 -135 -261q-74 -155 -100 -282q-16 -82 -6 -127q20 -87 100 -129q89 -50 191 -62q8 0 26 -5.5
t29 -4.5q3 0 57 -6q81 -8 121 2q39 7 96 14h4q9 1 17.5 -0.5t22.5 -7t16 -6.5q-7 -12 -29 -43q-22 -27 -76 -39q-91 -20 -215 -10q-78 5 -174 29q-118 29 -186 84q-63 51 -103 153q-2 5 -2 33q-13 118 41 264q50 132 76 182q8 15 25 56t30 61q11 19 56 105t75 129q1 2 3 7
t3 7q5 8 -4 8q-3 0 -17.5 1t-23.5 0t-18 -5q-8 -4 -12 -4q-29 2 -84.5 -4.5t-81.5 -5.5q-50 0 -76 39q-11 17 0 26q27 23 43 23q14 0 38.5 3.5t33.5 4.5q34 6 98.5 12.5t83.5 9.5q51 10 66 9q22 0 43 30q11 16 32.5 50.5t32.5 50.5q58 89 133 194q102 140 131 178
q70 86 105 127q20 25 61 75.5t62 76.5q4 8 6 10q-12 4 -15 4q-27 0 -104 -14q-55 -8 -86 -14q-26 -5 -84.5 -16.5t-89.5 -16.5q-29 -6 -86 -18.5t-86 -18.5q-58 -12 -62 -12q-29 0 -43 28q-9 21 13 43q14 15 59 29q118 24 145 31q84 23 252 55q14 3 158 25q13 2 60.5 4
t72.5 12h4q32 -2 92 4.5t89 5.5q41 0 116 7t97 8q88 0 131 8q19 3 110 8q42 3 66 -31v-18z" />
    <glyph glyph-name="Ccedilla" unicode="&#xc7;" horiz-adv-x="1607" 
d="M115 -76v49q2 25 6.5 55.5t8.5 50.5t11.5 57t10.5 52q31 154 133 422q61 154 157 326q95 176 211 334q62 85 166 200q42 44 125 123q120 102 219 146q72 32 131 37q66 5 118.5 -34t66.5 -114q25 -116 -33 -274q-14 -45 -60 -45q-25 2 -37 19.5t-3 41.5q5 13 9.5 26.5
t8 29.5t5.5 26.5t4 29.5t3 27t1.5 29.5t1 27.5t1 30t0.5 28q1 18 -13.5 33.5t-33.5 17.5q-54 9 -100 -10q-111 -44 -211 -131q-27 -27 -43 -39q-132 -119 -272 -319q-121 -172 -213 -349q-105 -206 -172 -403q-35 -98 -80 -285q-12 -53 -15 -106q-1 -11 -5 -35t-5 -34.5
t-2.5 -34.5t0.5 -35q0 -136 33 -211q41 -100 141 -109q46 -3 103 18q105 41 192 109q19 14 39.5 30.5t36 30t38 34t34.5 31.5t36.5 35.5l32.5 32.5l35.5 35.5l32.5 32.5q62 56 161 174q13 16 38 42t36 38q35 40 109 125.5t114 130.5q37 42 113 136t119 141q9 10 33 49
q14 18 27.5 19t31.5 -9q37 -19 18 -61q-24 -50 -45 -74q-18 -19 -48 -60t-44 -57q-25 -28 -137 -164q-4 -5 -47.5 -54.5t-65.5 -76.5q-16 -20 -63 -67q-25 -30 -75 -84t-68 -74q-86 -97 -185 -189q-69 -82 -135 -135q-104 -98 -211 -162q-119 -66 -194 -75q-118 -15 -189 32
q-51 31 -86 84q-40 65 -57 168q-8 53 -4 164zM399 -924q-57 0 -80 11q-19 7 -22 34q0 23 20 29q3 1 22 7.5t28 6.5q39 0 129 21q112 30 176 102q26 26 -8 39q-58 27 -138 10q-41 -7 -69 -26q-20 -17 -50 -5t-30 46q0 90 43 155q3 6 10.5 25t15.5 27q9 11 22.5 16.5t20.5 1.5
q27 -17 27 -43q0 -23 -22 -78q-1 -3 -4 -7t-3.5 -6t2.5 -7q3 -4 6.5 -5t10.5 0l6 1q2 0 14 6q113 18 213 -41q31 -18 40 -55.5t-7 -73.5q-28 -66 -117 -119q-118 -72 -256 -72z" />
    <glyph glyph-name="Egrave" unicode="&#xc8;" horiz-adv-x="1542" 
d="M1888 1798q-17 -26 -41 -35.5t-61 -13.5q-17 -1 -48 -4t-56 -5t-48 -3q-40 -3 -123.5 -10.5t-126.5 -10.5q-22 -1 -63 -4t-61 -4q-15 0 -43 -8q-12 -3 -19 -12q-38 -63 -100 -136q-30 -36 -84 -106.5t-80 -102.5q-28 -33 -131 -174q-60 -85 -158 -235q-5 -11 -4 -14
q3 -3 4 -3.5t4.5 2t5.5 3.5h4q27 -2 55.5 0t69.5 7t56 7q43 4 135.5 4.5t140.5 5.5q37 3 104.5 3.5t96.5 2.5q26 0 41 -10q17 -9 19 -25t-13 -30q-20 -23 -57 -23q-21 0 -45 -2t-54 -5.5t-45 -4.5q-23 -3 -75 -4.5t-80 -5.5t-82 -4.5t-78 -3.5q-168 -18 -221 -21
q-8 0 -26 -4.5t-28 -3.5q-9 0 -22 -17q-15 -25 -43 -77t-43 -78q-49 -84 -135 -260q-75 -158 -101 -283q-16 -82 -6 -127q20 -86 101 -129q88 -49 190 -61q8 0 26 -6t29 -5q4 0 58 -6q81 -8 121 2q55 10 96 15h4q9 1 18 -1t21 -7.5t16 -6.5q-7 -12 -29 -43q-22 -27 -75 -39
q-91 -20 -215 -10q-78 5 -174 29q-120 29 -187 84q-62 50 -102 153q-2 5 -2 33q-13 118 41 264q51 136 76 183q8 15 25 55.5t30 60.5q11 19 56 105t75 129q1 2 3 7t3 7q5 8 -4 8q-3 0 -17.5 1t-23.5 0t-18 -5q-8 -4 -13 -4q-29 2 -84.5 -4.5t-81.5 -5.5q-49 0 -75 39
q-11 17 0 26q27 23 43 23q14 0 38 3.5t33 4.5q35 6 102 13.5t81 9.5q48 10 65 8q11 0 20 6t12 9.5t11 15.5q11 16 32.5 49.5t33.5 50.5q65 100 133 195q102 140 131 178q90 111 104 127q21 25 62 75.5t61 75.5q5 10 6 11q-12 4 -14 4q-21 0 -104 -15q-58 -8 -87 -14
q-26 -5 -84.5 -16.5t-89.5 -16.5q-29 -6 -86 -18.5t-86 -18.5q-59 -12 -61 -12q-29 0 -43 29q-9 22 12 43q12 14 60 28q118 24 145 31q84 23 252 55q14 3 158 25q13 2 60.5 4t72.5 12h4q32 -2 91.5 5t88.5 6q42 0 118 6.5t95 7.5q88 0 131 8q19 3 111 8q42 3 65 -30v-19z
M1329 1982q16 -20 0 -38q-6 -9 -21 -14t-24 1q-12 3 -39 21q-64 42 -176 108q-18 9 -35 33q-9 22 0 41q4 10 20.5 13.5t26.5 -1.5q40 -13 54 -24q100 -67 168 -109q11 -9 26 -31z" />
    <glyph glyph-name="Eacute" unicode="&#xc9;" horiz-adv-x="1542" 
d="M1888 1798q-17 -26 -41 -35.5t-61 -13.5q-17 -1 -48 -4t-56 -5t-48 -3q-40 -3 -123.5 -10.5t-126.5 -10.5q-22 -1 -63 -4t-61 -4q-15 0 -43 -8q-12 -3 -19 -12q-38 -63 -100 -136q-30 -36 -84 -106.5t-80 -102.5q-28 -33 -131 -174q-60 -85 -158 -235q-5 -11 -4 -14
q3 -3 4 -3.5t4.5 2t5.5 3.5h4q27 -2 55.5 0t69.5 7t56 7q43 4 135.5 4.5t140.5 5.5q37 3 104.5 3.5t96.5 2.5q26 0 41 -10q17 -9 19 -25t-13 -30q-20 -23 -57 -23q-21 0 -45 -2t-54 -5.5t-45 -4.5q-23 -3 -75 -4.5t-80 -5.5t-82 -4.5t-78 -3.5q-168 -18 -221 -21
q-8 0 -26 -4.5t-28 -3.5q-9 0 -22 -17q-15 -25 -43 -77t-43 -78q-49 -84 -135 -260q-75 -158 -101 -283q-16 -82 -6 -127q20 -86 101 -129q88 -49 190 -61q8 0 26 -6t29 -5q4 0 58 -6q81 -8 121 2q55 10 96 15h4q9 1 18 -1t21 -7.5t16 -6.5q-7 -12 -29 -43q-22 -27 -75 -39
q-91 -20 -215 -10q-78 5 -174 29q-120 29 -187 84q-62 50 -102 153q-2 5 -2 33q-13 118 41 264q51 136 76 183q8 15 25 55.5t30 60.5q11 19 56 105t75 129q1 2 3 7t3 7q5 8 -4 8q-3 0 -17.5 1t-23.5 0t-18 -5q-8 -4 -13 -4q-29 2 -84.5 -4.5t-81.5 -5.5q-49 0 -75 39
q-11 17 0 26q27 23 43 23q14 0 38 3.5t33 4.5q35 6 102 13.5t81 9.5q48 10 65 8q11 0 20 6t12 9.5t11 15.5q11 16 32.5 49.5t33.5 50.5q65 100 133 195q102 140 131 178q90 111 104 127q21 25 62 75.5t61 75.5q5 10 6 11q-12 4 -14 4q-21 0 -104 -15q-58 -8 -87 -14
q-26 -5 -84.5 -16.5t-89.5 -16.5q-29 -6 -86 -18.5t-86 -18.5q-59 -12 -61 -12q-29 0 -43 29q-9 22 12 43q12 14 60 28q118 24 145 31q84 23 252 55q14 3 158 25q13 2 60.5 4t72.5 12h4q32 -2 91.5 5t88.5 6q42 0 118 6.5t95 7.5q88 0 131 8q19 3 111 8q42 3 65 -30v-19z
M1309 2146q26 4 34 -18q5 -10 1 -25.5t-13 -21.5q-13 -11 -37 -23q-117 -60 -182 -98q-24 -12 -45 -12q-26 3 -37 20q-6 9 -1.5 24t13.5 23q35 26 50 33q30 16 89.5 45t88.5 45q16 8 39 8z" />
    <glyph glyph-name="Ecircumflex" unicode="&#xca;" horiz-adv-x="1542" 
d="M1888 1798q-17 -26 -41 -35.5t-61 -13.5q-17 -1 -48 -4t-56 -5t-48 -3q-40 -3 -123.5 -10.5t-126.5 -10.5q-22 -1 -63 -4t-61 -4q-15 0 -43 -8q-12 -3 -19 -12q-38 -63 -100 -136q-30 -36 -84 -106.5t-80 -102.5q-28 -33 -131 -174q-60 -85 -158 -235q-5 -11 -4 -14
q3 -3 4 -3.5t4.5 2t5.5 3.5h4q27 -2 55.5 0t69.5 7t56 7q43 4 135.5 4.5t140.5 5.5q37 3 104.5 3.5t96.5 2.5q26 0 41 -10q17 -9 19 -25t-13 -30q-20 -23 -57 -23q-21 0 -45 -2t-54 -5.5t-45 -4.5q-23 -3 -75 -4.5t-80 -5.5t-82 -4.5t-78 -3.5q-168 -18 -221 -21
q-8 0 -26 -4.5t-28 -3.5q-9 0 -22 -17q-15 -25 -43 -77t-43 -78q-49 -84 -135 -260q-75 -158 -101 -283q-16 -82 -6 -127q20 -86 101 -129q88 -49 190 -61q8 0 26 -6t29 -5q4 0 58 -6q81 -8 121 2q55 10 96 15h4q9 1 18 -1t21 -7.5t16 -6.5q-7 -12 -29 -43q-22 -27 -75 -39
q-91 -20 -215 -10q-78 5 -174 29q-120 29 -187 84q-62 50 -102 153q-2 5 -2 33q-13 118 41 264q51 136 76 183q8 15 25 55.5t30 60.5q11 19 56 105t75 129q1 2 3 7t3 7q5 8 -4 8q-3 0 -17.5 1t-23.5 0t-18 -5q-8 -4 -13 -4q-29 2 -84.5 -4.5t-81.5 -5.5q-49 0 -75 39
q-11 17 0 26q27 23 43 23q14 0 38 3.5t33 4.5q35 6 102 13.5t81 9.5q48 10 65 8q11 0 20 6t12 9.5t11 15.5q11 16 32.5 49.5t33.5 50.5q65 100 133 195q102 140 131 178q90 111 104 127q21 25 62 75.5t61 75.5q5 10 6 11q-12 4 -14 4q-21 0 -104 -15q-58 -8 -87 -14
q-26 -5 -84.5 -16.5t-89.5 -16.5q-29 -6 -86 -18.5t-86 -18.5q-59 -12 -61 -12q-29 0 -43 29q-9 22 12 43q12 14 60 28q118 24 145 31q84 23 252 55q14 3 158 25q13 2 60.5 4t72.5 12h4q32 -2 91.5 5t88.5 6q42 0 118 6.5t95 7.5q88 0 131 8q19 3 111 8q42 3 65 -30v-19z
M1382 1999q0 -39 -39 -53q-5 -2 -16 4q-29 11 -57 51q-26 37 -43 70q-9 11 -25 2q-8 -4 -15 -10t-15 -14.5t-13 -12.5q-12 -10 -32 -32t-31 -32q-13 -13 -31 -22q-20 -10 -35 2q-21 18 -16 39q8 27 22 41t39 39.5t46 46.5t40 39q27 27 66 24q15 0 30 -12q45 -43 117 -148
q2 -4 8 -22z" />
    <glyph glyph-name="Edieresis" unicode="&#xcb;" horiz-adv-x="1542" 
d="M1888 1798q-17 -26 -41 -35.5t-61 -13.5q-17 -1 -48 -4t-56 -5t-48 -3q-40 -3 -123.5 -10.5t-126.5 -10.5q-22 -1 -63 -4t-61 -4q-15 0 -43 -8q-12 -3 -19 -12q-38 -63 -100 -136q-30 -36 -84 -106.5t-80 -102.5q-28 -33 -131 -174q-60 -85 -158 -235q-5 -11 -4 -14
q3 -3 4 -3.5t4.5 2t5.5 3.5h4q27 -2 55.5 0t69.5 7t56 7q43 4 135.5 4.5t140.5 5.5q37 3 104.5 3.5t96.5 2.5q26 0 41 -10q17 -9 19 -25t-13 -30q-20 -23 -57 -23q-21 0 -45 -2t-54 -5.5t-45 -4.5q-23 -3 -75 -4.5t-80 -5.5t-82 -4.5t-78 -3.5q-168 -18 -221 -21
q-8 0 -26 -4.5t-28 -3.5q-9 0 -22 -17q-15 -25 -43 -77t-43 -78q-49 -84 -135 -260q-75 -158 -101 -283q-16 -82 -6 -127q20 -86 101 -129q88 -49 190 -61q8 0 26 -6t29 -5q4 0 58 -6q81 -8 121 2q55 10 96 15h4q9 1 18 -1t21 -7.5t16 -6.5q-7 -12 -29 -43q-22 -27 -75 -39
q-91 -20 -215 -10q-78 5 -174 29q-120 29 -187 84q-62 50 -102 153q-2 5 -2 33q-13 118 41 264q51 136 76 183q8 15 25 55.5t30 60.5q11 19 56 105t75 129q1 2 3 7t3 7q5 8 -4 8q-3 0 -17.5 1t-23.5 0t-18 -5q-8 -4 -13 -4q-29 2 -84.5 -4.5t-81.5 -5.5q-49 0 -75 39
q-11 17 0 26q27 23 43 23q14 0 38 3.5t33 4.5q35 6 102 13.5t81 9.5q48 10 65 8q11 0 20 6t12 9.5t11 15.5q11 16 32.5 49.5t33.5 50.5q65 100 133 195q102 140 131 178q90 111 104 127q21 25 62 75.5t61 75.5q5 10 6 11q-12 4 -14 4q-21 0 -104 -15q-58 -8 -87 -14
q-26 -5 -84.5 -16.5t-89.5 -16.5q-29 -6 -86 -18.5t-86 -18.5q-59 -12 -61 -12q-29 0 -43 29q-9 22 12 43q12 14 60 28q118 24 145 31q84 23 252 55q14 3 158 25q13 2 60.5 4t72.5 12h4q32 -2 91.5 5t88.5 6q42 0 118 6.5t95 7.5q88 0 131 8q19 3 111 8q42 3 65 -30v-19z
M1157 2075q43 0 43 -56q-2 -22 -16.5 -36.5t-36.5 -14.5q-45 3 -45 49q0 58 55 58zM1288 2075q46 0 43 -56q0 -21 -15 -36t-36 -15q-25 1 -35 12.5t-10 36.5q0 28 14 43t39 15z" />
    <glyph glyph-name="Igrave" unicode="&#xcc;" horiz-adv-x="925" 
d="M1024 1862q15 0 43 1t44.5 0.5t31.5 -3.5q10 -1 90.5 -6.5t120.5 -20.5q20 -7 32.5 -19.5t10.5 -23.5q-2 -15 -17.5 -26t-38.5 -11q-129 0 -155 2q-12 0 -38 4.5t-40 3.5q-9 0 -14 -10q-21 -45 -76 -123q-17 -24 -45.5 -72t-42.5 -69q-49 -83 -148 -277
q-74 -144 -151 -319q-100 -215 -142 -320q-19 -48 -56 -139.5t-65.5 -164.5t-52.5 -140q-53 -138 -118 -338q-1 -3 -5 -10.5t-4 -11.5q0 -21 15 -21q8 1 33.5 0.5t33.5 5.5q21 8 33 2q13 -5 29.5 -7t29.5 -1t29 0h15q43 -5 47 -27q6 -17 -31 -38q-30 -20 -64 -23
q-17 -1 -70.5 -6t-82.5 -4q-27 1 -53 -1.5t-68 -9.5t-51 -8q-21 -2 -45 -2t-53.5 1t-45.5 1q-9 0 -20 11q-16 12 -2 26q49 46 133 60q8 1 24.5 4.5t28.5 5t23 0.5q24 0 24 20q0 27 6 58t13 51.5t19 55.5t18 52q53 153 127 336q18 44 51.5 133.5t52.5 133.5q13 33 41 93
t35 77q16 35 54.5 123.5t60.5 134.5q34 75 137 276q50 97 73.5 141t68 120t85.5 134q1 2 3 6.5t3 6.5q6 11 18.5 33.5t18.5 33.5q-29 12 -86 4q-14 -1 -41 -4t-41 -4q-12 -1 -110 10q-7 0 -15 4q-12 6 -14.5 18.5t6.5 24.5q21 31 55 31q48 2 138 14q29 3 79.5 4t67.5 3z
M1169 2036q16 -20 0 -39q-6 -9 -21 -13.5t-24 1.5q-14 4 -39 20q-82 53 -176 109q-19 9 -35 32q-9 22 0 41q4 10 21 14t27 -1q35 -12 53 -25q100 -67 168 -109q13 -10 26 -30z" />
    <glyph glyph-name="Iacute" unicode="&#xcd;" horiz-adv-x="925" 
d="M1024 1862q15 0 43 1t44.5 0.5t31.5 -3.5q10 -1 90.5 -6.5t120.5 -20.5q20 -7 32.5 -19.5t10.5 -23.5q-2 -15 -17.5 -26t-38.5 -11q-129 0 -155 2q-12 0 -38 4.5t-40 3.5q-9 0 -14 -10q-21 -45 -76 -123q-17 -24 -45.5 -72t-42.5 -69q-49 -83 -148 -277
q-74 -144 -151 -319q-100 -215 -142 -320q-19 -48 -56 -139.5t-65.5 -164.5t-52.5 -140q-53 -138 -118 -338q-1 -3 -5 -10.5t-4 -11.5q0 -21 15 -21q8 1 33.5 0.5t33.5 5.5q21 8 33 2q13 -5 29.5 -7t29.5 -1t29 0h15q43 -5 47 -27q6 -17 -31 -38q-30 -20 -64 -23
q-17 -1 -70.5 -6t-82.5 -4q-27 1 -53 -1.5t-68 -9.5t-51 -8q-21 -2 -45 -2t-53.5 1t-45.5 1q-9 0 -20 11q-16 12 -2 26q49 46 133 60q8 1 24.5 4.5t28.5 5t23 0.5q24 0 24 20q0 27 6 58t13 51.5t19 55.5t18 52q53 153 127 336q18 44 51.5 133.5t52.5 133.5q13 33 41 93
t35 77q16 35 54.5 123.5t60.5 134.5q34 75 137 276q50 97 73.5 141t68 120t85.5 134q1 2 3 6.5t3 6.5q6 11 18.5 33.5t18.5 33.5q-29 12 -86 4q-14 -1 -41 -4t-41 -4q-12 -1 -110 10q-7 0 -15 4q-12 6 -14.5 18.5t6.5 24.5q21 31 55 31q48 2 138 14q29 3 79.5 4t67.5 3z
M1155 2214q26 4 35 -19q5 -10 1 -25.5t-13 -21.5q-10 -9 -37 -22q-124 -63 -183 -98q-26 -13 -45 -13q-24 3 -36 21q-6 9 -1.5 24t13.5 23q37 28 49 33q30 15 89.5 45t88.5 45q16 8 39 8z" />
    <glyph glyph-name="Icircumflex" unicode="&#xce;" horiz-adv-x="925" 
d="M1024 1862q15 0 43 1t44.5 0.5t31.5 -3.5q10 -1 90.5 -6.5t120.5 -20.5q20 -7 32.5 -19.5t10.5 -23.5q-2 -15 -17.5 -26t-38.5 -11q-129 0 -155 2q-12 0 -38 4.5t-40 3.5q-9 0 -14 -10q-21 -45 -76 -123q-17 -24 -45.5 -72t-42.5 -69q-49 -83 -148 -277
q-74 -144 -151 -319q-100 -215 -142 -320q-19 -48 -56 -139.5t-65.5 -164.5t-52.5 -140q-53 -138 -118 -338q-1 -3 -5 -10.5t-4 -11.5q0 -21 15 -21q8 1 33.5 0.5t33.5 5.5q21 8 33 2q13 -5 29.5 -7t29.5 -1t29 0h15q43 -5 47 -27q6 -17 -31 -38q-30 -20 -64 -23
q-17 -1 -70.5 -6t-82.5 -4q-27 1 -53 -1.5t-68 -9.5t-51 -8q-21 -2 -45 -2t-53.5 1t-45.5 1q-9 0 -20 11q-16 12 -2 26q49 46 133 60q8 1 24.5 4.5t28.5 5t23 0.5q24 0 24 20q0 27 6 58t13 51.5t19 55.5t18 52q53 153 127 336q18 44 51.5 133.5t52.5 133.5q13 33 41 93
t35 77q16 35 54.5 123.5t60.5 134.5q34 75 137 276q50 97 73.5 141t68 120t85.5 134q1 2 3 6.5t3 6.5q6 11 18.5 33.5t18.5 33.5q-29 12 -86 4q-14 -1 -41 -4t-41 -4q-12 -1 -110 10q-7 0 -15 4q-12 6 -14.5 18.5t6.5 24.5q21 31 55 31q48 2 138 14q29 3 79.5 4t67.5 3z
M1235 2025q0 -39 -39 -53q-5 -2 -16 4q-29 11 -58 52q-28 40 -43 69q-9 11 -24 2q-8 -4 -15 -10t-15 -14.5t-13 -12.5q-12 -10 -32.5 -31.5t-31.5 -31.5q-16 -16 -30 -23q-20 -10 -35 2q-22 18 -17 39q7 25 23 41l125 125q28 28 65 25q15 0 31 -13q47 -45 117 -147
q1 -2 8 -23z" />
    <glyph glyph-name="Idieresis" unicode="&#xcf;" horiz-adv-x="925" 
d="M1024 1862q15 0 43 1t44.5 0.5t31.5 -3.5q10 -1 90.5 -6.5t120.5 -20.5q20 -7 32.5 -19.5t10.5 -23.5q-2 -15 -17.5 -26t-38.5 -11q-129 0 -155 2q-12 0 -38 4.5t-40 3.5q-9 0 -14 -10q-21 -45 -76 -123q-17 -24 -45.5 -72t-42.5 -69q-49 -83 -148 -277
q-74 -144 -151 -319q-100 -215 -142 -320q-19 -48 -56 -139.5t-65.5 -164.5t-52.5 -140q-53 -138 -118 -338q-1 -3 -5 -10.5t-4 -11.5q0 -21 15 -21q8 1 33.5 0.5t33.5 5.5q21 8 33 2q13 -5 29.5 -7t29.5 -1t29 0h15q43 -5 47 -27q6 -17 -31 -38q-30 -20 -64 -23
q-17 -1 -70.5 -6t-82.5 -4q-27 1 -53 -1.5t-68 -9.5t-51 -8q-21 -2 -45 -2t-53.5 1t-45.5 1q-9 0 -20 11q-16 12 -2 26q49 46 133 60q8 1 24.5 4.5t28.5 5t23 0.5q24 0 24 20q0 27 6 58t13 51.5t19 55.5t18 52q53 153 127 336q18 44 51.5 133.5t52.5 133.5q13 33 41 93
t35 77q16 35 54.5 123.5t60.5 134.5q34 75 137 276q50 97 73.5 141t68 120t85.5 134q1 2 3 6.5t3 6.5q6 11 18.5 33.5t18.5 33.5q-29 12 -86 4q-14 -1 -41 -4t-41 -4q-12 -1 -110 10q-7 0 -15 4q-12 6 -14.5 18.5t6.5 24.5q21 31 55 31q48 2 138 14q29 3 79.5 4t67.5 3z
M1012 2085q43 0 43 -55q-2 -22 -17 -37t-37 -15q-45 3 -45 50q0 57 56 57zM1143 2085q46 0 43 -55q0 -22 -15 -37t-36 -15q-24 1 -34.5 13t-10.5 37q0 57 53 57z" />
    <glyph glyph-name="Eth" unicode="&#xd0;" horiz-adv-x="2377" 
d="M2253 1032q-10 0 -10 -14q-5 -158 -99 -369q-63 -138 -147 -256q-69 -95 -135 -172q-61 -71 -164 -170q-46 -44 -170 -143q-88 -74 -205 -144q-196 -111 -346 -149q-120 -29 -201 -29q-109 2 -262 54q-11 4 -60 20t-75 23q-45 12 -68 -15q-17 -17 -63 -45
q-48 -28 -90 -26q-36 4 -45 22q-13 34 -7 55q12 39 41 61t74 38q2 1 12.5 5.5t14 4.5h14.5q16 -3 31 3t22 12t23 22q58 58 156 190q73 102 168 252q21 35 43.5 74t49.5 86.5t42 73.5q27 45 80 134t79 134q17 28 49 86t48 86q9 17 50.5 87t61.5 110q6 11 49 87t58 121
q4 14 17.5 38.5t17.5 35.5q7 14 26 29q14 20 39 8t25 -33v-24q-43 -127 -82 -195q-14 -23 -82 -141q-75 -137 -158 -277q-25 -44 -72 -127.5t-55 -97.5q-126 -211 -145 -244q-88 -148 -203 -311q-86 -122 -123 -160q-2 -2 -24 -35q-3 -4 -12.5 -10.5t-14 -12.5t-0.5 -13
q2 -5 8 -7.5t20 -6t15 -3.5q8 -2 83 -25.5t114 -29.5q110 -21 192 -6q100 17 176 41q96 34 234 112q96 53 245 170q79 61 156 142q16 18 48 49.5t44 44.5q54 58 148 180q73 98 133 211q67 134 94 256q23 105 16 270q-2 67 -47 174q-65 148 -172 250q-86 80 -204 125
q-67 29 -170 43q-74 12 -146 6q-121 -9 -242 -57q-134 -52 -264 -154q-124 -95 -237 -231q-70 -85 -129 -180q-129 -199 -195 -410q-34 -107 -47 -170q-8 -33 -12 -100q-4 -37 10 -57q18 -21 0 -39q-7 -6 -24.5 -6t-26.5 6q-36 24 -39 80q-4 58 20 172q34 151 66 237
q56 153 108 240q73 124 111 176q44 67 104 133q69 78 89 96q201 191 399 277q85 39 201 59q111 21 161 19q287 -16 478 -166q155 -119 241 -312q34 -79 49 -163q9 -65 9 -87q0 -10 10 -10v-88zM897 512h-49q-23 -3 -66.5 4t-62.5 6q-8 0 -23 10q-18 10 -19.5 27.5t13.5 32.5
q18 18 53 18q7 0 24.5 -1t30 -0.5t23.5 3.5q39 8 111 8t84 1q23 3 47 -11q30 -15 27 -53q-2 -28 -37 -33q-7 -1 -22 -5t-27 -6t-23 -1q-27 2 -84 2v-2z" />
    <glyph glyph-name="Ntilde" unicode="&#xd1;" horiz-adv-x="1695" 
d="M305 432q11 5 18.5 15t15 24.5t11.5 20.5q31 40 105.5 144.5t117.5 158.5q158 201 164 209q16 22 53 59.5t52 56.5q124 153 319 336q197 184 359 281q72 41 166 57q22 4 52 -10.5t42 -34.5q19 -31 22 -72q3 -96 -43 -207q-61 -165 -155 -354q-64 -128 -150 -307
q-19 -40 -58.5 -121t-58.5 -121q-105 -225 -127 -274q-51 -111 -180 -402q-54 -126 -104 -206q-6 -12 -17 -23q-3 -2 -7 -6.5t-6 -6.5t-7.5 -3.5t-11.5 2.5q-20 9 -25.5 16.5t-5.5 26.5q1 3 2 10t2 10q33 88 45 115q24 59 152 346q33 78 161 354q12 25 51 105t58 125
q28 64 85 177t79 159q15 33 45 95.5t48.5 101.5t42 94t40.5 102q2 6 12 32t13 36t9.5 31t8.5 37.5t2 33.5v20q0 15 -16 15q-24 0 -68 -19q-94 -43 -166 -98q-66 -49 -168 -137q-29 -26 -203 -195q-42 -42 -166 -184q-14 -17 -43 -50t-43 -49q-78 -92 -96 -116
q-24 -31 -70 -93t-69 -92q-57 -73 -154 -215q-41 -59 -121 -180q-49 -69 -71 -104q-14 -23 -55 -60q-17 -17 -42 -11.5t-34 28.5q-17 37 -11 61q15 67 66 205q31 82 113 285q40 100 82 192q84 188 254 512q80 157 135 244q28 56 30 61q9 23 41 47q19 14 56 2q12 -4 12 -18
q0 -40 -10 -55q-18 -26 -72 -131q-25 -46 -78 -147.5t-82 -153.5q-23 -43 -47 -92.5t-52 -108.5t-44 -92q-109 -235 -166 -387q-3 -7 -35 -80q-2 -4 -2 -29l-8 -2q-2 -5 1 -5q2 0 3 1q2 2 2 8zM1518 1872q-71 -5 -121 76q-16 31 -29 71q-1 1 -2.5 8.5t-3.5 10.5
q-5 11 -14.5 11.5t-14.5 -9.5q-1 -3 -15 -35t-20 -49q-1 -4 -5 -15.5t-5 -17.5q-6 -19 -21 -27.5t-32 -3.5q-15 5 -27 23t-8 33q6 18 13.5 48.5t9.5 39.5q28 78 106 106q31 12 62.5 0t48.5 -41q15 -29 24 -65q8 -33 33 -54q40 -32 68 13q8 14 14 30t12.5 37t10.5 31
q6 21 18 39q17 24 43 14q26 -11 29 -35q3 -65 -15 -108q-25 -58 -30 -66q-44 -68 -129 -65z" />
    <glyph glyph-name="Ograve" unicode="&#xd2;" horiz-adv-x="1574" 
d="M1470 1329q3 -47 -4.5 -104.5t-15 -90.5t-25.5 -104q-36 -147 -104 -315q-89 -213 -193 -400q-76 -138 -208 -333q-107 -159 -248 -285q-94 -81 -199 -105q-75 -19 -147 12t-115 89q-68 94 -90 225q-19 117 -19 221q1 9 6.5 31t4.5 35q-1 12 3.5 34t4.5 27q3 36 31 156
q17 83 73 231q39 104 86 193q89 177 191 309q73 96 121 148q14 14 45.5 49t50.5 53q133 119 231 182q20 12 70 21q27 5 57 22q93 51 158 49q128 -3 186 -108q52 -92 49 -178v-64zM831 1374l-8 -4q-17 -18 -51 -51t-60 -60.5t-48 -54.5q-65 -79 -101 -129q-68 -98 -131 -209
q-70 -125 -121 -264q-61 -161 -84 -285q-18 -96 -24 -190q-5 -62 6 -154q13 -112 61 -196q7 -14 24 -36t25 -28q33 -28 78 -31t84 9q63 15 150 94q36 32 114 119q66 79 121 157q120 172 234 388q79 155 114 241q47 111 58 144q86 237 102 366q3 26 8.5 77t8.5 77
q1 14 -1.5 29t-6.5 33t-5 28q-5 40 -37 92q-42 61 -108 51q-71 -7 -125 -47q-98 -73 -160 -168q-93 -148 -119 -285q-23 -120 -26 -215q-4 -81 6 -135q11 -58 27 -92q41 -80 69 -108q39 -42 -16 -64h-19q-55 25 -75 59q-33 60 -43 93q-9 27 -16 60.5t-10 57t-7 63t-6 58.5
q-2 26 3 74.5t5 67.5q0 46 14 104q32 133 78 221q2 5 7 13t8 15.5t3 14.5q1 1 3.5 2t3.5 2q4 4 -4 4q0 -1 -1.5 -4t-1.5 -4zM1337 1839q16 -20 0 -39q-6 -9 -21 -13.5t-24 1.5q-14 4 -39 20q-82 53 -176 109q-18 9 -35 33q-9 22 0 41q4 10 21 13.5t27 -1.5q35 -12 53 -25
q83 -56 168 -108q11 -9 26 -31z" />
    <glyph glyph-name="Oacute" unicode="&#xd3;" horiz-adv-x="1574" 
d="M1470 1329q3 -47 -4.5 -104.5t-15 -90.5t-25.5 -104q-36 -147 -104 -315q-89 -213 -193 -400q-76 -138 -208 -333q-107 -159 -248 -285q-94 -81 -199 -105q-75 -19 -147 12t-115 89q-68 94 -90 225q-19 117 -19 221q1 9 6.5 31t4.5 35q-1 12 3.5 34t4.5 27q3 36 31 156
q17 83 73 231q39 104 86 193q89 177 191 309q73 96 121 148q14 14 45.5 49t50.5 53q133 119 231 182q20 12 70 21q27 5 57 22q93 51 158 49q128 -3 186 -108q52 -92 49 -178v-64zM831 1374l-8 -4q-17 -18 -51 -51t-60 -60.5t-48 -54.5q-65 -79 -101 -129q-68 -98 -131 -209
q-70 -125 -121 -264q-61 -161 -84 -285q-18 -96 -24 -190q-5 -62 6 -154q13 -112 61 -196q7 -14 24 -36t25 -28q33 -28 78 -31t84 9q63 15 150 94q36 32 114 119q66 79 121 157q120 172 234 388q79 155 114 241q47 111 58 144q86 237 102 366q3 26 8.5 77t8.5 77
q1 14 -1.5 29t-6.5 33t-5 28q-5 40 -37 92q-42 61 -108 51q-71 -7 -125 -47q-98 -73 -160 -168q-93 -148 -119 -285q-23 -120 -26 -215q-4 -81 6 -135q11 -58 27 -92q41 -80 69 -108q39 -42 -16 -64h-19q-55 25 -75 59q-33 60 -43 93q-9 27 -16 60.5t-10 57t-7 63t-6 58.5
q-2 26 3 74.5t5 67.5q0 46 14 104q32 133 78 221q2 5 7 13t8 15.5t3 14.5q1 1 3.5 2t3.5 2q4 4 -4 4q0 -1 -1.5 -4t-1.5 -4zM1313 2015q27 4 35 -18q4 -11 0 -26t-13 -21q-14 -11 -37 -23q-117 -60 -182 -98q-24 -12 -45 -12q-26 3 -37 20q-6 9 -1 24t14 23q37 28 49 33
q29 15 89 44.5t89 45.5q16 8 39 8z" />
    <glyph glyph-name="Ocircumflex" unicode="&#xd4;" horiz-adv-x="1574" 
d="M1470 1329q3 -47 -4.5 -104.5t-15 -90.5t-25.5 -104q-36 -147 -104 -315q-89 -213 -193 -400q-76 -138 -208 -333q-107 -159 -248 -285q-94 -81 -199 -105q-75 -19 -147 12t-115 89q-68 94 -90 225q-19 117 -19 221q1 9 6.5 31t4.5 35q-1 12 3.5 34t4.5 27q3 36 31 156
q17 83 73 231q39 104 86 193q89 177 191 309q73 96 121 148q14 14 45.5 49t50.5 53q133 119 231 182q20 12 70 21q27 5 57 22q93 51 158 49q128 -3 186 -108q52 -92 49 -178v-64zM831 1374l-8 -4q-17 -18 -51 -51t-60 -60.5t-48 -54.5q-65 -79 -101 -129q-68 -98 -131 -209
q-70 -125 -121 -264q-61 -161 -84 -285q-18 -96 -24 -190q-5 -62 6 -154q13 -112 61 -196q7 -14 24 -36t25 -28q33 -28 78 -31t84 9q63 15 150 94q36 32 114 119q66 79 121 157q120 172 234 388q79 155 114 241q47 111 58 144q86 237 102 366q3 26 8.5 77t8.5 77
q1 14 -1.5 29t-6.5 33t-5 28q-5 40 -37 92q-42 61 -108 51q-71 -7 -125 -47q-98 -73 -160 -168q-93 -148 -119 -285q-23 -120 -26 -215q-4 -81 6 -135q11 -58 27 -92q41 -80 69 -108q39 -42 -16 -64h-19q-55 25 -75 59q-33 60 -43 93q-9 27 -16 60.5t-10 57t-7 63t-6 58.5
q-2 26 3 74.5t5 67.5q0 46 14 104q32 133 78 221q2 5 7 13t8 15.5t3 14.5q1 1 3.5 2t3.5 2q4 4 -4 4q0 -1 -1.5 -4t-1.5 -4zM1401 1874q0 -39 -39 -53q-5 -2 -16 4q-30 11 -58 51q-26 37 -43 70q-9 11 -24 2q-8 -4 -15 -10t-15 -14.5t-13 -12.5q-11 -10 -31.5 -32t-32.5 -32
q-13 -13 -31 -22q-20 -10 -34 2q-22 18 -17 39q7 25 23 41l125 125q27 27 65 24q16 0 31 -12q45 -43 117 -148q2 -4 8 -22z" />
    <glyph glyph-name="Otilde" unicode="&#xd5;" horiz-adv-x="1574" 
d="M1470 1329q3 -47 -4.5 -104.5t-15 -90.5t-25.5 -104q-36 -147 -104 -315q-89 -213 -193 -400q-76 -138 -208 -333q-107 -159 -248 -285q-94 -81 -199 -105q-75 -19 -147 12t-115 89q-68 94 -90 225q-19 117 -19 221q1 9 6.5 31t4.5 35q-1 12 3.5 34t4.5 27q3 36 31 156
q17 83 73 231q39 104 86 193q89 177 191 309q73 96 121 148q14 14 45.5 49t50.5 53q133 119 231 182q20 12 70 21q27 5 57 22q93 51 158 49q128 -3 186 -108q52 -92 49 -178v-64zM831 1374l-8 -4q-17 -18 -51 -51t-60 -60.5t-48 -54.5q-65 -79 -101 -129q-68 -98 -131 -209
q-70 -125 -121 -264q-61 -161 -84 -285q-18 -96 -24 -190q-5 -62 6 -154q13 -112 61 -196q7 -14 24 -36t25 -28q33 -28 78 -31t84 9q63 15 150 94q36 32 114 119q66 79 121 157q120 172 234 388q79 155 114 241q47 111 58 144q86 237 102 366q3 26 8.5 77t8.5 77
q1 14 -1.5 29t-6.5 33t-5 28q-5 40 -37 92q-42 61 -108 51q-71 -7 -125 -47q-98 -73 -160 -168q-93 -148 -119 -285q-23 -120 -26 -215q-4 -81 6 -135q11 -58 27 -92q41 -80 69 -108q39 -42 -16 -64h-19q-55 25 -75 59q-33 60 -43 93q-9 27 -16 60.5t-10 57t-7 63t-6 58.5
q-2 26 3 74.5t5 67.5q0 46 14 104q32 133 78 221q2 5 7 13t8 15.5t3 14.5q1 1 3.5 2t3.5 2q4 4 -4 4q0 -1 -1.5 -4t-1.5 -4zM1294 1823q-70 -5 -120 75q-15 30 -29 72q-1 1 -2.5 8.5t-3.5 10.5q-5 11 -14.5 11.5t-14.5 -9.5q-1 -3 -15 -35t-20 -49q-1 -4 -5 -15.5t-5 -17.5
q-6 -19 -21 -27.5t-32 -3.5q-16 5 -27.5 22.5t-7.5 32.5q6 17 12.5 47.5t9.5 41.5q28 78 107 106q31 12 62.5 0t48.5 -41q15 -29 24 -65q8 -33 33 -54q39 -32 67 13q8 14 14 30t12.5 37t10.5 31q5 18 19 39q17 24 43 14q25 -11 28 -35q3 -67 -14 -108q-23 -52 -31 -66
q-44 -68 -129 -65z" />
    <glyph glyph-name="Odieresis" unicode="&#xd6;" horiz-adv-x="1574" 
d="M1470 1329q3 -47 -4.5 -104.5t-15 -90.5t-25.5 -104q-36 -147 -104 -315q-89 -213 -193 -400q-76 -138 -208 -333q-107 -159 -248 -285q-94 -81 -199 -105q-75 -19 -147 12t-115 89q-68 94 -90 225q-19 117 -19 221q1 9 6.5 31t4.5 35q-1 12 3.5 34t4.5 27q3 36 31 156
q17 83 73 231q39 104 86 193q89 177 191 309q73 96 121 148q14 14 45.5 49t50.5 53q133 119 231 182q20 12 70 21q27 5 57 22q93 51 158 49q128 -3 186 -108q52 -92 49 -178v-64zM831 1374l-8 -4q-17 -18 -51 -51t-60 -60.5t-48 -54.5q-65 -79 -101 -129q-68 -98 -131 -209
q-70 -125 -121 -264q-61 -161 -84 -285q-18 -96 -24 -190q-5 -62 6 -154q13 -112 61 -196q7 -14 24 -36t25 -28q33 -28 78 -31t84 9q63 15 150 94q36 32 114 119q66 79 121 157q120 172 234 388q79 155 114 241q47 111 58 144q86 237 102 366q3 26 8.5 77t8.5 77
q1 14 -1.5 29t-6.5 33t-5 28q-5 40 -37 92q-42 61 -108 51q-71 -7 -125 -47q-98 -73 -160 -168q-93 -148 -119 -285q-23 -120 -26 -215q-4 -81 6 -135q11 -58 27 -92q41 -80 69 -108q39 -42 -16 -64h-19q-55 25 -75 59q-33 60 -43 93q-9 27 -16 60.5t-10 57t-7 63t-6 58.5
q-2 26 3 74.5t5 67.5q0 46 14 104q32 133 78 221q2 5 7 13t8 15.5t3 14.5q1 1 3.5 2t3.5 2q4 4 -4 4q0 -1 -1.5 -4t-1.5 -4zM1180 1962q43 0 43 -55q-2 -22 -17 -37t-37 -15q-45 3 -45 50q0 57 56 57zM1311 1962q46 0 43 -55q0 -21 -15 -36.5t-36 -15.5q-25 1 -35.5 13
t-10.5 37q0 27 14.5 42t39.5 15z" />
    <glyph glyph-name="multiply" unicode="&#xd7;" horiz-adv-x="612" 
d="M174 864q19 19 27 29q3 3 15.5 13t18.5 18t5 16q-1 6 -5.5 12.5t-9 11.5t-13 12.5t-11.5 10.5q-25 21 -35 35q-7 9 -7.5 27.5t5.5 25.5q4 6 21 7.5t26 -3.5q68 -33 100 -65q13 -14 25 -2q16 20 54.5 49.5t53.5 48.5q7 6 21 13t18 10q26 17 56 -13q16 -16 4 -47
q-11 -32 -41 -45q-21 -9 -51.5 -39.5t-40.5 -38.5q-9 -9 0 -20q34 -34 41 -56q3 -10 26 -18q20 -6 27 -33q8 -30 -10 -43q-8 -7 -25 -6.5t-27 10.5q-13 14 -47.5 39.5t-50.5 44.5q-15 18 -27 0q-13 -16 -45.5 -38t-44.5 -35q-24 -28 -80 -80q-19 -24 -28 -27q-1 0 -6 -3
t-6.5 -3.5l-6 -2t-7 -1t-6.5 2.5t-7 5q-14 14 -16.5 21.5t4.5 25.5q37 64 61 86z" />
    <glyph glyph-name="Oslash" unicode="&#xd8;" horiz-adv-x="1574" 
d="M1470 1329q3 -47 -4.5 -104.5t-15 -90.5t-25.5 -104q-36 -147 -104 -315q-89 -213 -193 -400q-76 -138 -208 -333q-107 -159 -248 -285q-94 -81 -199 -105q-75 -19 -147 12t-115 89q-68 94 -90 225q-19 117 -19 221q1 9 6.5 31t4.5 35q-1 12 3.5 34t4.5 27q3 36 31 156
q17 83 73 231q39 104 86 193q89 177 191 309q73 96 121 148q14 14 45.5 49t50.5 53q133 119 231 182q20 12 70 21q27 5 57 22q93 51 158 49q128 -3 186 -108q52 -92 49 -178v-64zM831 1374l-8 -4q-17 -18 -51 -51t-60 -60.5t-48 -54.5q-65 -79 -101 -129q-68 -98 -131 -209
q-70 -125 -121 -264q-61 -161 -84 -285q-18 -96 -24 -190q-5 -62 6 -154q13 -112 61 -196q7 -14 24 -36t25 -28q33 -28 78 -31t84 9q63 15 150 94q36 32 114 119q66 79 121 157q120 172 234 388q79 155 114 241q47 111 58 144q86 237 102 366q3 26 8.5 77t8.5 77
q1 14 -1.5 29t-6.5 33t-5 28q-5 40 -37 92q-42 61 -108 51q-71 -7 -125 -47q-98 -73 -160 -168q-93 -148 -119 -285q-23 -120 -26 -215q-4 -81 6 -135q11 -58 27 -92q41 -80 69 -108q39 -42 -16 -64h-19q-55 25 -75 59q-33 60 -43 93q-9 27 -16 60.5t-10 57t-7 63t-6 58.5
q-2 26 3 74.5t5 67.5q0 46 14 104q32 133 78 221q2 5 7 13t8 15.5t3 14.5q1 1 3.5 2t3.5 2q4 4 -4 4q0 -1 -1.5 -4t-1.5 -4zM369 -76q6 38 28 84q20 44 60 131t59 131q48 113 168 346q118 222 164 299q15 24 39 72t33 64q15 25 78.5 139t103.5 172q8 12 33 57q8 16 39 29
q19 6 35.5 -8.5t13.5 -34.5q-3 -21 -13 -41q-22 -37 -65 -110.5t-64 -110.5q-53 -98 -55 -101q-51 -97 -133 -243q-126 -224 -332 -645q-48 -101 -67 -160q-4 -16 -12.5 -32t-19.5 -35.5t-16 -30.5q-9 -17 -14 -19q-4 -1 -13.5 -6t-13.5 -5.5t-14 3.5q-27 16 -22 39v16z" />
    <glyph glyph-name="Ugrave" unicode="&#xd9;" horiz-adv-x="1673" 
d="M784 1733q2 -15 -12 -33q-67 -76 -166 -232q-94 -152 -190 -360q-78 -177 -105 -252q-58 -164 -80 -264q-1 -6 -18 -115q-12 -59 -8 -153q7 -105 47 -174q26 -47 53 -62q29 -19 62 -22q5 -1 18.5 -4.5t23 -3t17.5 7.5q6 -2 21.5 0t21 2t20.5 4t20.5 5.5t20 6t19.5 6.5
q107 41 211 115q22 15 60.5 47t45.5 37q73 59 144 139q58 60 151 176q20 24 64 83t69 89q65 79 109 193q15 41 67 161q82 197 170 361q54 99 99 170q5 9 33 37q15 15 33 19t30 -5q37 -23 27 -72q-3 -19 -16 -50.5t-17 -43.5q-23 -63 -98 -223q-16 -35 -52.5 -98.5
t-42.5 -73.5q-27 -53 -86 -148.5t-82 -138.5q-18 -33 -42.5 -99.5t-30.5 -80.5q-25 -64 -73.5 -192t-72.5 -193q-73 -199 -82 -223q-56 -157 -120 -322q-8 -19 -24 -52.5t-22 -47.5q-9 -21 -22 -31t-25 -6q-15 5 -24.5 22.5t-5.5 34.5q17 79 28 111q14 40 123 321
q17 46 51 138.5t52 138.5q9 24 27.5 73t27.5 74q5 10 2 15q-2 2 -4 1.5t-2.5 -1.5t-2.5 -3l-3 -3q-12 -15 -37 -44.5t-37 -43.5q-11 -16 -12 -17q-10 -10 -54 -58.5t-69 -72.5q-143 -143 -291 -231q-124 -78 -252 -101q-108 -21 -186 17q-71 36 -111 100q-46 79 -61 170
q-14 99 -4 209q7 83 45 225q32 124 96 279q22 56 48 111.5t67 139.5t53 109q56 114 184 305q29 43 103 117q18 14 24 16q26 13 41 3.5t14 -39.5zM1436 1778q16 -20 0 -39q-6 -9 -21 -14t-24 1q-12 3 -39 21q-64 42 -176 108q-18 9 -35 33q-9 22 0 41q4 10 20.5 14t26.5 -1
q35 -12 53 -25q100 -67 168 -109q15 -12 27 -30z" />
    <glyph glyph-name="Uacute" unicode="&#xda;" horiz-adv-x="1673" 
d="M784 1733q2 -15 -12 -33q-67 -76 -166 -232q-94 -152 -190 -360q-78 -177 -105 -252q-58 -164 -80 -264q-1 -6 -18 -115q-12 -59 -8 -153q7 -105 47 -174q26 -47 53 -62q29 -19 62 -22q5 -1 18.5 -4.5t23 -3t17.5 7.5q6 -2 21.5 0t21 2t20.5 4t20.5 5.5t20 6t19.5 6.5
q107 41 211 115q22 15 60.5 47t45.5 37q73 59 144 139q58 60 151 176q20 24 64 83t69 89q65 79 109 193q15 41 67 161q82 197 170 361q54 99 99 170q5 9 33 37q15 15 33 19t30 -5q37 -23 27 -72q-3 -19 -16 -50.5t-17 -43.5q-23 -63 -98 -223q-16 -35 -52.5 -98.5
t-42.5 -73.5q-27 -53 -86 -148.5t-82 -138.5q-18 -33 -42.5 -99.5t-30.5 -80.5q-25 -64 -73.5 -192t-72.5 -193q-73 -199 -82 -223q-56 -157 -120 -322q-8 -19 -24 -52.5t-22 -47.5q-9 -21 -22 -31t-25 -6q-15 5 -24.5 22.5t-5.5 34.5q17 79 28 111q14 40 123 321
q17 46 51 138.5t52 138.5q9 24 27.5 73t27.5 74q5 10 2 15q-2 2 -4 1.5t-2.5 -1.5t-2.5 -3l-3 -3q-12 -15 -37 -44.5t-37 -43.5q-11 -16 -12 -17q-10 -10 -54 -58.5t-69 -72.5q-143 -143 -291 -231q-124 -78 -252 -101q-108 -21 -186 17q-71 36 -111 100q-46 79 -61 170
q-14 99 -4 209q7 83 45 225q32 124 96 279q22 56 48 111.5t67 139.5t53 109q56 114 184 305q29 43 103 117q18 14 24 16q26 13 41 3.5t14 -39.5zM1386 1921q27 4 35 -18q5 -10 1 -26t-13 -22q-11 -9 -37 -22q-117 -60 -182 -98q-26 -13 -45 -13q-25 3 -37 21q-6 9 -1.5 24
t13.5 23q37 28 49 33q29 15 89 45l90 45q16 8 38 8z" />
    <glyph glyph-name="Ucircumflex" unicode="&#xdb;" horiz-adv-x="1673" 
d="M784 1733q2 -15 -12 -33q-67 -76 -166 -232q-94 -152 -190 -360q-78 -177 -105 -252q-58 -164 -80 -264q-1 -6 -18 -115q-12 -59 -8 -153q7 -105 47 -174q26 -47 53 -62q29 -19 62 -22q5 -1 18.5 -4.5t23 -3t17.5 7.5q6 -2 21.5 0t21 2t20.5 4t20.5 5.5t20 6t19.5 6.5
q107 41 211 115q22 15 60.5 47t45.5 37q73 59 144 139q58 60 151 176q20 24 64 83t69 89q65 79 109 193q15 41 67 161q82 197 170 361q54 99 99 170q5 9 33 37q15 15 33 19t30 -5q37 -23 27 -72q-3 -19 -16 -50.5t-17 -43.5q-23 -63 -98 -223q-16 -35 -52.5 -98.5
t-42.5 -73.5q-27 -53 -86 -148.5t-82 -138.5q-18 -33 -42.5 -99.5t-30.5 -80.5q-25 -64 -73.5 -192t-72.5 -193q-73 -199 -82 -223q-56 -157 -120 -322q-8 -19 -24 -52.5t-22 -47.5q-9 -21 -22 -31t-25 -6q-15 5 -24.5 22.5t-5.5 34.5q17 79 28 111q14 40 123 321
q17 46 51 138.5t52 138.5q9 24 27.5 73t27.5 74q5 10 2 15q-2 2 -4 1.5t-2.5 -1.5t-2.5 -3l-3 -3q-12 -15 -37 -44.5t-37 -43.5q-11 -16 -12 -17q-10 -10 -54 -58.5t-69 -72.5q-143 -143 -291 -231q-124 -78 -252 -101q-108 -21 -186 17q-71 36 -111 100q-46 79 -61 170
q-14 99 -4 209q7 83 45 225q32 124 96 279q22 56 48 111.5t67 139.5t53 109q56 114 184 305q29 43 103 117q18 14 24 16q26 13 41 3.5t14 -39.5zM1468 1810q0 -40 -38 -53q-5 -2 -17 4q-29 11 -57 51q-26 37 -43 70q-9 11 -25 2q-8 -4 -15 -10t-15 -14.5t-13 -12.5
q-11 -10 -31 -31.5t-32 -31.5q-15 -15 -31 -23q-20 -10 -35 2q-21 18 -16 39q8 27 22 41l125 125q28 28 66 25q14 0 30 -13q47 -45 117 -147q1 -2 8 -23z" />
    <glyph glyph-name="Udieresis" unicode="&#xdc;" horiz-adv-x="1673" 
d="M784 1733q2 -15 -12 -33q-67 -76 -166 -232q-94 -152 -190 -360q-78 -177 -105 -252q-58 -164 -80 -264q-1 -6 -18 -115q-12 -59 -8 -153q7 -105 47 -174q26 -47 53 -62q29 -19 62 -22q5 -1 18.5 -4.5t23 -3t17.5 7.5q6 -2 21.5 0t21 2t20.5 4t20.5 5.5t20 6t19.5 6.5
q107 41 211 115q22 15 60.5 47t45.5 37q73 59 144 139q58 60 151 176q20 24 64 83t69 89q65 79 109 193q15 41 67 161q82 197 170 361q54 99 99 170q5 9 33 37q15 15 33 19t30 -5q37 -23 27 -72q-3 -19 -16 -50.5t-17 -43.5q-23 -63 -98 -223q-16 -35 -52.5 -98.5
t-42.5 -73.5q-27 -53 -86 -148.5t-82 -138.5q-18 -33 -42.5 -99.5t-30.5 -80.5q-25 -64 -73.5 -192t-72.5 -193q-73 -199 -82 -223q-56 -157 -120 -322q-8 -19 -24 -52.5t-22 -47.5q-9 -21 -22 -31t-25 -6q-15 5 -24.5 22.5t-5.5 34.5q17 79 28 111q14 40 123 321
q17 46 51 138.5t52 138.5q9 24 27.5 73t27.5 74q5 10 2 15q-2 2 -4 1.5t-2.5 -1.5t-2.5 -3l-3 -3q-12 -15 -37 -44.5t-37 -43.5q-11 -16 -12 -17q-10 -10 -54 -58.5t-69 -72.5q-143 -143 -291 -231q-124 -78 -252 -101q-108 -21 -186 17q-71 36 -111 100q-46 79 -61 170
q-14 99 -4 209q7 83 45 225q32 124 96 279q22 56 48 111.5t67 139.5t53 109q56 114 184 305q29 43 103 117q18 14 24 16q26 13 41 3.5t14 -39.5zM1249 1849q43 0 43 -55q-2 -22 -16.5 -36.5t-36.5 -14.5q-45 3 -45 49q0 57 55 57zM1380 1849q46 0 43 -55q0 -21 -15 -36
t-36 -15q-25 1 -35 12.5t-10 36.5q0 57 53 57z" />
    <glyph glyph-name="Yacute" unicode="&#xdd;" horiz-adv-x="1343" 
d="M782 598q-4 -5 -28 -29t-33 -39q-11 -16 -34.5 -40t-27.5 -29q-2 -3 -22.5 -27t-32.5 -35q-14 -12 -50 -46t-58 -50q-42 -33 -90 -55q-62 -32 -125 -12q-19 6 -37 19t-28 25t-26 33q-38 57 -57 160q-15 73 -22 178q-9 76 -7 105q2 33 17 198q10 101 61 310q24 90 72 217
q70 172 113 254q30 61 75 112q4 5 12.5 17.5t12.5 17.5q15 17 31 16t30 -20q13 -13 4 -27q-14 -32 -20 -43q-70 -104 -145 -286q-43 -108 -78 -219q-41 -129 -60 -238q-12 -94 -20 -141q-14 -99 -6 -293q6 -85 18 -148.5t43 -120.5q16 -33 55 -45q11 -5 31 2q56 15 133 84
q95 91 140 140q77 89 147 180q27 34 115 149q5 7 24.5 34l26 36t23.5 33.5t25.5 37t23 34t24 37.5t20.5 35.5t21 37.5q20 42 125 217q66 106 154 228q76 102 133 159q22 19 45 19q28 -2 41.5 -21.5t3.5 -46.5q-10 -24 -33 -63q-27 -38 -83.5 -120t-101 -144t-87.5 -117
q-35 -45 -133 -189q-42 -60 -119 -215q-64 -125 -103 -207q-25 -52 -73 -158.5t-72 -158.5q-87 -193 -139 -315q-7 -19 -22.5 -52.5t-20.5 -44.5q-13 -27 -38.5 -83t-37.5 -83q-14 -31 -74 -157t-92 -195q-14 -29 -39 -86.5t-37 -83.5q-1 -2 -4.5 -9.5t-7.5 -11.5t-10 -7
q-19 -10 -36.5 -4t-18.5 26q-7 32 4 57t48.5 114t59.5 136q56 107 154 326q27 59 79 177l78 177q128 283 154 336q14 28 10 41l8 4q4 4 -4 4q-2 -2 -2 -8zM1151 1966q27 4 35 -18q5 -10 1 -25.5t-13 -21.5q-14 -11 -37 -23q-124 -63 -183 -98q-26 -13 -45 -13q-25 3 -37 21
q-6 9 -1 24t14 23q37 28 49 33q30 15 89 45t89 45q16 8 39 8z" />
    <glyph glyph-name="Thorn" unicode="&#xde;" horiz-adv-x="1581" 
d="M737 508h-78q-72 0 -143 18q-26 9 -35 -14q-16 -46 -65 -150q-8 -20 -29 -63.5t-31 -67.5q-14 -35 -49 -109t-51 -114q-10 -25 -47 -105t-51 -126q-3 -13 -27 -47q-9 -12 -24 -12.5t-25 10.5q-25 29 -16 57q22 80 43 127q16 36 53.5 127.5t60.5 140.5q7 17 47 105
q78 172 119 256q12 27 0 41q-2 4 -2 18q-12 37 23 37q22 0 32 20q125 256 131 269q81 165 89 180q22 42 89.5 175t106.5 206q23 44 65 126.5t60 117.5q1 3 4.5 7.5t5.5 8.5t2 8q1 11 4.5 20t10.5 18.5t10.5 13.5t15 15t13.5 13q22 18 38 4q26 -20 13 -41q-12 -24 -28 -79.5
t-32 -82.5q-16 -26 -40 -77.5t-35 -71.5q-25 -48 -74.5 -143.5t-73.5 -143.5q-1 -1 -3 -3.5t-1.5 -3t2.5 -3.5q4 -4 12 0q33 18 101 51q104 56 231 72q126 14 215 -17q123 -47 144 -172q3 -24 -15 -90q-29 -112 -131 -233q-5 -6 -25.5 -31.5t-33.5 -38.5
q-115 -112 -244 -172q-67 -28 -147 -41q-36 -7 -105.5 -8t-79.5 -2zM684 598q139 -3 240 18q142 33 260 136q88 78 145 151q67 96 88 170q11 44 -5.5 80t-55.5 51q-45 16 -103 23q-41 4 -131 -13q-156 -38 -266 -112q-11 -7 -29 -21t-33 -24t-30 -15q-33 -11 -51 -47
q-42 -92 -101 -213l-69 -141q-9 -20 -5 -29.5t27 -13.5h25h94z" />
    <glyph glyph-name="germandbls" unicode="&#xdf;" horiz-adv-x="1048" 
d="M166 131q-97 -4 -150 29q-42 25 -39 71q0 16 17 19q8 3 23 0.5t22 -4.5t22 -6.5t23 -6.5q16 -4 29 -4q215 -9 415 95q84 45 127 112q33 52 22 104.5t-67 90.5q-74 52 -180 71q-70 13 -121 -8q-20 -10 -39 -2q-2 1 -11 4t-13 5.5t-8.5 8.5t-4.5 15q-4 43 19 57
q20 15 29 17q17 4 34 9t35 13.5t29.5 14.5t32 18.5t28.5 18t31 21t29 19.5q78 52 174 138q94 87 143 147q87 105 113 145q63 99 78 181q6 35 -12 59.5t-56 20.5q-68 -6 -135 -43q-62 -38 -178 -134q-49 -42 -142 -147q-118 -139 -213 -293q-85 -138 -147 -262
q-119 -239 -182 -449q-8 -28 -54 -206v-29q0 -51 -26 -166q-1 -6 -1.5 -19.5t-3 -23.5t-8.5 -18q-2 -2 -3 -5t-1.5 -7.5t-1.5 -6.5q-24 -41 -67 -26q-24 5 -27 34q0 22 3.5 47t8.5 54.5t7 46.5q8 53 32 155q21 97 49 193q86 284 244 571q102 188 197 314q37 51 115 149
q38 45 139 146q121 121 268 186q80 34 150 29q55 -6 93 -42t42 -96q7 -74 -43 -176q-40 -86 -148 -219q-17 -21 -40 -46t-37 -39.5t-45 -45t-40 -39.5q-124 -117 -231 -182l-4 -4q-1 -1 -4 -3.5t-4 -4t0 -6.5q4 -9 12 -9q29 -7 100 -41q92 -50 134 -118q23 -36 26 -84
q11 -114 -80 -211q-104 -107 -276 -158q-53 -16 -146 -31q-47 -8 -106 -8z" />
    <glyph glyph-name="agrave" unicode="&#xe0;" horiz-adv-x="1255" 
d="M1409 770q2 -22 -12 -47q-78 -111 -140 -180q-147 -169 -251 -273q-100 -100 -172 -149q-85 -56 -154 -68q-34 -6 -72 11t-59 51q-1 1 -3 4t-3 4q-29 57 -29 121q0 72 18 139q5 11 14.5 35t14.5 35q4 8 4 28v0q6 0 6 4q2 2 0.5 2.5t-4.5 -0.5q-2 -4 -2 -6v0h-2
q-5 -1 -9 -4.5t-8.5 -9.5t-6.5 -8l-72.5 -72.5t-81.5 -79.5q-118 -115 -235 -168q-73 -30 -123 -30q-61 -2 -109.5 34t-62.5 103q-13 74 12 155q47 169 168 322q122 155 260 240q104 66 201 69q67 0 143 -51q48 -31 92 -96l6 -6q1 -2 3 -5.5t3 -5.5q1 -1 2.5 -3t2.5 -3
q25 41 71 123q27 49 72 41l8 -4q27 -23 14 -51q-20 -46 -28 -56q-53 -71 -103 -180q-30 -55 -57 -114q-67 -148 -100 -269q-1 -3 -3.5 -14.5t-3.5 -18.5q-9 -55 -4 -106q0 -11 7 -29q12 -25 26 -32t39 0q50 16 70 30q7 5 30.5 21t33.5 23.5l28 21t31.5 26t25.5 25.5
q8 9 54.5 55t68.5 72q130 144 170 195q82 103 115 153q14 23 41 33q20 7 36.5 -4.5t18.5 -32.5zM543 592q10 12 34 44t42 54t36 41q24 31 13 66q-18 64 -80 110q-52 42 -99 35q-40 0 -51 -4q-113 -38 -243 -168q-47 -47 -82 -96q-115 -156 -154 -291q-16 -66 -12 -100
q6 -79 86 -76q64 3 125 41q128 84 190 149l166 166q3 3 9.5 9t11 11t8.5 9zM743 1135q16 -20 0 -39q-6 -9 -21 -14t-24 1q-12 3 -39 21q-64 42 -176 108q-16 8 -34 33q-9 22 0 41q4 10 20.5 13.5t26.5 -1.5q38 -13 53 -24q100 -67 168 -109q13 -10 26 -30z" />
    <glyph glyph-name="aacute" unicode="&#xe1;" horiz-adv-x="1255" 
d="M1409 770q2 -22 -12 -47q-78 -111 -140 -180q-147 -169 -251 -273q-100 -100 -172 -149q-85 -56 -154 -68q-34 -6 -72 11t-59 51q-1 1 -3 4t-3 4q-29 57 -29 121q0 72 18 139q5 11 14.5 35t14.5 35q4 8 4 28v0q6 0 6 4q2 2 0.5 2.5t-4.5 -0.5q-2 -4 -2 -6v0h-2
q-5 -1 -9 -4.5t-8.5 -9.5t-6.5 -8l-72.5 -72.5t-81.5 -79.5q-118 -115 -235 -168q-73 -30 -123 -30q-61 -2 -109.5 34t-62.5 103q-13 74 12 155q47 169 168 322q122 155 260 240q104 66 201 69q67 0 143 -51q48 -31 92 -96l6 -6q1 -2 3 -5.5t3 -5.5q1 -1 2.5 -3t2.5 -3
q25 41 71 123q27 49 72 41l8 -4q27 -23 14 -51q-20 -46 -28 -56q-53 -71 -103 -180q-30 -55 -57 -114q-67 -148 -100 -269q-1 -3 -3.5 -14.5t-3.5 -18.5q-9 -55 -4 -106q0 -11 7 -29q12 -25 26 -32t39 0q50 16 70 30q7 5 30.5 21t33.5 23.5l28 21t31.5 26t25.5 25.5
q8 9 54.5 55t68.5 72q130 144 170 195q82 103 115 153q14 23 41 33q20 7 36.5 -4.5t18.5 -32.5zM543 592q10 12 34 44t42 54t36 41q24 31 13 66q-18 64 -80 110q-52 42 -99 35q-40 0 -51 -4q-113 -38 -243 -168q-47 -47 -82 -96q-115 -156 -154 -291q-16 -66 -12 -100
q6 -79 86 -76q64 3 125 41q128 84 190 149l166 166q3 3 9.5 9t11 11t8.5 9zM739 1352q26 4 35 -19q5 -10 1 -25.5t-13 -21.5q-11 -9 -37 -22q-105 -54 -182 -99q-24 -12 -45 -12q-25 3 -37 21q-6 9 -1.5 24t13.5 23q33 25 49 32q29 15 88.5 45t89.5 45q18 9 39 9z" />
    <glyph glyph-name="acircumflex" unicode="&#xe2;" horiz-adv-x="1255" 
d="M1409 770q2 -22 -12 -47q-78 -111 -140 -180q-147 -169 -251 -273q-100 -100 -172 -149q-85 -56 -154 -68q-34 -6 -72 11t-59 51q-1 1 -3 4t-3 4q-29 57 -29 121q0 72 18 139q5 11 14.5 35t14.5 35q4 8 4 28v0q6 0 6 4q2 2 0.5 2.5t-4.5 -0.5q-2 -4 -2 -6v0h-2
q-5 -1 -9 -4.5t-8.5 -9.5t-6.5 -8l-72.5 -72.5t-81.5 -79.5q-118 -115 -235 -168q-73 -30 -123 -30q-61 -2 -109.5 34t-62.5 103q-13 74 12 155q47 169 168 322q122 155 260 240q104 66 201 69q67 0 143 -51q48 -31 92 -96l6 -6q1 -2 3 -5.5t3 -5.5q1 -1 2.5 -3t2.5 -3
q25 41 71 123q27 49 72 41l8 -4q27 -23 14 -51q-20 -46 -28 -56q-53 -71 -103 -180q-30 -55 -57 -114q-67 -148 -100 -269q-1 -3 -3.5 -14.5t-3.5 -18.5q-9 -55 -4 -106q0 -11 7 -29q12 -25 26 -32t39 0q50 16 70 30q7 5 30.5 21t33.5 23.5l28 21t31.5 26t25.5 25.5
q8 9 54.5 55t68.5 72q130 144 170 195q82 103 115 153q14 23 41 33q20 7 36.5 -4.5t18.5 -32.5zM543 592q10 12 34 44t42 54t36 41q24 31 13 66q-18 64 -80 110q-52 42 -99 35q-40 0 -51 -4q-113 -38 -243 -168q-47 -47 -82 -96q-115 -156 -154 -291q-16 -66 -12 -100
q6 -79 86 -76q64 3 125 41q128 84 190 149l166 166q3 3 9.5 9t11 11t8.5 9zM776 1200q0 -39 -39 -53q-5 -2 -16 4q-29 11 -57 51q-26 37 -43 70q-9 11 -25 2q-8 -4 -15 -10t-15 -14.5t-13 -12.5q-11 -10 -31.5 -31.5t-32.5 -31.5q-16 -16 -30 -23q-20 -10 -35 2
q-21 18 -16 39q8 27 22 41l125 125q27 27 66 24q15 0 30 -12q47 -45 117 -147q1 -2 8 -23z" />
    <glyph glyph-name="atilde" unicode="&#xe3;" horiz-adv-x="1255" 
d="M1409 770q2 -22 -12 -47q-78 -111 -140 -180q-147 -169 -251 -273q-100 -100 -172 -149q-85 -56 -154 -68q-34 -6 -72 11t-59 51q-1 1 -3 4t-3 4q-29 57 -29 121q0 72 18 139q5 11 14.5 35t14.5 35q4 8 4 28v0q6 0 6 4q2 2 0.5 2.5t-4.5 -0.5q-2 -4 -2 -6v0h-2
q-5 -1 -9 -4.5t-8.5 -9.5t-6.5 -8l-72.5 -72.5t-81.5 -79.5q-118 -115 -235 -168q-73 -30 -123 -30q-61 -2 -109.5 34t-62.5 103q-13 74 12 155q47 169 168 322q122 155 260 240q104 66 201 69q67 0 143 -51q48 -31 92 -96l6 -6q1 -2 3 -5.5t3 -5.5q1 -1 2.5 -3t2.5 -3
q25 41 71 123q27 49 72 41l8 -4q27 -23 14 -51q-20 -46 -28 -56q-53 -71 -103 -180q-30 -55 -57 -114q-67 -148 -100 -269q-1 -3 -3.5 -14.5t-3.5 -18.5q-9 -55 -4 -106q0 -11 7 -29q12 -25 26 -32t39 0q50 16 70 30q7 5 30.5 21t33.5 23.5l28 21t31.5 26t25.5 25.5
q8 9 54.5 55t68.5 72q130 144 170 195q82 103 115 153q14 23 41 33q20 7 36.5 -4.5t18.5 -32.5zM543 592q10 12 34 44t42 54t36 41q24 31 13 66q-18 64 -80 110q-52 42 -99 35q-40 0 -51 -4q-113 -38 -243 -168q-47 -47 -82 -96q-115 -156 -154 -291q-16 -66 -12 -100
q6 -79 86 -76q64 3 125 41q128 84 190 149l166 166q3 3 9.5 9t11 11t8.5 9zM659 1128q-70 -5 -120 76q-15 30 -29 72q-1 1 -2.5 8t-3.5 10q-5 11 -14.5 11.5t-14.5 -9.5q-1 -3 -15 -35t-20 -49q-1 -4 -5 -15t-5 -17q-6 -19 -21 -27.5t-32 -3.5q-16 5 -27.5 22.5t-7.5 32.5
q6 18 13.5 48.5t9.5 39.5q28 79 106 107q31 12 62.5 0t48.5 -41q14 -28 24 -66q8 -31 33 -53q40 -32 68 12q8 14 14 30.5t12 37t10 31.5q5 18 19 39q17 24 43 14q26 -11 29 -35q3 -65 -15 -108q-23 -52 -31 -66q-44 -69 -129 -66z" />
    <glyph glyph-name="adieresis" unicode="&#xe4;" horiz-adv-x="1255" 
d="M1409 770q2 -22 -12 -47q-78 -111 -140 -180q-147 -169 -251 -273q-100 -100 -172 -149q-85 -56 -154 -68q-34 -6 -72 11t-59 51q-1 1 -3 4t-3 4q-29 57 -29 121q0 72 18 139q5 11 14.5 35t14.5 35q4 8 4 28v0q6 0 6 4q2 2 0.5 2.5t-4.5 -0.5q-2 -4 -2 -6v0h-2
q-5 -1 -9 -4.5t-8.5 -9.5t-6.5 -8l-72.5 -72.5t-81.5 -79.5q-118 -115 -235 -168q-73 -30 -123 -30q-61 -2 -109.5 34t-62.5 103q-13 74 12 155q47 169 168 322q122 155 260 240q104 66 201 69q67 0 143 -51q48 -31 92 -96l6 -6q1 -2 3 -5.5t3 -5.5q1 -1 2.5 -3t2.5 -3
q25 41 71 123q27 49 72 41l8 -4q27 -23 14 -51q-20 -46 -28 -56q-53 -71 -103 -180q-30 -55 -57 -114q-67 -148 -100 -269q-1 -3 -3.5 -14.5t-3.5 -18.5q-9 -55 -4 -106q0 -11 7 -29q12 -25 26 -32t39 0q50 16 70 30q7 5 30.5 21t33.5 23.5l28 21t31.5 26t25.5 25.5
q8 9 54.5 55t68.5 72q130 144 170 195q82 103 115 153q14 23 41 33q20 7 36.5 -4.5t18.5 -32.5zM543 592q10 12 34 44t42 54t36 41q24 31 13 66q-18 64 -80 110q-52 42 -99 35q-40 0 -51 -4q-113 -38 -243 -168q-47 -47 -82 -96q-115 -156 -154 -291q-16 -66 -12 -100
q6 -79 86 -76q64 3 125 41q128 84 190 149l166 166q3 3 9.5 9t11 11t8.5 9zM537 1245q43 0 43 -55q-2 -22 -17 -36.5t-37 -14.5q-45 3 -45 49q0 57 56 57zM668 1245q46 0 43 -55q0 -21 -15.5 -36t-36.5 -15q-25 1 -35 12.5t-10 36.5q0 27 14.5 42t39.5 15z" />
    <glyph glyph-name="aring" unicode="&#xe5;" horiz-adv-x="1255" 
d="M1409 770q2 -22 -12 -47q-78 -111 -140 -180q-147 -169 -251 -273q-100 -100 -172 -149q-85 -56 -154 -68q-34 -6 -72 11t-59 51q-1 1 -3 4t-3 4q-29 57 -29 121q0 72 18 139q5 11 14.5 35t14.5 35q4 8 4 28v0q6 0 6 4q2 2 0.5 2.5t-4.5 -0.5q-2 -4 -2 -6v0h-2
q-5 -1 -9 -4.5t-8.5 -9.5t-6.5 -8l-72.5 -72.5t-81.5 -79.5q-118 -115 -235 -168q-73 -30 -123 -30q-61 -2 -109.5 34t-62.5 103q-13 74 12 155q47 169 168 322q122 155 260 240q104 66 201 69q67 0 143 -51q48 -31 92 -96l6 -6q1 -2 3 -5.5t3 -5.5q1 -1 2.5 -3t2.5 -3
q25 41 71 123q27 49 72 41l8 -4q27 -23 14 -51q-20 -46 -28 -56q-53 -71 -103 -180q-30 -55 -57 -114q-67 -148 -100 -269q-1 -3 -3.5 -14.5t-3.5 -18.5q-9 -55 -4 -106q0 -11 7 -29q12 -25 26 -32t39 0q50 16 70 30q7 5 30.5 21t33.5 23.5l28 21t31.5 26t25.5 25.5
q8 9 54.5 55t68.5 72q130 144 170 195q82 103 115 153q14 23 41 33q20 7 36.5 -4.5t18.5 -32.5zM543 592q10 12 34 44t42 54t36 41q24 31 13 66q-18 64 -80 110q-52 42 -99 35q-40 0 -51 -4q-113 -38 -243 -168q-47 -47 -82 -96q-115 -156 -154 -291q-16 -66 -12 -100
q6 -79 86 -76q64 3 125 41q128 84 190 149l166 166q3 3 9.5 9t11 11t8.5 9zM580 1098q-78 -3 -121 45q-40 40 -21 86q29 81 92 125q88 56 162 51q60 -6 99 -45q42 -42 16 -115q-36 -96 -156 -135q-50 -17 -71 -12zM580 1196q93 0 135 72q19 34 -21 37q-90 9 -141 -58
q-2 -3 -9.5 -11t-10.5 -14.5t-1 -13.5q4 -8 11 -10.5t19.5 -1.5t17.5 0z" />
    <glyph glyph-name="ae" unicode="&#xe6;" horiz-adv-x="2072" 
d="M1245 369q-6 -61 15 -113q19 -58 79.5 -87t120.5 -19q97 16 226 106q67 48 169 158q38 38 97 116q124 166 143 195q1 1 9 13t10 18q9 17 22 28q17 13 35.5 14t30.5 -10t14 -32t-10 -39q-66 -95 -113 -156q-76 -103 -115 -143q-112 -135 -206 -205q-114 -85 -173 -113
q-128 -57 -227 -39q-164 37 -209 185q-10 33 -15 55t-4.5 53t11.5 58q14 102 60 195t120 192q50 67 119 133q118 105 254 133q53 11 107.5 -14t80.5 -72q30 -76 15 -129q-42 -171 -195 -277q-48 -36 -160 -77q-87 -26 -184 0q-45 13 -67 45q-9 12 -13 10.5t-10 -16.5
q-2 -5 -7.5 -19.5t-8 -21t-7 -20t-6.5 -21.5t-5 -20.5t-3.5 -21.5t-0.5 -20.5t1 -21.5zM1458 580q66 -5 141 28q61 27 136 99q71 74 88 155q9 38 -3.5 69.5t-43.5 41.5q-37 12 -76 0q-42 -8 -84.5 -32t-65.5 -43t-69 -60q-34 -29 -82 -97q-5 -7 -30 -40.5t-34 -53.5
q-4 -13 2 -16q8 -5 27 -18.5t30 -20t29 -11.5t35 -1zM1409 770q2 -22 -12 -47q-78 -111 -140 -180q-147 -169 -251 -273q-100 -100 -172 -149q-85 -56 -154 -68q-34 -6 -72 11t-59 51q-1 1 -3 4t-3 4q-29 57 -29 121q0 72 18 139q5 11 14.5 35t14.5 35q4 8 4 28v0q6 0 6 4
q2 2 0.5 2.5t-4.5 -0.5q-2 -4 -2 -6v0h-2q-5 -1 -9 -4.5t-8.5 -9.5t-6.5 -8l-72.5 -72.5t-81.5 -79.5q-118 -115 -235 -168q-73 -30 -123 -30q-61 -2 -109.5 34t-62.5 103q-13 74 12 155q47 169 168 322q122 155 260 240q104 66 201 69q67 0 143 -51q48 -31 92 -96l6 -6
q1 -2 3 -5.5t3 -5.5q1 -1 2.5 -3t2.5 -3q25 41 71 123q27 49 72 41l8 -4q27 -23 14 -51q-20 -46 -28 -56q-53 -71 -103 -180q-30 -55 -57 -114q-67 -148 -100 -269q-1 -3 -3.5 -14.5t-3.5 -18.5q-9 -55 -4 -106q0 -11 7 -29q12 -25 26 -32t39 0q50 16 70 30q7 5 30.5 21
t33.5 23.5l28 21t31.5 26t25.5 25.5q8 9 54.5 55t68.5 72q130 144 170 195q82 103 115 153q14 23 41 33q20 7 36.5 -4.5t18.5 -32.5zM543 592q10 12 34 44t42 54t36 41q24 31 13 66q-18 64 -80 110q-52 42 -99 35q-40 0 -51 -4q-113 -38 -243 -168q-47 -47 -82 -96
q-115 -156 -154 -291q-16 -66 -12 -100q6 -79 86 -76q64 3 125 41q128 84 190 149l166 166q3 3 9.5 9t11 11t8.5 9z" />
    <glyph glyph-name="ccedilla" unicode="&#xe7;" horiz-adv-x="862" 
d="M-98 348q-2 96 57 252q47 132 143 248q66 77 127 130t133 85q62 31 142 24q51 -6 80 -49q43 -64 34 -143q-1 -19 -15 -31t-34 -14q-20 0 -30 8t-19 29q-5 12 -10 55q0 25 -11 36t-36 11q-43 0 -103 -39q-126 -82 -219 -217q-81 -126 -114 -241q-29 -109 -27 -160
q4 -49 15.5 -84t41.5 -60q23 -20 58 -26q84 -14 190 41q87 48 197 141q33 27 67.5 60.5t78.5 77.5l65 65q27 27 55 56t66 70.5t53 57.5q29 33 63 33q22 -2 35 -19.5t4 -37.5q-15 -33 -33 -54q-131 -149 -301 -309q-132 -129 -252 -203q-104 -67 -206 -84q-124 -19 -213 58
q-44 42 -74 133q-8 26 -8 100zM117 -350q-59 0 -80 10q-20 7 -23 35q0 23 21 29q4 1 22 7.5t27 6.5q43 0 129 20q111 29 176 103q26 26 -8 39q-58 27 -137 10q-41 -6 -70 -27q-20 -17 -50 -5t-30 46q0 91 43 156q3 5 11 24t16 27q9 11 22.5 17t20.5 2q26 -16 26 -44
q0 -22 -22 -77q-1 -3 -4 -7.5t-3 -6.5t3 -7q3 -4 6.5 -5t9 0t6.5 1q3 0 15 6q113 18 213 -41q31 -18 39.5 -55.5t-7.5 -73.5q-28 -67 -116 -119q-117 -71 -256 -71z" />
    <glyph glyph-name="egrave" unicode="&#xe8;" horiz-adv-x="835" 
d="M8 369q-6 -61 15 -113q19 -58 79.5 -87t120.5 -19q97 16 226 106q67 48 169 158q38 38 97 116q124 166 143 195q1 1 9 13t10 18q9 17 22 28q17 13 35.5 14t30.5 -10t14 -32t-10 -39q-66 -95 -113 -156q-76 -103 -115 -143q-112 -135 -206 -205q-114 -85 -173 -113
q-128 -57 -227 -39q-164 37 -209 185q-10 33 -15 55t-4.5 53t11.5 58q14 102 60 195t120 192q50 67 119 133q118 105 254 133q53 11 107.5 -14t80.5 -72q30 -76 15 -129q-42 -171 -195 -277q-48 -36 -160 -77q-87 -26 -184 0q-45 13 -67 45q-9 12 -13 10.5t-10 -16.5
q-2 -5 -7.5 -19.5t-8 -21t-7 -20t-6.5 -21.5t-5 -20.5t-3.5 -21.5t-0.5 -20.5t1 -21.5zM221 580q66 -5 141 28q61 27 136 99q71 74 88 155q9 38 -3.5 69.5t-43.5 41.5q-37 12 -76 0q-42 -8 -84.5 -32t-65.5 -43t-69 -60q-34 -29 -82 -97q-5 -7 -30 -40.5t-34 -53.5
q-4 -13 2 -16q8 -5 27 -18.5t30 -20t29 -11.5t35 -1zM606 1206q16 -20 0 -39q-6 -9 -21 -13.5t-24 1.5q-12 3 -39 21q-64 42 -176 108q-18 9 -35 33q-9 22 0 41q4 10 20.5 13.5t26.5 -1.5q40 -13 54 -24q100 -67 168 -109q11 -9 26 -31z" />
    <glyph glyph-name="eacute" unicode="&#xe9;" horiz-adv-x="835" 
d="M8 369q-6 -61 15 -113q19 -58 79.5 -87t120.5 -19q97 16 226 106q67 48 169 158q38 38 97 116q124 166 143 195q1 1 9 13t10 18q9 17 22 28q17 13 35.5 14t30.5 -10t14 -32t-10 -39q-66 -95 -113 -156q-76 -103 -115 -143q-112 -135 -206 -205q-114 -85 -173 -113
q-128 -57 -227 -39q-164 37 -209 185q-10 33 -15 55t-4.5 53t11.5 58q14 102 60 195t120 192q50 67 119 133q118 105 254 133q53 11 107.5 -14t80.5 -72q30 -76 15 -129q-42 -171 -195 -277q-48 -36 -160 -77q-87 -26 -184 0q-45 13 -67 45q-9 12 -13 10.5t-10 -16.5
q-2 -5 -7.5 -19.5t-8 -21t-7 -20t-6.5 -21.5t-5 -20.5t-3.5 -21.5t-0.5 -20.5t1 -21.5zM221 580q66 -5 141 28q61 27 136 99q71 74 88 155q9 38 -3.5 69.5t-43.5 41.5q-37 12 -76 0q-42 -8 -84.5 -32t-65.5 -43t-69 -60q-34 -29 -82 -97q-5 -7 -30 -40.5t-34 -53.5
q-4 -13 2 -16q8 -5 27 -18.5t30 -20t29 -11.5t35 -1zM608 1350q26 4 35 -19q5 -10 1 -25.5t-13 -21.5q-11 -9 -37 -22q-105 -54 -182 -99q-24 -12 -45 -12q-26 3 -37 20q-6 9 -1.5 24.5t13.5 23.5q33 25 49 32q29 16 89 45.5t89 44.5q18 9 39 9z" />
    <glyph glyph-name="ecircumflex" unicode="&#xea;" horiz-adv-x="835" 
d="M8 369q-6 -61 15 -113q19 -58 79.5 -87t120.5 -19q97 16 226 106q67 48 169 158q38 38 97 116q124 166 143 195q1 1 9 13t10 18q9 17 22 28q17 13 35.5 14t30.5 -10t14 -32t-10 -39q-66 -95 -113 -156q-76 -103 -115 -143q-112 -135 -206 -205q-114 -85 -173 -113
q-128 -57 -227 -39q-164 37 -209 185q-10 33 -15 55t-4.5 53t11.5 58q14 102 60 195t120 192q50 67 119 133q118 105 254 133q53 11 107.5 -14t80.5 -72q30 -76 15 -129q-42 -171 -195 -277q-48 -36 -160 -77q-87 -26 -184 0q-45 13 -67 45q-9 12 -13 10.5t-10 -16.5
q-2 -5 -7.5 -19.5t-8 -21t-7 -20t-6.5 -21.5t-5 -20.5t-3.5 -21.5t-0.5 -20.5t1 -21.5zM221 580q66 -5 141 28q61 27 136 99q71 74 88 155q9 38 -3.5 69.5t-43.5 41.5q-37 12 -76 0q-42 -8 -84.5 -32t-65.5 -43t-69 -60q-34 -29 -82 -97q-5 -7 -30 -40.5t-34 -53.5
q-4 -13 2 -16q8 -5 27 -18.5t30 -20t29 -11.5t35 -1zM666 1247q0 -39 -39 -53q-5 -2 -17 4q-29 11 -57 51q-26 37 -43 70q-9 11 -25 2q-8 -4 -15 -10t-15 -14.5t-13 -12.5q-12 -10 -31.5 -31.5t-31.5 -31.5q-15 -15 -31 -23q-20 -10 -35 2q-21 18 -16 39q8 27 22 41l125 125
q28 28 66 25q15 0 31 -13q44 -42 116 -147q4 -8 9 -23z" />
    <glyph glyph-name="edieresis" unicode="&#xeb;" horiz-adv-x="835" 
d="M8 369q-6 -61 15 -113q19 -58 79.5 -87t120.5 -19q97 16 226 106q67 48 169 158q38 38 97 116q124 166 143 195q1 1 9 13t10 18q9 17 22 28q17 13 35.5 14t30.5 -10t14 -32t-10 -39q-66 -95 -113 -156q-76 -103 -115 -143q-112 -135 -206 -205q-114 -85 -173 -113
q-128 -57 -227 -39q-164 37 -209 185q-10 33 -15 55t-4.5 53t11.5 58q14 102 60 195t120 192q50 67 119 133q118 105 254 133q53 11 107.5 -14t80.5 -72q30 -76 15 -129q-42 -171 -195 -277q-48 -36 -160 -77q-87 -26 -184 0q-45 13 -67 45q-9 12 -13 10.5t-10 -16.5
q-2 -5 -7.5 -19.5t-8 -21t-7 -20t-6.5 -21.5t-5 -20.5t-3.5 -21.5t-0.5 -20.5t1 -21.5zM221 580q66 -5 141 28q61 27 136 99q71 74 88 155q9 38 -3.5 69.5t-43.5 41.5q-37 12 -76 0q-42 -8 -84.5 -32t-65.5 -43t-69 -60q-34 -29 -82 -97q-5 -7 -30 -40.5t-34 -53.5
q-4 -13 2 -16q8 -5 27 -18.5t30 -20t29 -11.5t35 -1zM455 1276q43 0 43 -55q-2 -22 -17 -37t-37 -15q-45 3 -45 50q0 57 56 57zM586 1276q46 0 43 -55q0 -21 -15.5 -36.5t-35.5 -15.5q-25 1 -35.5 13t-10.5 37q0 27 14.5 42t39.5 15z" />
    <glyph glyph-name="igrave" unicode="&#xec;" horiz-adv-x="620" 
d="M-123 246q0 105 53 248q70 174 107 241q47 84 145 252q27 49 72 41q26 -3 29 -27q0 -28 -15 -55q-10 -17 -39 -69t-47 -80q-39 -58 -92 -174q-70 -147 -100 -269q-19 -71 -13 -139q0 -13 7 -27q14 -27 27 -33.5t38 1.5q37 9 72 30q108 74 147 115q14 14 58.5 57.5
t66.5 69.5q21 25 79.5 91t88.5 104q91 114 115 153q14 22 43 33q18 7 35 -4.5t20 -32.5q0 -24 -14 -45q-68 -100 -137 -180q-147 -168 -254 -273q-95 -98 -172 -151q-84 -56 -152 -68q-37 -6 -77 13.5t-60 56.5q-31 55 -31 121zM440 1098q16 -20 0 -39q-6 -9 -21 -13.5
t-24 1.5q-14 4 -39 20q-82 53 -176 109q-19 9 -35 32q-9 22 0 41q4 10 21 14t27 -1q35 -12 53 -25q100 -67 168 -109q13 -10 26 -30z" />
    <glyph glyph-name="iacute" unicode="&#xed;" horiz-adv-x="620" 
d="M-123 246q0 105 53 248q70 174 107 241q47 84 145 252q27 49 72 41q26 -3 29 -27q0 -28 -15 -55q-10 -17 -39 -69t-47 -80q-39 -58 -92 -174q-70 -147 -100 -269q-19 -71 -13 -139q0 -13 7 -27q14 -27 27 -33.5t38 1.5q37 9 72 30q108 74 147 115q14 14 58.5 57.5
t66.5 69.5q21 25 79.5 91t88.5 104q91 114 115 153q14 22 43 33q18 7 35 -4.5t20 -32.5q0 -24 -14 -45q-68 -100 -137 -180q-147 -168 -254 -273q-95 -98 -172 -151q-84 -56 -152 -68q-37 -6 -77 13.5t-60 56.5q-31 55 -31 121zM410 1303q26 4 34 -19q5 -10 1 -25.5
t-13 -21.5q-14 -11 -37 -23q-117 -60 -182 -98q-24 -12 -45 -12q-26 3 -37 20q-6 9 -1.5 24t13.5 23q35 26 50 33q30 16 89.5 45.5t88.5 44.5q18 9 39 9z" />
    <glyph glyph-name="icircumflex" unicode="&#xee;" horiz-adv-x="620" 
d="M-123 246q0 105 53 248q70 174 107 241q47 84 145 252q27 49 72 41q26 -3 29 -27q0 -28 -15 -55q-10 -17 -39 -69t-47 -80q-39 -58 -92 -174q-70 -147 -100 -269q-19 -71 -13 -139q0 -13 7 -27q14 -27 27 -33.5t38 1.5q37 9 72 30q108 74 147 115q14 14 58.5 57.5
t66.5 69.5q21 25 79.5 91t88.5 104q91 114 115 153q14 22 43 33q18 7 35 -4.5t20 -32.5q0 -24 -14 -45q-68 -100 -137 -180q-147 -168 -254 -273q-95 -98 -172 -151q-84 -56 -152 -68q-37 -6 -77 13.5t-60 56.5q-31 55 -31 121zM442 1139q0 -40 -39 -54q-4 -1 -16 5
q-29 11 -57 51t-43 69q-9 11 -25 2q-8 -4 -15 -9.5t-15.5 -14l-12.5 -12.5q-11 -10 -31.5 -32t-31.5 -32q-13 -13 -31 -22q-20 -10 -35 2q-21 18 -16 38q8 27 22 41l125 125q28 28 66 25q15 0 30 -12q45 -43 117 -148q2 -4 8 -22z" />
    <glyph glyph-name="idieresis" unicode="&#xef;" horiz-adv-x="620" 
d="M-123 246q0 105 53 248q70 174 107 241q47 84 145 252q27 49 72 41q26 -3 29 -27q0 -28 -15 -55q-10 -17 -39 -69t-47 -80q-39 -58 -92 -174q-70 -147 -100 -269q-19 -71 -13 -139q0 -13 7 -27q14 -27 27 -33.5t38 1.5q37 9 72 30q108 74 147 115q14 14 58.5 57.5
t66.5 69.5q21 25 79.5 91t88.5 104q91 114 115 153q14 22 43 33q18 7 35 -4.5t20 -32.5q0 -24 -14 -45q-68 -100 -137 -180q-147 -168 -254 -273q-95 -98 -172 -151q-84 -56 -152 -68q-37 -6 -77 13.5t-60 56.5q-31 55 -31 121zM213 1233q43 0 43 -55q-2 -22 -17 -37
t-36 -15q-45 3 -45 50q0 57 55 57zM344 1233q46 0 43 -55q0 -22 -15.5 -37t-35.5 -15q-24 1 -34.5 13t-10.5 37q0 57 53 57z" />
    <glyph glyph-name="eth" unicode="&#xf0;" horiz-adv-x="1234" 
d="M63 -131q-5 109 50 244q78 189 166 307q73 106 161 211q72 84 262 270q73 70 162 131q25 17 30.5 30.5t-1.5 41.5q-4 10 -4 29q3 85 -10 180q-2 12 -9 15.5t-18 -3.5q-18 -14 -57 -37.5t-56 -36.5q-20 -13 -61.5 -30t-59.5 -27q-22 -11 -47 14q-11 13 2 39q4 9 10.5 15.5
t16.5 13.5t14 10q56 48 134 86q13 5 25.5 13t31 21t24.5 17q15 11 19 21t-2 29q-35 115 -64 174q-4 9 -16.5 44.5t-22.5 53.5q-2 4 -2 29q1 20 19 28.5t33 -2.5q42 -25 75 -86q3 -6 10 -17t10 -16.5t8 -17t4.5 -18.5l-1.5 -21q22 -45 43 -117q5 -15 19 -4q55 39 151 84
q23 11 34 7t23 -27q5 -12 -4 -27q-7 -17 -22.5 -32t-27.5 -22.5t-34 -19.5q-11 -7 -30 -19t-34 -21.5t-30 -16.5q-25 -14 -18 -41q12 -53 20 -164q4 -96 17 -137q5 -12 -2 -33q-17 -41 -17 -90q0 -64 -26 -233q-28 -169 -91 -355q-73 -206 -163 -346q-59 -96 -144 -194
q-96 -106 -194 -154q-64 -31 -101 -31q-102 -3 -155 66q-57 73 -50 172zM152 -135q-5 -38 24 -101q18 -35 62 -38q86 -5 168 63q165 141 276 358q94 193 141 379q38 166 47 234q1 10 2.5 29.5t4 34.5t6.5 28q4 11 5 23t0.5 26.5t0.5 22.5q0 1 -1 4t-1 4q-6 0 -8 -2
q-110 -93 -150 -131q-133 -127 -190 -197q-11 -14 -41 -47t-45 -53q-7 -9 -31 -40.5t-34.5 -45.5t-28.5 -39.5t-32 -47.5t-26 -44q-74 -126 -106 -219q-43 -105 -43 -201z" />
    <glyph glyph-name="ntilde" unicode="&#xf1;" horiz-adv-x="1044" 
d="M147 805q12 14 37 45t40 49t38.5 42.5t44.5 43.5q121 110 213 137q60 16 109 -2q48 -19 65 -73q39 -106 17 -199q-4 -17 -7 -50.5t-4 -39.5q-16 -117 -49 -264q-1 -3 -12 -97q-1 -5 -5 -37.5t-3.5 -38t0.5 -38.5v-25q-4 -30 16 -43q17 -10 41 14q9 9 29.5 23t34.5 28
t22 31q47 50 122.5 153.5t96.5 129.5q40 50 137 192q22 32 58 29q15 -3 22.5 -14.5t3.5 -26.5q-5 -20 -8 -26q-47 -72 -145 -216q-68 -95 -127 -170q-2 -3 -18.5 -24.5t-21 -27t-18.5 -23.5t-21.5 -26.5t-20 -22t-23.5 -24.5t-23 -21q-23 -23 -55 -48q-44 -27 -108 -20
q-37 6 -58 41q-28 40 -26 72q1 8 -5 26t-4 29q5 30 15 109t20 122q17 74 25 138q3 24 12.5 76t11.5 79q12 128 -6 191q-4 13 -5.5 18.5t-9 9t-9 3.5t-19.5 1q-24 0 -47 -10q-72 -35 -139 -96q-137 -134 -244 -318q-27 -46 -71.5 -135.5t-63.5 -124.5q-1 -2 -4.5 -11.5
t-7.5 -14.5q-12 -22 -33 -26.5t-41 9.5q-14 11 -14 25q1 8 0.5 21t0.5 23t5 19q16 45 50.5 152t55.5 164q23 60 31 90q9 35 42.5 95t43.5 93q5 20 19 27q33 13 49 2q26 -20 14 -51q-8 -21 -53 -123q-13 -31 -10 -47q-7 0 -9 -2q-2 -5 1 -5q2 0 3 1q0 1 1 3.5t1 4.5z
M608 1221q-71 -5 -121 75q-13 25 -28 72q-1 1 -2.5 8t-3.5 10q-5 11 -14.5 12t-14.5 -9q-1 -3 -15 -35t-20 -49q-1 -4 -5 -15.5t-5 -17.5q-6 -19 -21 -27.5t-32 -3.5q-16 5 -27.5 22.5t-7.5 32.5q6 17 12.5 47t9.5 41q28 79 107 107q31 12 62 0t48 -41q16 -33 25 -66
q8 -31 33 -53q40 -32 67 12q8 14 14 30t12.5 37.5t10.5 31.5q5 18 19 39q17 24 43 14q25 -11 28 -35q3 -67 -14 -108q-23 -52 -31 -66q-44 -68 -129 -65z" />
    <glyph glyph-name="ograve" unicode="&#xf2;" horiz-adv-x="937" 
d="M1077 778q-26 -42 -69.5 -83.5t-70 -61t-87.5 -62.5q-63 -44 -227 -122q-38 -18 -58 -54q-94 -143 -209 -223q-101 -66 -200 -53q-59 10 -95 37q-67 55 -88 151q-3 15 -4 31.5t-0.5 29t3.5 31t5.5 27.5t7.5 30t7 29q1 4 4 14t4 15.5t2 14.5t0 17t-4 17q-4 13 -5 27t2 32
t5 26.5t8 29.5q43 143 178 252q81 62 164 90q113 36 217 -6q87 -36 115 -146q31 -106 -14 -256q-1 -8 -11 -32q-1 -4 0.5 -6t3.5 -2t3 1q14 3 22 9q170 102 258 170q1 0 22 19.5t35 25.5q9 6 21 12q20 11 28.5 9.5t26.5 -21.5v-19zM274 463q56 4 86 8q27 4 56 12t66 19
t55 16q22 9 28 23q43 90 49 194q0 10 -4.5 27t-5.5 24q-6 62 -37 123q-8 19 -28 29q-30 17 -64.5 22t-61.5 1.5t-65 -13.5q-5 -1 -41 -16q-13 -7 -32.5 -24.5t-26.5 -22.5q-100 -81 -144 -205q-1 -5 -6 -19.5t-6 -20.5t2 -19q5 -11 10 -48q3 -46 22.5 -67.5t66.5 -32.5
q20 -5 81 -10zM63 358v-30q3 -87 91 -121q48 -18 120 8q24 10 46 23.5t44.5 33t35.5 32t39 39t34 34.5q6 6 2 14q-2 2 -14 2q-97 -30 -160 -28h-74q-81 0 -143 45q-18 12 -18 -9q-3 -21 -3 -43zM608 1165q16 -20 0 -39q-6 -9 -21 -13.5t-24 1.5q-12 3 -39 21
q-64 42 -176 108q-18 9 -35 33q-9 22 0 41q4 10 20.5 13.5t26.5 -1.5q40 -13 54 -24q100 -67 168 -109q11 -9 26 -31z" />
    <glyph glyph-name="oacute" unicode="&#xf3;" horiz-adv-x="937" 
d="M1077 778q-26 -42 -69.5 -83.5t-70 -61t-87.5 -62.5q-63 -44 -227 -122q-38 -18 -58 -54q-94 -143 -209 -223q-101 -66 -200 -53q-59 10 -95 37q-67 55 -88 151q-3 15 -4 31.5t-0.5 29t3.5 31t5.5 27.5t7.5 30t7 29q1 4 4 14t4 15.5t2 14.5t0 17t-4 17q-4 13 -5 27t2 32
t5 26.5t8 29.5q43 143 178 252q81 62 164 90q113 36 217 -6q87 -36 115 -146q31 -106 -14 -256q-1 -8 -11 -32q-1 -4 0.5 -6t3.5 -2t3 1q14 3 22 9q170 102 258 170q1 0 22 19.5t35 25.5q9 6 21 12q20 11 28.5 9.5t26.5 -21.5v-19zM274 463q56 4 86 8q27 4 56 12t66 19
t55 16q22 9 28 23q43 90 49 194q0 10 -4.5 27t-5.5 24q-6 62 -37 123q-8 19 -28 29q-30 17 -64.5 22t-61.5 1.5t-65 -13.5q-5 -1 -41 -16q-13 -7 -32.5 -24.5t-26.5 -22.5q-100 -81 -144 -205q-1 -5 -6 -19.5t-6 -20.5t2 -19q5 -11 10 -48q3 -46 22.5 -67.5t66.5 -32.5
q20 -5 81 -10zM63 358v-30q3 -87 91 -121q48 -18 120 8q24 10 46 23.5t44.5 33t35.5 32t39 39t34 34.5q6 6 2 14q-2 2 -14 2q-97 -30 -160 -28h-74q-81 0 -143 45q-18 12 -18 -9q-3 -21 -3 -43zM637 1339q27 4 35 -18q4 -11 0 -26t-13 -21q-15 -12 -36 -23
q-124 -63 -183 -98q-24 -12 -45 -12q-26 3 -37 20q-6 9 -1 24t14 23q37 28 49 33q29 16 89 45t89 45q16 8 39 8z" />
    <glyph glyph-name="ocircumflex" unicode="&#xf4;" horiz-adv-x="937" 
d="M1077 778q-26 -42 -69.5 -83.5t-70 -61t-87.5 -62.5q-63 -44 -227 -122q-38 -18 -58 -54q-94 -143 -209 -223q-101 -66 -200 -53q-59 10 -95 37q-67 55 -88 151q-3 15 -4 31.5t-0.5 29t3.5 31t5.5 27.5t7.5 30t7 29q1 4 4 14t4 15.5t2 14.5t0 17t-4 17q-4 13 -5 27t2 32
t5 26.5t8 29.5q43 143 178 252q81 62 164 90q113 36 217 -6q87 -36 115 -146q31 -106 -14 -256q-1 -8 -11 -32q-1 -4 0.5 -6t3.5 -2t3 1q14 3 22 9q170 102 258 170q1 0 22 19.5t35 25.5q9 6 21 12q20 11 28.5 9.5t26.5 -21.5v-19zM274 463q56 4 86 8q27 4 56 12t66 19
t55 16q22 9 28 23q43 90 49 194q0 10 -4.5 27t-5.5 24q-6 62 -37 123q-8 19 -28 29q-30 17 -64.5 22t-61.5 1.5t-65 -13.5q-5 -1 -41 -16q-13 -7 -32.5 -24.5t-26.5 -22.5q-100 -81 -144 -205q-1 -5 -6 -19.5t-6 -20.5t2 -19q5 -11 10 -48q3 -46 22.5 -67.5t66.5 -32.5
q20 -5 81 -10zM63 358v-30q3 -87 91 -121q48 -18 120 8q24 10 46 23.5t44.5 33t35.5 32t39 39t34 34.5q6 6 2 14q-2 2 -14 2q-97 -30 -160 -28h-74q-81 0 -143 45q-18 12 -18 -9q-3 -21 -3 -43zM641 1180q0 -40 -39 -54q-5 -2 -16 4q-29 11 -58 52q-28 40 -43 69
q-9 11 -24 2q-8 -4 -15 -9.5t-15.5 -14l-12.5 -12.5q-12 -10 -32.5 -32t-31.5 -32q-16 -16 -30 -23q-20 -10 -35 3q-22 18 -17 38q7 25 23 41l125 125q28 28 65 25q16 0 31 -12q45 -43 117 -148q2 -4 8 -22z" />
    <glyph glyph-name="otilde" unicode="&#xf5;" horiz-adv-x="937" 
d="M1077 778q-26 -42 -69.5 -83.5t-70 -61t-87.5 -62.5q-63 -44 -227 -122q-38 -18 -58 -54q-94 -143 -209 -223q-101 -66 -200 -53q-59 10 -95 37q-67 55 -88 151q-3 15 -4 31.5t-0.5 29t3.5 31t5.5 27.5t7.5 30t7 29q1 4 4 14t4 15.5t2 14.5t0 17t-4 17q-4 13 -5 27t2 32
t5 26.5t8 29.5q43 143 178 252q81 62 164 90q113 36 217 -6q87 -36 115 -146q31 -106 -14 -256q-1 -8 -11 -32q-1 -4 0.5 -6t3.5 -2t3 1q14 3 22 9q170 102 258 170q1 0 22 19.5t35 25.5q9 6 21 12q20 11 28.5 9.5t26.5 -21.5v-19zM274 463q56 4 86 8q27 4 56 12t66 19
t55 16q22 9 28 23q43 90 49 194q0 10 -4.5 27t-5.5 24q-6 62 -37 123q-8 19 -28 29q-30 17 -64.5 22t-61.5 1.5t-65 -13.5q-5 -1 -41 -16q-13 -7 -32.5 -24.5t-26.5 -22.5q-100 -81 -144 -205q-1 -5 -6 -19.5t-6 -20.5t2 -19q5 -11 10 -48q3 -46 22.5 -67.5t66.5 -32.5
q20 -5 81 -10zM63 358v-30q3 -87 91 -121q48 -18 120 8q24 10 46 23.5t44.5 33t35.5 32t39 39t34 34.5q6 6 2 14q-2 2 -14 2q-97 -30 -160 -28h-74q-81 0 -143 45q-18 12 -18 -9q-3 -21 -3 -43zM547 1116q-71 -5 -121 76q-15 30 -29 72q-1 1 -2.5 8t-3.5 10
q-5 11 -14.5 11.5t-14.5 -9.5q-30 -73 -34 -84q-1 -5 -5.5 -16t-5.5 -17q-6 -18 -20.5 -26.5t-32.5 -3.5q-16 5 -27.5 22.5t-7.5 32.5q6 18 13.5 48.5t9.5 39.5q28 78 106 106q31 12 62.5 0.5t48.5 -40.5q16 -33 25 -66q8 -32 32 -53q40 -32 68 12q8 14 14 30t12.5 37
t10.5 31q6 21 18 39q18 25 43 15q26 -11 29 -35q3 -68 -14 -109q-21 -48 -31 -65q-44 -69 -129 -66z" />
    <glyph glyph-name="odieresis" unicode="&#xf6;" horiz-adv-x="937" 
d="M1077 778q-26 -42 -69.5 -83.5t-70 -61t-87.5 -62.5q-63 -44 -227 -122q-38 -18 -58 -54q-94 -143 -209 -223q-101 -66 -200 -53q-59 10 -95 37q-67 55 -88 151q-3 15 -4 31.5t-0.5 29t3.5 31t5.5 27.5t7.5 30t7 29q1 4 4 14t4 15.5t2 14.5t0 17t-4 17q-4 13 -5 27t2 32
t5 26.5t8 29.5q43 143 178 252q81 62 164 90q113 36 217 -6q87 -36 115 -146q31 -106 -14 -256q-1 -8 -11 -32q-1 -4 0.5 -6t3.5 -2t3 1q14 3 22 9q170 102 258 170q1 0 22 19.5t35 25.5q9 6 21 12q20 11 28.5 9.5t26.5 -21.5v-19zM274 463q56 4 86 8q27 4 56 12t66 19
t55 16q22 9 28 23q43 90 49 194q0 10 -4.5 27t-5.5 24q-6 62 -37 123q-8 19 -28 29q-30 17 -64.5 22t-61.5 1.5t-65 -13.5q-5 -1 -41 -16q-13 -7 -32.5 -24.5t-26.5 -22.5q-100 -81 -144 -205q-1 -5 -6 -19.5t-6 -20.5t2 -19q5 -11 10 -48q3 -46 22.5 -67.5t66.5 -32.5
q20 -5 81 -10zM63 358v-30q3 -87 91 -121q48 -18 120 8q24 10 46 23.5t44.5 33t35.5 32t39 39t34 34.5q6 6 2 14q-2 2 -14 2q-97 -30 -160 -28h-74q-81 0 -143 45q-18 12 -18 -9q-3 -21 -3 -43zM420 1233q43 0 43 -55q-2 -22 -16.5 -37t-36.5 -15q-45 3 -45 50q0 57 55 57z
M551 1233q46 0 43 -55q0 -22 -15 -37t-36 -15q-24 1 -34.5 13t-10.5 37q0 57 53 57z" />
    <glyph glyph-name="divide" unicode="&#xf7;" horiz-adv-x="538" 
d="M201 827q0 30 22 49t49 17q25 -3 42 -19.5t16 -39.5q-1 -29 -25 -50.5t-53 -19.5q-23 0 -38 18.5t-13 44.5zM201 418q0 30 21.5 48.5t49.5 16.5q25 -3 42 -19.5t16 -39.5q-1 -29 -25 -50.5t-53 -19.5q-23 0 -38 19t-13 45zM283 578h-50q-23 -3 -66.5 4t-62.5 6
q-7 0 -22 10q-18 10 -19.5 27t13.5 32q19 19 53 19q7 0 24.5 -1t30 -0.5t23.5 3.5q39 8 98.5 7.5t95.5 0.5q26 3 48 -10q29 -15 26 -53q-2 -28 -37 -33q-7 -1 -21.5 -5t-26.5 -6t-23 -1q-27 2 -84 2v-2z" />
    <glyph glyph-name="oslash" unicode="&#xf8;" horiz-adv-x="937" 
d="M1077 778q-26 -42 -69.5 -83.5t-70 -61t-87.5 -62.5q-63 -44 -227 -122q-38 -18 -58 -54q-94 -143 -209 -223q-101 -66 -200 -53q-59 10 -95 37q-67 55 -88 151q-3 15 -4 31.5t-0.5 29t3.5 31t5.5 27.5t7.5 30t7 29q1 4 4 14t4 15.5t2 14.5t0 17t-4 17q-4 13 -5 27t2 32
t5 26.5t8 29.5q43 143 178 252q81 62 164 90q113 36 217 -6q87 -36 115 -146q31 -106 -14 -256q-1 -8 -11 -32q-1 -4 0.5 -6t3.5 -2t3 1q14 3 22 9q170 102 258 170q1 0 22 19.5t35 25.5q9 6 21 12q20 11 28.5 9.5t26.5 -21.5v-19zM274 463q56 4 86 8q27 4 56 12t66 19
t55 16q22 9 28 23q43 90 49 194q0 10 -4.5 27t-5.5 24q-6 62 -37 123q-8 19 -28 29q-30 17 -64.5 22t-61.5 1.5t-65 -13.5q-5 -1 -41 -16q-13 -7 -32.5 -24.5t-26.5 -22.5q-100 -81 -144 -205q-1 -5 -6 -19.5t-6 -20.5t2 -19q5 -11 10 -48q3 -46 22.5 -67.5t66.5 -32.5
q20 -5 81 -10zM63 358v-30q3 -87 91 -121q48 -18 120 8q24 10 46 23.5t44.5 33t35.5 32t39 39t34 34.5q6 6 2 14q-2 2 -14 2q-97 -30 -160 -28h-74q-81 0 -143 45q-18 12 -18 -9q-3 -21 -3 -43zM-20 -150q6 38 28 84q19 44 59 131.5t60 131.5q48 113 168 346
q118 222 164 299q15 24 38.5 71.5t32.5 63.5q12 21 77.5 136.5t105.5 174.5q5 8 10.5 18t12 22t9.5 18q7 14 39 28q19 6 36 -8.5t14 -34.5q-3 -21 -13 -41q-22 -37 -65 -110.5t-64 -110.5q-4 -7 -24 -43t-31 -57q-58 -112 -133 -244q-126 -224 -332 -645q-51 -108 -68 -160
q-4 -16 -12 -32t-19 -35.5t-16 -30.5q-9 -17 -14 -19q-4 -1 -13.5 -6t-13.5 -5.5t-14 3.5q-27 16 -22 39v16z" />
    <glyph glyph-name="ugrave" unicode="&#xf9;" horiz-adv-x="1132" 
d="M526 358q1 25 -0.5 34t1.5 33.5t3.5 32.5t4.5 32t5.5 32l6 32t6.5 32q33 142 49 184q7 11 0 18q-4 2 -5 1t-4 -4.5t-5 -4.5l-2 -2q-22 -29 -68.5 -88.5t-68.5 -89.5q-140 -191 -197 -256q-43 -52 -94 -80q-59 -35 -104 -18t-66 76q-36 94 -15 194q3 17 9 60t12 67
q44 152 102 248q22 33 35 63q2 8 12.5 20.5t12.5 14.5q18 18 41 8q26 -11 26 -36q-1 -3 -1 -9.5t-1 -11t-4 -8.5q-6 -12 -22 -53t-29 -62q-61 -110 -84 -227q-19 -90 -19 -172q3 -31 11 -51q14 -41 51 -19q41 21 76 68q46 56 110 145q23 32 49 66.5t59 77t50 65.5
q98 124 195 242q12 15 17.5 21t19.5 12.5t30 3.5q38 -3 41 -39q-1 -16 0 -20.5t-3.5 -20t-5.5 -19.5t-7.5 -18.5t-7.5 -18.5q-67 -158 -111 -354q-32 -139 -23 -270q1 -7 11 -37q24 -80 98 -39q64 37 115 104q42 52 200 267q129 172 144 194q4 6 14 13.5t14 11.5q12 16 43 0
q21 -8 21 -33q0 -22 -19 -49q-15 -21 -45.5 -62t-46.5 -61q-19 -25 -65 -87t-72 -95q-16 -20 -47.5 -61t-51 -65t-49.5 -56.5t-59 -57.5q-79 -68 -162 -63q-50 3 -82 43q-46 51 -49 131q-1 12 -1 24.5t0.5 26.5t0.5 20zM633 1174q16 -20 0 -39q-6 -9 -21 -14t-24 1
q-12 3 -39 21q-64 42 -176 108q-18 9 -35 33q-9 22 0 41q4 10 20.5 13.5t26.5 -1.5q38 -13 53 -24q100 -67 168 -109q15 -12 27 -30z" />
    <glyph glyph-name="uacute" unicode="&#xfa;" horiz-adv-x="1132" 
d="M526 358q1 25 -0.5 34t1.5 33.5t3.5 32.5t4.5 32t5.5 32l6 32t6.5 32q33 142 49 184q7 11 0 18q-4 2 -5 1t-4 -4.5t-5 -4.5l-2 -2q-22 -29 -68.5 -88.5t-68.5 -89.5q-140 -191 -197 -256q-43 -52 -94 -80q-59 -35 -104 -18t-66 76q-36 94 -15 194q3 17 9 60t12 67
q44 152 102 248q22 33 35 63q2 8 12.5 20.5t12.5 14.5q18 18 41 8q26 -11 26 -36q-1 -3 -1 -9.5t-1 -11t-4 -8.5q-6 -12 -22 -53t-29 -62q-61 -110 -84 -227q-19 -90 -19 -172q3 -31 11 -51q14 -41 51 -19q41 21 76 68q46 56 110 145q23 32 49 66.5t59 77t50 65.5
q98 124 195 242q12 15 17.5 21t19.5 12.5t30 3.5q38 -3 41 -39q-1 -16 0 -20.5t-3.5 -20t-5.5 -19.5t-7.5 -18.5t-7.5 -18.5q-67 -158 -111 -354q-32 -139 -23 -270q1 -7 11 -37q24 -80 98 -39q64 37 115 104q42 52 200 267q129 172 144 194q4 6 14 13.5t14 11.5q12 16 43 0
q21 -8 21 -33q0 -22 -19 -49q-15 -21 -45.5 -62t-46.5 -61q-19 -25 -65 -87t-72 -95q-16 -20 -47.5 -61t-51 -65t-49.5 -56.5t-59 -57.5q-79 -68 -162 -63q-50 3 -82 43q-46 51 -49 131q-1 12 -1 24.5t0.5 26.5t0.5 20zM662 1321q26 4 34 -18q5 -10 1 -26t-13 -22
q-11 -9 -37 -22q-117 -60 -182 -98q-26 -13 -45 -13q-25 3 -37 21q-6 9 -1.5 24t13.5 23q37 28 49 33q29 15 89 44.5t90 45.5q16 8 39 8z" />
    <glyph glyph-name="ucircumflex" unicode="&#xfb;" horiz-adv-x="1132" 
d="M526 358q1 25 -0.5 34t1.5 33.5t3.5 32.5t4.5 32t5.5 32l6 32t6.5 32q33 142 49 184q7 11 0 18q-4 2 -5 1t-4 -4.5t-5 -4.5l-2 -2q-22 -29 -68.5 -88.5t-68.5 -89.5q-140 -191 -197 -256q-43 -52 -94 -80q-59 -35 -104 -18t-66 76q-36 94 -15 194q3 17 9 60t12 67
q44 152 102 248q22 33 35 63q2 8 12.5 20.5t12.5 14.5q18 18 41 8q26 -11 26 -36q-1 -3 -1 -9.5t-1 -11t-4 -8.5q-6 -12 -22 -53t-29 -62q-61 -110 -84 -227q-19 -90 -19 -172q3 -31 11 -51q14 -41 51 -19q41 21 76 68q46 56 110 145q23 32 49 66.5t59 77t50 65.5
q98 124 195 242q12 15 17.5 21t19.5 12.5t30 3.5q38 -3 41 -39q-1 -16 0 -20.5t-3.5 -20t-5.5 -19.5t-7.5 -18.5t-7.5 -18.5q-67 -158 -111 -354q-32 -139 -23 -270q1 -7 11 -37q24 -80 98 -39q64 37 115 104q42 52 200 267q129 172 144 194q4 6 14 13.5t14 11.5q12 16 43 0
q21 -8 21 -33q0 -22 -19 -49q-15 -21 -45.5 -62t-46.5 -61q-19 -25 -65 -87t-72 -95q-16 -20 -47.5 -61t-51 -65t-49.5 -56.5t-59 -57.5q-79 -68 -162 -63q-50 3 -82 43q-46 51 -49 131q-1 12 -1 24.5t0.5 26.5t0.5 20zM653 1206q0 -39 -39 -53q-5 -2 -16 4q-29 11 -57 51
q-26 37 -43 70q-9 11 -25 2q-8 -4 -15 -10t-15 -14.5t-13 -12.5q-12 -10 -32 -31.5t-31 -31.5q-15 -15 -31 -23q-20 -10 -35 2q-21 18 -16 39q8 27 22 41l125 125q28 28 66 25q14 0 30 -13q47 -45 117 -147q1 -2 8 -23z" />
    <glyph glyph-name="udieresis" unicode="&#xfc;" horiz-adv-x="1132" 
d="M526 358q1 25 -0.5 34t1.5 33.5t3.5 32.5t4.5 32t5.5 32l6 32t6.5 32q33 142 49 184q7 11 0 18q-4 2 -5 1t-4 -4.5t-5 -4.5l-2 -2q-22 -29 -68.5 -88.5t-68.5 -89.5q-140 -191 -197 -256q-43 -52 -94 -80q-59 -35 -104 -18t-66 76q-36 94 -15 194q3 17 9 60t12 67
q44 152 102 248q22 33 35 63q2 8 12.5 20.5t12.5 14.5q18 18 41 8q26 -11 26 -36q-1 -3 -1 -9.5t-1 -11t-4 -8.5q-6 -12 -22 -53t-29 -62q-61 -110 -84 -227q-19 -90 -19 -172q3 -31 11 -51q14 -41 51 -19q41 21 76 68q46 56 110 145q23 32 49 66.5t59 77t50 65.5
q98 124 195 242q12 15 17.5 21t19.5 12.5t30 3.5q38 -3 41 -39q-1 -16 0 -20.5t-3.5 -20t-5.5 -19.5t-7.5 -18.5t-7.5 -18.5q-67 -158 -111 -354q-32 -139 -23 -270q1 -7 11 -37q24 -80 98 -39q64 37 115 104q42 52 200 267q129 172 144 194q4 6 14 13.5t14 11.5q12 16 43 0
q21 -8 21 -33q0 -22 -19 -49q-15 -21 -45.5 -62t-46.5 -61q-19 -25 -65 -87t-72 -95q-16 -20 -47.5 -61t-51 -65t-49.5 -56.5t-59 -57.5q-79 -68 -162 -63q-50 3 -82 43q-46 51 -49 131q-1 12 -1 24.5t0.5 26.5t0.5 20zM426 1241q43 0 43 -55q-2 -22 -16.5 -36.5
t-36.5 -14.5q-45 3 -45 49q0 57 55 57zM557 1241q46 0 43 -55q0 -21 -15 -36t-36 -15q-25 1 -35 12.5t-10 36.5q0 57 53 57z" />
    <glyph glyph-name="yacute" unicode="&#xfd;" horiz-adv-x="845" 
d="M33 606q-1 26 1.5 53.5t7.5 65t7 53.5q4 35 14 71t27 85t23 70q11 42 51 79q23 16 41 7q24 -12 24 -33q0 -42 -8 -62q-67 -169 -88 -286q-6 -34 -10 -107q-3 -57 18 -127q6 -21 21 -39q33 -36 78 -16q29 13 67 47q101 97 152 172q55 92 59 98q100 174 178 336q7 17 29 39
q15 17 49 8q10 -1 17.5 -14.5t9.5 -28.5q0 -11 -15 -41q-70 -138 -92 -184q-75 -161 -131 -334q-15 -47 -61.5 -198t-75.5 -232q-49 -135 -121 -240q-37 -54 -100.5 -95.5t-128.5 -53.5q-59 -12 -123 18q-20 9 -25 27t6 33q18 19 41 14q112 -27 197 49q83 75 135 199
q45 110 113 323q21 79 35 109q5 16 -2 18q-3 1 -8 -3t-7 -7q-7 -11 -15 -21t-19 -21l-17.5 -17.5t-21 -18t-19.5 -15.5t-22.5 -17t-20.5 -15q-46 -35 -106 -35q-63 -3 -103 50q-66 95 -61 182v55zM657 1384q27 4 35 -18q5 -10 1 -25.5t-13 -21.5q-13 -11 -37 -23
q-117 -60 -182 -98q-24 -12 -45 -12q-26 3 -37 20q-6 9 -1.5 24t13.5 23q37 28 49 33q30 16 89 45.5l89 44.5q16 8 39 8z" />
    </font>
</defs>
</svg>
